<svg width="14" height="14" fill="none" xmlns="http://www.w3.org/2000/svg"><path d="M7 .5c1.766 0 1.986.006 2.68.039.691.032 1.163.141 1.578.302.429.165.79.389 1.151.75.33.325.587.718.75 1.152.16.414.27.885.302 1.578.03.693.039.913.039 2.679 0 1.766-.007 1.986-.039 2.68-.033.691-.142 1.163-.302 1.578a3.174 3.174 0 0 1-.75 1.151c-.325.33-.718.586-1.152.75-.414.16-.886.27-1.578.302-.693.03-.913.039-2.679.039-1.766 0-1.986-.007-2.68-.039-.692-.033-1.163-.142-1.578-.302a3.178 3.178 0 0 1-1.151-.75 3.187 3.187 0 0 1-.75-1.152c-.16-.414-.27-.886-.302-1.578C.509 8.986.5 8.766.5 7c0-1.766.006-1.986.039-2.68.032-.692.141-1.163.302-1.578a3.17 3.17 0 0 1 .75-1.151 3.174 3.174 0 0 1 1.152-.75c.414-.16.885-.27 1.578-.302C5.014.509 5.234.5 7 .5Zm0 3.25a3.25 3.25 0 1 0 0 6.5 3.25 3.25 0 0 0 0-6.5Zm4.225-.163a.812.812 0 1 0-1.625 0 .812.812 0 0 0 1.625 0ZM7 5.05a1.95 1.95 0 1 1 0 3.9 1.95 1.95 0 0 1 0-3.9Z" fill="#110A1D"/></svg>