<svg width="291" height="51" fill="none" xmlns="http://www.w3.org/2000/svg"><path d="M206.584 49.39c-13.505 0-24.495-10.99-24.495-24.497 0-13.505 10.99-24.495 24.495-24.495 13.506 0 24.496 10.99 24.496 24.495 0 13.506-10.99 24.496-24.496 24.496Zm0-47.228c-12.533 0-22.731 10.198-22.731 22.732 0 12.533 10.198 22.73 22.731 22.73 12.534 0 22.732-10.197 22.732-22.73 0-12.534-10.198-22.732-22.732-22.732Zm59.884 47.228a.88.88 0 1 1 0-1.759c12.534 0 22.731-10.198 22.731-22.731 0-12.534-10.197-22.731-22.731-22.731a.88.88 0 1 1 0-1.76c13.506 0 24.496 10.99 24.496 24.496 0 13.506-10.99 24.496-24.496 24.496v-.01Z" fill="#478BF9"/><path d="M230.882 23.921h-10.728v2.115h10.728V23.92Zm-36.936 0h-10.728v2.115h10.728V23.92Zm14.33 14.324h-2.115v10.728h2.115V38.245Zm0-37.261h-2.115v10.728h2.115V.984Z" fill="#478BF9"/><path d="M219.83 11.557c-7.337-7.337-19.237-7.337-26.579 0-7.337 7.337-7.337 19.238 0 26.58 7.337 7.337 19.237 7.337 26.579 0 7.337-7.337 7.337-19.238 0-26.58Zm-9.657 1.59a12.26 12.26 0 0 1 5.552 3.591l.288.325-.422.097c-1.117.263-2.31.479-3.545.638l-.221.031-.062-.216a16.246 16.246 0 0 0-.726-2.012 11.008 11.008 0 0 0-1.152-2.058l-.463-.632.751.231v.005Zm-8.587 11.114.01-.268c.052-1.626.232-3.18.54-4.61l.047-.226.231.02c2.706.237 5.598.227 8.289-.025l.231-.021.052.226a25.28 25.28 0 0 1 .54 4.636v.268h-9.94Zm9.94 1.193v.268c-.056 1.63-.237 3.19-.55 4.636l-.052.226-.231-.02a47.435 47.435 0 0 0-8.289-.026l-.232.02-.046-.226a25.716 25.716 0 0 1-.54-4.61l-.01-.268h9.95Zm-4.97-12.754c1.497 0 3.02 1.898 3.972 4.96l.098.308-.324.026a45.9 45.9 0 0 1-7.502.02l-.324-.025.098-.314c.952-3.072 2.48-4.98 3.982-4.98v.005Zm-9.22 4.095a12.261 12.261 0 0 1 5.603-3.643l.756-.231-.468.638c-.422.576-.813 1.27-1.152 2.053-.273.617-.52 1.307-.736 2.048l-.062.21-.221-.025a35 35 0 0 1-3.581-.623l-.427-.098.288-.329Zm-3.005 7.188a12.277 12.277 0 0 1 1.863-5.665l.103-.16.185.047c1.317.334 2.737.602 4.229.792l.278.036-.057.278a27.197 27.197 0 0 0-.53 4.698v.252h-6.086l.02-.278h-.005Zm1.966 7.573-.103-.16a12.257 12.257 0 0 1-1.863-5.664l-.02-.278h6.081v.252c.052 1.626.232 3.211.535 4.698l.057.278-.278.036c-1.487.19-2.912.458-4.229.792l-.185.046h.005Zm6.642 5.012a12.262 12.262 0 0 1-5.603-3.643l-.288-.33.427-.097a36.484 36.484 0 0 1 3.581-.623l.221-.025.062.21c.216.741.463 1.431.736 2.048.344.788.73 1.477 1.152 2.058l.468.638-.756-.231v-.005Zm3.617.447c-1.502 0-3.03-1.909-3.982-4.98l-.098-.314.324-.026a46.22 46.22 0 0 1 7.502.02l.324.027-.098.308c-.957 3.056-2.48 4.96-3.972 4.96v.005Zm9.169-4.039a12.287 12.287 0 0 1-5.552 3.592l-.751.231.463-.633c.422-.576.808-1.27 1.152-2.058.273-.633.52-1.306.726-2.011l.062-.216.221.03c1.235.16 2.428.376 3.545.638l.422.103-.288.324Zm3.051-7.244a12.255 12.255 0 0 1-1.899 5.727l-.103.16-.185-.047a34.737 34.737 0 0 0-4.198-.818l-.278-.036.056-.273a27.13 27.13 0 0 0 .535-4.733v-.253h6.087l-.021.278.006-.005Zm-6.061-1.471v-.252a27.65 27.65 0 0 0-.541-4.734l-.056-.273.278-.036a34.89 34.89 0 0 0 4.198-.818l.185-.046.103.16a12.18 12.18 0 0 1 1.899 5.726l.02.278h-6.081l-.005-.005Zm54.124 25.159h-59.118a.88.88 0 0 1 0-1.76h59.118a.88.88 0 0 1 0 1.76Zm.134-47.231h-59.118a.88.88 0 0 1 0-1.76h59.118a.88.88 0 0 1 0 1.76Z" fill="#478BF9"/><path d="M128.633 42.824c-9.634-9.634-9.634-25.307 0-34.942 9.634-9.634 25.308-9.634 34.942 0 9.634 9.635 9.634 25.308 0 34.942s-25.308 9.634-34.942 0ZM162.41 9.047c-8.992-8.992-23.621-8.992-32.611 0-8.992 8.992-8.992 23.621 0 32.61 8.993 8.993 23.622 8.993 32.611 0 8.992-8.991 8.992-23.62 0-32.61Z" fill="#fff"/><path d="M162.677 20.112a.81.81 0 0 1-.197-.318 17.091 17.091 0 0 0-4.149-6.67 17.14 17.14 0 0 0-6.67-4.15.824.824 0 0 1-.56-.78V2.189a.821.821 0 0 1 1.021-.799 24.647 24.647 0 0 1 11.447 6.492 24.676 24.676 0 0 1 6.49 11.448.82.82 0 0 1-.799 1.024h-6.004a.823.823 0 0 1-.584-.244l.005.002Zm-3.182-8.153a18.773 18.773 0 0 1 4.346 6.747h4.344a23.035 23.035 0 0 0-5.778-9.66 23.012 23.012 0 0 0-9.657-5.774v4.343a18.724 18.724 0 0 1 6.748 4.346l-.003-.002Zm-30.863 30.865a24.668 24.668 0 0 1-6.492-11.447.825.825 0 0 1 .799-1.022h6.005c.354 0 .668.225.78.56a17.103 17.103 0 0 0 4.149 6.67 17.137 17.137 0 0 0 6.671 4.15.821.821 0 0 1 .559.78v6.005a.824.824 0 0 1-1.023.799 24.68 24.68 0 0 1-11.448-6.49v-.005ZM124.019 32a23.036 23.036 0 0 0 5.778 9.66 23.036 23.036 0 0 0 9.659 5.777v-4.343a18.734 18.734 0 0 1-6.747-4.344 18.773 18.773 0 0 1-4.346-6.748h-4.344V32Zm27.327 17.099a.822.822 0 0 1-.242-.584V42.51c0-.353.225-.667.56-.78a17.098 17.098 0 0 0 6.671-4.149 17.138 17.138 0 0 0 4.149-6.67.821.821 0 0 1 .78-.56h6.005a.82.82 0 0 1 .799 1.021 24.705 24.705 0 0 1-6.492 11.448 24.654 24.654 0 0 1-11.448 6.492.826.826 0 0 1-.705-.15l-.075-.068-.002.005Zm1.406-6.007v4.343a23.035 23.035 0 0 0 9.659-5.777 23.055 23.055 0 0 0 5.778-9.66h-4.344a18.727 18.727 0 0 1-4.346 6.747 18.743 18.743 0 0 1-6.747 4.347Zm-30.396-22.98a.827.827 0 0 1-.216-.783 24.653 24.653 0 0 1 6.493-11.447A24.682 24.682 0 0 1 140.08 1.39a.826.826 0 0 1 .705.15.827.827 0 0 1 .316.65v6.004a.821.821 0 0 1-.559.78 17.097 17.097 0 0 0-6.671 4.15 17.144 17.144 0 0 0-4.149 6.67.821.821 0 0 1-.78.56h-6.005a.825.825 0 0 1-.583-.24l.002-.002Zm17.098-16.84a23.035 23.035 0 0 0-9.659 5.777 23.056 23.056 0 0 0-5.778 9.66h4.344a18.728 18.728 0 0 1 4.346-6.748 18.773 18.773 0 0 1 6.747-4.346V3.272Z" fill="#fff"/><path d="M159.497 11.96c-7.385-7.386-19.404-7.388-26.789 0-7.387 7.386-7.384 19.403 0 26.788 7.385 7.385 19.402 7.387 26.789 0 7.387-7.387 7.385-19.404 0-26.789Z" fill="#fff"/><path d="m152.936 32.114-13.607.09a1.038 1.038 0 0 0-1.031 1.045l.003.485a1.038 1.038 0 0 0 1.045 1.031l13.607-.09a1.038 1.038 0 0 0 1.031-1.045l-.003-.485a1.038 1.038 0 0 0-1.045-1.03ZM141.183 23.9a.996.996 0 0 1-.433-.098l-1.062-.513a.981.981 0 0 1-.48-1.246l.487-1.214a.978.978 0 0 1 1.392-.485l1.265.722a.977.977 0 0 1 .321 1.405l-.693 1.006a.975.975 0 0 1-.799.421l.002.003Zm9.795-.065a.982.982 0 0 1-.804-.412l-.687-.968c-.159-.222-.215-.503-.159-.77a.976.976 0 0 1 .462-.64l1.305-.766a.98.98 0 0 1 1.398.466l.492 1.178a.984.984 0 0 1-.464 1.254l-1.11.555a.992.992 0 0 1-.431.103h-.002Z" fill="#110A1D"/><path d="M140.114 31.295a1.414 1.414 0 0 1-1.338-.932l-2.27-6.249c-.146.07-.3.124-.457.164a2.447 2.447 0 0 1-.886.052 2.397 2.397 0 0 1 .293-4.773 2.397 2.397 0 0 1 2.252 3.252c-.059.15-.132.293-.216.429l4.318 2.09 3.304-4.787a2.423 2.423 0 0 1-1.015-.818 2.387 2.387 0 0 1-.443-1.37 2.4 2.4 0 0 1 2.559-2.409 2.4 2.4 0 0 1 1.799 3.765 2.432 2.432 0 0 1-.611.605 2.21 2.21 0 0 1-.396.218l3.362 4.737 4.247-2.125a2.462 2.462 0 0 1-.189-.478 2.3 2.3 0 0 1-.087-.625 2.395 2.395 0 1 1 4.789-.03 2.4 2.4 0 0 1-2.228 2.405l-.15.005a2.329 2.329 0 0 1-1.146-.284l-2.132 6.127a1.414 1.414 0 0 1-1.326.949l-12.033.08v.002Z" fill="#110A1D"/><path d="M83.197 49.633c-6.277 0-12.549-2.387-17.329-7.167-9.554-9.555-9.554-25.098 0-34.652A24.345 24.345 0 0 1 83.197.636a24.345 24.345 0 0 1 17.329 7.178c9.554 9.554 9.554 25.097 0 34.652-4.775 4.775-11.052 7.167-17.33 7.167ZM67.154 41.18c8.845 8.844 23.236 8.844 32.08 0 8.845-8.845 8.845-23.236 0-32.08-4.286-4.286-9.981-6.642-16.042-6.642A22.554 22.554 0 0 0 67.149 9.1c-8.844 8.844-8.844 23.235 0 32.08h.005Z" fill="#7DDACF"/><path d="m84.104 19.982-4.538 6.359h2.722v4.538l4.538-6.354h-2.722v-4.543Z" fill="#7DDACF"/><path d="M83.192 16.447c-4.97 0-9.004 4.034-9.004 9.004s4.034 8.993 9.004 8.993 9.004-4.033 9.004-8.993-4.034-9.004-9.004-9.004Zm0 16.886a7.905 7.905 0 0 1-7.903-7.903 7.905 7.905 0 0 1 7.903-7.903 7.905 7.905 0 0 1 7.903 7.903 7.905 7.905 0 0 1-7.903 7.903Z" fill="#7DDACF"/><path d="M97.11 11.225c-3.714-3.72-8.659-5.763-13.917-5.763a19.565 19.565 0 0 0-13.918 5.763c-7.67 7.671-7.67 20.158 0 27.835a19.617 19.617 0 0 0 13.918 5.757c5.042 0 10.08-1.92 13.918-5.757 7.671-7.672 7.671-20.159 0-27.835Zm-13.917 26.44c-6.73 0-12.21-5.48-12.21-12.209 0-2.974 1.066-5.7 2.836-7.83l-1.493-1.493a1.098 1.098 0 1 1 1.554-1.554l1.492 1.492a12.09 12.09 0 0 1 6.725-2.783v-1.009H81.09c-.89 0-1.626-.735-1.626-1.625v-.85c0-.9.736-1.625 1.626-1.625h4.219c.89 0 1.625.725 1.625 1.626v.849c0 .89-.735 1.625-1.625 1.625H84.3v1.009a12.146 12.146 0 0 1 6.725 2.783l1.492-1.492a1.102 1.102 0 0 1 1.554 0 1.102 1.102 0 0 1 0 1.554l-1.492 1.492a12.2 12.2 0 0 1 2.835 7.831c0 6.73-5.48 12.21-12.21 12.21h-.01Z" fill="#7DDACF"/><path d="M24.736 49.166c-13.506 0-24.49-10.99-24.49-24.491S11.235.185 24.735.185s24.49 10.989 24.49 24.49c0 13.5-10.99 24.49-24.49 24.49Zm0-47.35c-12.606 0-22.86 10.253-22.86 22.859 0 12.605 10.254 22.86 22.86 22.86 12.605 0 22.86-10.255 22.86-22.86 0-12.606-10.255-22.86-22.86-22.86Z" fill="#fff"/><path d="m40.716 7.199-7.582 7.582 1.492 1.491 7.582-7.581-1.492-1.492ZM14.618 33.298 7.036 40.88l1.492 1.491 7.582-7.582-1.492-1.491Zm20.238-.001-1.492 1.491 7.582 7.582 1.492-1.491-7.582-7.582ZM8.533 6.969 7.042 8.46l7.578 7.579 1.492-1.492L8.533 6.97Zm22.182 18.364a1.255 1.255 0 0 0 0-1.78l-1.05-1.044a1.254 1.254 0 0 0-1.78 0l-.566.566-.653-.654a1.255 1.255 0 0 0-1.78 0l-.567.571-.653-.658a1.255 1.255 0 0 0-1.78 0l-3.473 3.473c-.026.026-.026.067 0 .098a1.2 1.2 0 0 0 1.688 0l2.238-2.239a.618.618 0 0 1 .874 0l.165.165c.03.03.03.077 0 .108l-1.868 1.868c-.026.026-.026.067 0 .098a1.2 1.2 0 0 0 1.688 0l2.145-2.146a.618.618 0 0 1 .875 0l.165.165c.025.025.025.067 0 .097l-1.801 1.801c-.026.026-.026.067 0 .098.463.463 1.22.463 1.687 0l2.074-2.074a.618.618 0 0 1 .875 0l.355.355a.363.363 0 0 1 0 .51l-.057.056a.363.363 0 0 1-.51 0l-.457-.457c-.026-.026-.067-.026-.098 0l-.792.792c-.026.026-.026.067 0 .098l.715.715a1.255 1.255 0 0 0 1.78 0l.566-.566-.005-.016Z" fill="#fff"/><path d="M24.736 5.89c-10.372 0-18.78 8.407-18.78 18.78 0 10.372 8.408 18.78 18.78 18.78 10.373 0 18.78-8.408 18.78-18.78 0-10.373-8.407-18.78-18.78-18.78Zm.767 5.798a12.958 12.958 0 0 1 7.872 3.262l-2.712 2.712a9.154 9.154 0 0 0-5.16-2.14v-3.834Zm-1.528 0v3.833a9.118 9.118 0 0 0-5.16 2.14l-2.712-2.71a12.958 12.958 0 0 1 7.872-3.263Zm-8.953 4.343 2.712 2.711a9.153 9.153 0 0 0-2.14 5.16H11.76a12.958 12.958 0 0 1 3.263-7.871Zm-3.262 9.4h3.834a9.118 9.118 0 0 0 2.14 5.16l-2.712 2.712a12.958 12.958 0 0 1-3.262-7.872Zm12.215 12.214a12.959 12.959 0 0 1-7.872-3.262l2.711-2.711a9.154 9.154 0 0 0 5.16 2.14v3.834Zm-7.131-12.98a7.894 7.894 0 0 1 7.892-7.893 7.894 7.894 0 0 1 7.893 7.892 7.894 7.894 0 0 1-7.893 7.893 7.894 7.894 0 0 1-7.892-7.893Zm8.659 12.98v-3.833a9.118 9.118 0 0 0 5.16-2.14l2.712 2.711a12.958 12.958 0 0 1-7.872 3.262Zm8.953-4.342-2.712-2.711a9.154 9.154 0 0 0 2.14-5.161h3.834a12.958 12.958 0 0 1-3.263 7.872Zm-.572-9.4a9.118 9.118 0 0 0-2.14-5.16l2.712-2.712a12.958 12.958 0 0 1 3.261 7.872h-3.833Z" fill="#fff"/></svg>