<svg width="295" height="50" fill="none" xmlns="http://www.w3.org/2000/svg"><path d="M270.44 49.907c-13.506 0-24.491-10.99-24.491-24.49 0-13.501 10.99-24.491 24.491-24.491s24.491 10.99 24.491 24.49c0 13.501-10.99 24.491-24.491 24.491Zm0-47.35c-12.605 0-22.86 10.254-22.86 22.86 0 12.605 10.255 22.86 22.86 22.86 12.606 0 22.86-10.255 22.86-22.86 0-12.606-10.254-22.86-22.86-22.86Z" fill="#7DDACF"/><path d="m286.422 7.941-7.582 7.582 1.492 1.492 7.582-7.582-1.492-1.492Zm-26.1 26.099-7.582 7.582 1.492 1.492 7.582-7.582-1.492-1.492Zm20.232.004-1.492 1.491 7.582 7.582 1.492-1.491-7.582-7.582ZM254.23 7.716l-1.491 1.492 7.578 7.578 1.491-1.491-7.578-7.579Zm22.184 18.359a1.256 1.256 0 0 0 0-1.78l-1.05-1.045a1.254 1.254 0 0 0-1.78 0l-.566.566-.654-.653a1.254 1.254 0 0 0-1.78 0l-.566.571-.653-.659a1.254 1.254 0 0 0-1.78 0l-3.473 3.474c-.026.025-.026.066 0 .097a1.198 1.198 0 0 0 1.687 0l2.238-2.238a.618.618 0 0 1 .875 0l.165.165c.03.03.03.077 0 .108l-1.868 1.867c-.026.026-.026.067 0 .098a1.2 1.2 0 0 0 1.688 0l2.145-2.145a.618.618 0 0 1 .875 0l.164.164c.026.026.026.067 0 .098l-1.8 1.8c-.026.027-.026.068 0 .099a1.198 1.198 0 0 0 1.687 0l2.074-2.074a.617.617 0 0 1 .874 0l.355.355a.363.363 0 0 1 0 .51l-.056.056a.364.364 0 0 1-.51 0l-.458-.458c-.025-.025-.066-.025-.097 0l-.793.793c-.025.025-.025.066 0 .097l.715.716a1.255 1.255 0 0 0 1.781 0l.566-.567-.005-.015Z" fill="#7DDACF"/><path d="M270.441 6.637c-10.373 0-18.78 8.407-18.78 18.78 0 10.372 8.407 18.78 18.78 18.78 10.372 0 18.779-8.408 18.779-18.78 0-10.373-8.407-18.78-18.779-18.78Zm.766 5.798a12.956 12.956 0 0 1 7.872 3.262l-2.711 2.712a9.153 9.153 0 0 0-5.161-2.14v-3.833Zm-1.528 0v3.834a9.117 9.117 0 0 0-5.16 2.14l-2.712-2.711a12.959 12.959 0 0 1 7.872-3.263Zm-8.952 4.343 2.711 2.711a9.154 9.154 0 0 0-2.14 5.161h-3.833a12.959 12.959 0 0 1 3.262-7.872Zm-3.262 9.4h3.833a9.113 9.113 0 0 0 2.14 5.16l-2.711 2.712a12.96 12.96 0 0 1-3.262-7.872Zm12.214 12.214a12.959 12.959 0 0 1-7.872-3.262l2.712-2.71a9.152 9.152 0 0 0 5.16 2.14v3.832Zm-7.131-12.98a7.893 7.893 0 1 1 7.893 7.893 7.894 7.894 0 0 1-7.893-7.894Zm8.659 12.98V34.56a9.117 9.117 0 0 0 5.161-2.14l2.711 2.712a12.956 12.956 0 0 1-7.872 3.261Zm8.953-4.342-2.712-2.711a9.155 9.155 0 0 0 2.141-5.16h3.833a12.96 12.96 0 0 1-3.262 7.871Zm-.571-9.4a9.121 9.121 0 0 0-2.141-5.16l2.712-2.712a12.959 12.959 0 0 1 3.262 7.872h-3.833Z" fill="#7DDACF"/><path d="M209.411 49.833c-13.506 0-24.491-10.99-24.491-24.49 0-13.502 10.99-24.491 24.491-24.491s24.491 10.99 24.491 24.49c0 13.501-10.99 24.49-24.491 24.49Zm0-47.35c-12.606 0-22.86 10.254-22.86 22.86 0 12.605 10.254 22.859 22.86 22.859 12.605 0 22.86-10.254 22.86-22.86 0-12.605-10.255-22.86-22.86-22.86Z" fill="#9DADF2"/><path d="M217.356 10.051a.802.802 0 0 1-.36-.082 16.964 16.964 0 0 0-7.584-1.77c-2.66 0-5.212.597-7.583 1.77a.815.815 0 0 1-.937-.155l-4.209-4.208a.811.811 0 0 1-.231-.68.814.814 0 0 1 .391-.601A24.446 24.446 0 0 1 209.418.852c4.435 0 8.782 1.204 12.574 3.473.216.128.36.35.391.601a.827.827 0 0 1-.231.68l-4.209 4.208a.829.829 0 0 1-.581.237h-.006Zm-7.944-3.483c2.712 0 5.326.566 7.775 1.682l3.046-3.046a22.818 22.818 0 0 0-10.821-2.721 22.82 22.82 0 0 0-10.82 2.721l3.046 3.046a18.606 18.606 0 0 1 7.774-1.682Zm-.001 43.265a24.494 24.494 0 0 1-12.574-3.473.814.814 0 0 1-.391-.602.827.827 0 0 1 .231-.68l4.209-4.208a.815.815 0 0 1 .936-.154 16.964 16.964 0 0 0 7.584 1.77c2.66 0 5.212-.597 7.584-1.77a.815.815 0 0 1 .937.154l4.208 4.209c.18.18.263.427.232.679a.814.814 0 0 1-.391.602 24.449 24.449 0 0 1-12.575 3.473h.01Zm-10.82-4.353a22.816 22.816 0 0 0 10.82 2.722 22.81 22.81 0 0 0 10.821-2.722l-3.046-3.046a18.608 18.608 0 0 1-7.775 1.683 18.6 18.6 0 0 1-7.774-1.683l-3.046 3.046Zm31.139-7.167a.812.812 0 0 1-.577-.236l-4.208-4.21a.816.816 0 0 1-.155-.936 16.951 16.951 0 0 0 1.77-7.583c0-2.66-.596-5.212-1.77-7.584a.814.814 0 0 1 .155-.937l4.208-4.209a.814.814 0 0 1 .68-.231c.252.03.473.175.602.391a24.448 24.448 0 0 1 3.473 12.575c0 4.435-1.199 8.782-3.473 12.574a.814.814 0 0 1-.602.391h-.103v-.005Zm-3.226-5.196 3.046 3.046a22.817 22.817 0 0 0 2.721-10.82c0-3.788-.936-7.507-2.721-10.82l-3.046 3.045a18.614 18.614 0 0 1 1.682 7.774c0 2.712-.566 5.326-1.682 7.775Zm-37.411 5.196c-.036 0-.067 0-.098-.005a.812.812 0 0 1-.602-.391 24.448 24.448 0 0 1-3.473-12.575c0-4.435 1.199-8.782 3.473-12.574a.813.813 0 0 1 .602-.391.827.827 0 0 1 .679.231l4.209 4.209a.816.816 0 0 1 .154.936 16.964 16.964 0 0 0-1.77 7.584c0 2.66.597 5.212 1.77 7.584a.813.813 0 0 1-.154.937l-4.209 4.208a.813.813 0 0 1-.576.242l-.005.005Zm.18-23.79a22.807 22.807 0 0 0-2.722 10.82c0 3.786.936 7.506 2.722 10.82l3.046-3.046a18.599 18.599 0 0 1-1.683-7.775 18.6 18.6 0 0 1 1.683-7.774l-3.046-3.046Z" fill="#9DADF2"/><path d="M209.411 6.563c-10.352 0-18.779 8.422-18.779 18.78 0 10.357 8.422 18.779 18.779 18.779s18.78-8.422 18.78-18.78c0-10.357-8.423-18.78-18.78-18.78Zm10.568 12.61a12.1 12.1 0 0 1 1.606 4.95.182.182 0 0 1-.088.175 15.721 15.721 0 0 0-3.586 3.01.168.168 0 0 1-.19.051l-2.321-.756a.177.177 0 0 1-.123-.15 16.184 16.184 0 0 0-1.775-5.463.182.182 0 0 1 .015-.19l1.435-1.977a.198.198 0 0 1 .15-.077h.041c1.533.34 3.108.453 4.672.325a.186.186 0 0 1 .175.092l-.011.01Zm-5.968 7.605a.187.187 0 0 1-.041.139 12.286 12.286 0 0 1-4.487 3.252.164.164 0 0 1-.139 0 12.403 12.403 0 0 1-4.486-3.252.183.183 0 0 1-.041-.14 14.894 14.894 0 0 1 1.718-5.288.172.172 0 0 1 .118-.088 13.443 13.443 0 0 1 5.526 0 .17.17 0 0 1 .119.088 15.014 15.014 0 0 1 1.718 5.289h-.005Zm-.278-12.77s.062-.052.124-.052c.02 0 .046 0 .072.016a12.334 12.334 0 0 1 4.903 3.565.17.17 0 0 1 .026.19.178.178 0 0 1-.165.109 14.179 14.179 0 0 1-3.458-.386.184.184 0 0 1-.113-.082 14.584 14.584 0 0 1-1.435-3.175.172.172 0 0 1 .051-.185h-.005Zm-6.92-.618a12.483 12.483 0 0 1 5.202 0 .185.185 0 0 1 .139.134c.365 1.528.957 2.99 1.754 4.342a.19.19 0 0 1-.01.201l-1.425 1.966a.18.18 0 0 1-.181.072 14.649 14.649 0 0 0-5.757 0 .178.178 0 0 1-.18-.072l-1.425-1.966a.189.189 0 0 1-.01-.2 15.773 15.773 0 0 0 1.754-4.343.183.183 0 0 1 .139-.134Zm-6.817 4.147a12.236 12.236 0 0 1 4.903-3.565.2.2 0 0 1 .072-.016.17.17 0 0 1 .123.052.173.173 0 0 1 .052.185 14.48 14.48 0 0 1-1.436 3.175.18.18 0 0 1-.113.082 14.17 14.17 0 0 1-3.457.386.177.177 0 0 1-.165-.108.171.171 0 0 1 .026-.19h-.005Zm-1.148 1.636a.183.183 0 0 1 .16-.092h.015a15.85 15.85 0 0 0 4.672-.324.174.174 0 0 1 .185.072l1.436 1.975a.183.183 0 0 1 .015.19 16.14 16.14 0 0 0-1.775 5.465.193.193 0 0 1-.123.15l-2.321.755a.186.186 0 0 1-.19-.051 15.743 15.743 0 0 0-3.586-3.01.192.192 0 0 1-.088-.175 12.075 12.075 0 0 1 1.605-4.95l-.005-.005Zm.561 12.678a.18.18 0 0 1-.154.123c-.036 0-.119 0-.175-.082a12.21 12.21 0 0 1-1.873-5.768.176.176 0 0 1 .093-.17c.031-.015.113-.05.195.01a14.311 14.311 0 0 1 2.573 2.347.175.175 0 0 1 .041.134 14.12 14.12 0 0 1-.705 3.411l.005-.005Zm5.083 4.697a12.144 12.144 0 0 1-4.203-3.066.186.186 0 0 1-.036-.19c.602-1.451.983-2.98 1.132-4.544a.176.176 0 0 1 .123-.154l2.295-.746s.036-.01.057-.01c.051 0 .097.02.133.061a13.696 13.696 0 0 0 4.662 3.391.18.18 0 0 1 .108.165v2.413a.174.174 0 0 1-.108.164 15.733 15.733 0 0 0-3.977 2.486.174.174 0 0 1-.191.025l.005.005Zm8.094.51a.172.172 0 0 1-.134.144 12.372 12.372 0 0 1-6.071 0 .18.18 0 0 1-.134-.144.182.182 0 0 1 .072-.185 14.35 14.35 0 0 1 3.03-1.724.164.164 0 0 1 .139 0 14.61 14.61 0 0 1 3.031 1.724.19.19 0 0 1 .072.185h-.005Zm5.963-3.57a12.125 12.125 0 0 1-4.204 3.06.18.18 0 0 1-.19-.025 15.646 15.646 0 0 0-3.977-2.485.18.18 0 0 1-.108-.165V31.46c0-.072.041-.139.108-.165a13.637 13.637 0 0 0 4.661-3.39.174.174 0 0 1 .134-.062c.021 0 .036 0 .057.01l2.294.746c.067.02.119.082.124.155.149 1.564.53 3.087 1.132 4.543a.176.176 0 0 1-.036.19h.005Zm1.204-1.59a.177.177 0 0 1-.175.082c-.036 0-.118-.026-.154-.124a14.562 14.562 0 0 1-.705-3.411c0-.046.01-.098.041-.134a14.5 14.5 0 0 1 2.572-2.346.178.178 0 0 1 .103-.036c.041 0 .072.015.093.026a.168.168 0 0 1 .093.17 12.21 12.21 0 0 1-1.873 5.767l.005.005Z" fill="#9DADF2"/><path d="M148.949 1.008c13.506 0 24.496 10.99 24.496 24.496 0 13.506-10.99 24.496-24.496 24.496-13.506 0-24.496-10.99-24.496-24.496 0-13.506 10.99-24.496 24.496-24.496Zm0 47.227c12.533 0 22.731-10.197 22.731-22.73 0-12.534-10.198-22.732-22.731-22.732-12.534 0-22.731 10.198-22.731 22.731 0 12.534 10.197 22.731 22.731 22.731ZM89.07 1.007a.88.88 0 1 1 0 1.76c-12.533 0-22.731 10.197-22.731 22.73 0 12.534 10.198 22.732 22.731 22.732a.88.88 0 1 1 0 1.76c-13.506 0-24.496-10.99-24.496-24.496C64.574 11.986 75.564.997 89.07.997v.01Z" fill="#478BF9"/><path d="M144.236 21.172c0 .9.612 1.682 1.487 1.898l1.662.417V19.21h-1.184c-1.08 0-1.96.88-1.96 1.96h-.005Zm6.286 10.614h1.184c1.08 0 1.96-.88 1.96-1.96 0-.9-.612-1.683-1.487-1.899l-1.662-.417v4.276h.005Z" fill="#478BF9"/><path d="M148.954 5.567c-10.99 0-19.937 8.942-19.937 19.937 0 10.995 8.942 19.937 19.937 19.937 10.995 0 19.937-8.942 19.937-19.937 0-10.995-8.942-19.937-19.937-19.937Zm7.862 16.788h-3.144v-1.574c0-.865-.705-1.575-1.574-1.575h-1.575v5.063l2.423.607a5.096 5.096 0 0 1 3.864 4.95 5.11 5.11 0 0 1-5.103 5.104h-1.184v3.982h-3.144V34.93h-1.574a4.721 4.721 0 0 1-4.718-4.718v-1.575h3.144v1.575c0 .864.705 1.574 1.574 1.574h1.574v-5.063l-2.423-.607a5.097 5.097 0 0 1-3.864-4.95 5.11 5.11 0 0 1 5.104-5.103h1.183V12.08h3.144v3.983h1.575a4.721 4.721 0 0 1 4.718 4.718v1.574ZM88.695.978h59.117a.88.88 0 1 1 0 1.76H88.694a.88.88 0 1 1 0-1.76Zm-.129 47.224h59.117a.88.88 0 1 1 0 1.76H88.566a.88.88 0 1 1 0-1.76Z" fill="#478BF9"/><path d="M24.953 49.915c-6.277 0-12.55-2.387-17.329-7.167-9.554-9.554-9.554-25.098 0-34.652A24.345 24.345 0 0 1 24.953.918a24.345 24.345 0 0 1 17.329 7.178c9.554 9.554 9.554 25.098 0 34.652-4.775 4.775-11.052 7.167-17.33 7.167ZM8.91 41.462c8.845 8.844 23.236 8.844 32.08 0 8.844-8.845 8.844-23.235 0-32.08-4.286-4.286-9.98-6.642-16.042-6.642A22.548 22.548 0 0 0 8.905 9.382c-8.844 8.845-8.844 23.236 0 32.08h.005Z" fill="#9DADF2"/><path d="M24.629 34.588a.547.547 0 0 0 .51.334.64.64 0 0 0 .215-.04 12.702 12.702 0 0 0 4.549-3.247.552.552 0 0 0-.047-.777.552.552 0 0 0-.777.046 11.502 11.502 0 0 1-4.152 2.964.552.552 0 0 0-.293.72h-.005Z" fill="#9DADF2"/><path d="m34.29 16.95-9.137-3.652a.569.569 0 0 0-.412 0l-9.137 3.653a.541.541 0 0 0-.345.509v6.545c.01 6.04 3.828 11.499 9.498 13.578a.59.59 0 0 0 .38 0c5.67-2.084 9.488-7.538 9.498-13.578V17.46a.541.541 0 0 0-.344-.51Zm-.756 7.055c-.01 5.495-3.457 10.5-8.582 12.471-5.124-1.97-8.577-6.976-8.587-12.471v-6.17l8.587-3.431 8.582 3.432v6.169Z" fill="#9DADF2"/><path d="M21.135 17.81a.545.545 0 0 0-.422 0l-2.177.87a.542.542 0 0 0-.344.509v2.32a.551.551 0 0 0 1.1 0v-1.945l1.827-.73a.545.545 0 0 0 .304-.72.565.565 0 0 0-.293-.304h.005Z" fill="#9DADF2"/><path d="M38.87 11.507c-3.714-3.72-8.659-5.763-13.917-5.763a19.565 19.565 0 0 0-13.918 5.763c-7.671 7.671-7.671 20.158 0 27.835 3.838 3.838 8.875 5.752 13.918 5.752a19.632 19.632 0 0 0 13.917-5.752c7.672-7.671 7.672-20.159 0-27.835Zm-2.72 12.497a15.854 15.854 0 0 1-11.1 15.204.317.317 0 0 1-.195 0 15.854 15.854 0 0 1-11.098-15.204v-7.723c0-.128.077-.246.2-.298l10.877-4.348a.302.302 0 0 1 .119-.02c.04 0 .082.005.118.02l10.877 4.353c.123.047.2.165.2.299v7.723-.006Z" fill="#9DADF2"/></svg>