<svg width="100" height="593" fill="none" xmlns="http://www.w3.org/2000/svg"><path d="M49.733 593c-12.7 0-25.387-4.829-35.057-14.499-19.329-19.329-19.329-50.773 0-70.102 9.368-9.368 21.817-14.52 35.056-14.52 13.24 0 25.689 5.152 35.057 14.52 19.329 19.329 19.329 50.773 0 70.102C75.129 588.16 62.43 593 49.733 593Zm-32.455-17.101c17.893 17.892 47.006 17.892 64.898 0 17.893-17.893 17.893-47.006 0-64.898-8.67-8.671-20.193-13.438-32.454-13.438s-23.784 4.778-32.454 13.438c-17.893 17.892-17.893 47.005 0 64.898h.01Z" fill="#9DADF2"/><path d="M49.077 561.993c.177.427.593.676 1.03.676.146 0 .292-.031.438-.083a25.705 25.705 0 0 0 9.2-6.568 1.116 1.116 0 0 0-.093-1.571 1.117 1.117 0 0 0-1.572.093 23.272 23.272 0 0 1-8.4 5.996 1.117 1.117 0 0 0-.593 1.457h-.01Z" fill="#9DADF2"/><path d="m68.623 526.312-18.486-7.39a1.15 1.15 0 0 0-.833 0l-18.486 7.39a1.095 1.095 0 0 0-.697 1.03v13.24c.02 12.22 7.744 23.264 19.214 27.469a1.212 1.212 0 0 0 .77 0c11.47-4.216 19.194-15.249 19.215-27.469v-13.24c0-.458-.27-.863-.697-1.03Zm-1.53 14.27c-.021 11.117-6.995 21.244-17.362 25.231-10.367-3.987-17.351-14.114-17.372-25.231v-12.48l17.372-6.942 17.361 6.942v12.48Z" fill="#9DADF2"/><path d="M42.008 528.05a1.108 1.108 0 0 0-.853 0l-4.403 1.759a1.097 1.097 0 0 0-.697 1.031v4.694c0 .614.5 1.114 1.113 1.114.614 0 1.114-.5 1.114-1.114V531.6l3.695-1.478c.281-.115.49-.323.614-.604a1.143 1.143 0 0 0-.593-1.468h.01Z" fill="#9DADF2"/><path d="M77.888 515.3c-7.515-7.526-17.518-11.658-28.156-11.658-10.637 0-20.63 4.143-28.155 11.658-15.52 15.519-15.52 40.781 0 56.311 7.765 7.764 17.955 11.636 28.155 11.636 10.2 0 20.39-3.882 28.156-11.636 15.519-15.52 15.519-40.782 0-56.311Zm-5.507 25.282c.032 14.125-8.993 26.48-22.451 30.758a.636.636 0 0 1-.396 0c-13.458-4.278-22.482-16.633-22.451-30.758v-15.623c0-.26.156-.5.406-.604l22.004-8.795a.615.615 0 0 1 .24-.042c.082 0 .166.011.239.042l22.003 8.806c.25.093.406.333.406.603v15.624-.011Z" fill="#9DADF2"/><path d="M49.733 466.39C22.41 466.39.187 444.157.187 416.844c0-27.312 22.233-49.545 49.546-49.545 27.312 0 49.545 22.233 49.545 49.545 0 27.313-22.233 49.546-49.546 49.546Zm0-95.791c-25.502 0-46.246 20.744-46.246 46.245 0 25.502 20.744 46.246 46.245 46.246 25.502 0 46.246-20.744 46.246-46.246 0-25.501-20.744-46.245-46.245-46.245Z" fill="#7DDACF"/><path d="m82.065 381.491-15.339 15.338 3.018 3.018 15.338-15.338-3.017-3.018ZM29.264 434.29l-15.338 15.338 3.017 3.018 15.338-15.338-3.017-3.018Zm40.929.008-3.017 3.017 15.338 15.338 3.017-3.017-15.338-15.338ZM16.94 381.037l-3.018 3.017 15.33 15.331 3.018-3.017-15.33-15.331Zm44.877 37.14a2.54 2.54 0 0 0 0-3.602l-2.124-2.113a2.538 2.538 0 0 0-3.601 0l-1.145 1.145-1.322-1.322a2.538 2.538 0 0 0-3.601 0l-1.145 1.156-1.322-1.332c-1-1-2.613-1-3.602 0l-7.026 7.025c-.052.052-.052.136 0 .198a2.425 2.425 0 0 0 3.415 0l4.527-4.528a1.25 1.25 0 0 1 1.77 0l.333.334a.15.15 0 0 1 0 .218l-3.778 3.778c-.052.052-.052.136 0 .198a2.425 2.425 0 0 0 3.414 0l4.34-4.34a1.25 1.25 0 0 1 1.77 0l.333.333c.052.052.052.135 0 .198l-3.643 3.643c-.053.052-.053.135 0 .197a2.425 2.425 0 0 0 3.414 0l4.194-4.194a1.25 1.25 0 0 1 1.77 0l.718.718a.735.735 0 0 1 0 1.03l-.115.115a.735.735 0 0 1-1.03 0l-.926-.927c-.053-.052-.136-.052-.198 0l-1.603 1.603c-.052.052-.052.136 0 .198l1.447 1.447a2.538 2.538 0 0 0 3.601 0l1.145-1.145-.01-.031Z" fill="#7DDACF"/><path d="M49.734 378.853c-20.984 0-37.992 17.008-37.992 37.992 0 20.983 17.008 37.991 37.992 37.991 20.983 0 37.991-17.008 37.991-37.991 0-20.984-17.008-37.992-37.991-37.992Zm1.55 11.731a26.206 26.206 0 0 1 15.926 6.599l-5.486 5.485a18.518 18.518 0 0 0-10.44-4.33v-7.754Zm-3.09 0v7.754a18.45 18.45 0 0 0-10.44 4.33l-5.486-5.485a26.207 26.207 0 0 1 15.925-6.599Zm-18.112 8.784 5.485 5.486a18.516 18.516 0 0 0-4.33 10.44h-7.754a26.217 26.217 0 0 1 6.6-15.926Zm-6.599 19.017h7.755a18.444 18.444 0 0 0 4.33 10.44l-5.486 5.485a26.212 26.212 0 0 1-6.599-15.925Zm24.71 24.71a26.213 26.213 0 0 1-15.925-6.599l5.485-5.485a18.518 18.518 0 0 0 10.44 4.33v7.754Zm-14.426-26.261c0-8.816 7.15-15.967 15.967-15.967 8.816 0 15.967 7.151 15.967 15.967s-7.151 15.967-15.967 15.967c-8.817 0-15.967-7.151-15.967-15.967Zm17.517 26.261v-7.754a18.449 18.449 0 0 0 10.44-4.33l5.486 5.485a26.212 26.212 0 0 1-15.925 6.599Zm18.111-8.785-5.485-5.485a18.516 18.516 0 0 0 4.33-10.44h7.755a26.211 26.211 0 0 1-6.6 15.925Zm-1.155-19.016a18.444 18.444 0 0 0-4.33-10.44l5.486-5.486a26.217 26.217 0 0 1 6.599 15.926H68.24Z" fill="#7DDACF"/><path d="M49.877 342.932C22.554 342.932.332 320.7.332 293.387c0-27.312 22.233-49.545 49.545-49.545s49.545 22.233 49.545 49.545c0 27.313-22.233 49.545-49.545 49.545Zm0-95.79c-25.501 0-46.246 20.744-46.246 46.245 0 25.502 20.745 46.246 46.246 46.246s46.245-20.744 46.245-46.246c0-25.501-20.744-46.245-46.245-46.245Z" fill="#9DADF2"/><path d="M65.951 262.453c-.25 0-.5-.052-.728-.167a34.319 34.319 0 0 0-15.343-3.58 34.318 34.318 0 0 0-15.342 3.58 1.645 1.645 0 0 1-1.894-.312l-8.515-8.514a1.642 1.642 0 0 1-.468-1.374c.062-.51.354-.958.791-1.218a49.453 49.453 0 0 1 25.439-7.026 49.559 49.559 0 0 1 25.438 7.026c.438.26.729.708.792 1.218.062.51-.115 1.01-.469 1.374l-8.514 8.514a1.68 1.68 0 0 1-1.176.479h-.01Zm-16.07-7.047a37.636 37.636 0 0 1 15.727 3.404l6.162-6.162a46.15 46.15 0 0 0-21.89-5.506 46.15 46.15 0 0 0-21.889 5.506l6.162 6.162a37.637 37.637 0 0 1 15.727-3.404Zm-.002 87.526a49.557 49.557 0 0 1-25.44-7.025 1.647 1.647 0 0 1-.79-1.218c-.063-.51.114-1.01.468-1.374l8.514-8.514c.5-.5 1.27-.625 1.895-.313a34.306 34.306 0 0 0 15.342 3.581 34.307 34.307 0 0 0 15.342-3.581 1.647 1.647 0 0 1 1.895.313l8.514 8.514c.364.364.53.864.468 1.374-.062.51-.353.957-.79 1.218a49.461 49.461 0 0 1-25.44 7.025h.022Zm-21.89-8.805a46.15 46.15 0 0 0 21.89 5.506 46.15 46.15 0 0 0 21.889-5.506l-6.162-6.162a37.635 37.635 0 0 1-15.727 3.403 37.635 37.635 0 0 1-15.728-3.403l-6.162 6.162Zm62.994-14.499c-.438 0-.854-.167-1.166-.479l-8.515-8.515a1.649 1.649 0 0 1-.312-1.894 34.315 34.315 0 0 0 3.58-15.342 34.32 34.32 0 0 0-3.58-15.343 1.644 1.644 0 0 1 .312-1.894l8.515-8.514a1.642 1.642 0 0 1 1.374-.469c.51.063.957.354 1.217.791a49.46 49.46 0 0 1 7.026 25.439 49.457 49.457 0 0 1-7.026 25.439c-.26.437-.707.728-1.217.791h-.209v-.01Zm-6.527-10.513 6.162 6.162a46.153 46.153 0 0 0 5.506-21.89 46.15 46.15 0 0 0-5.506-21.889l-6.162 6.162a37.638 37.638 0 0 1 3.404 15.727 37.642 37.642 0 0 1-3.404 15.728ZM8.773 319.628c-.073 0-.135 0-.198-.011a1.645 1.645 0 0 1-1.218-.791 49.455 49.455 0 0 1-7.025-25.439 49.454 49.454 0 0 1 7.025-25.438c.26-.437.708-.729 1.218-.791.51-.063 1.01.114 1.374.468l8.514 8.514c.5.5.625 1.27.313 1.895a34.315 34.315 0 0 0-3.581 15.342 34.315 34.315 0 0 0 3.58 15.342 1.645 1.645 0 0 1-.312 1.895l-8.514 8.514a1.648 1.648 0 0 1-1.166.489l-.01.011Zm.364-48.13a46.153 46.153 0 0 0-5.506 21.889 46.153 46.153 0 0 0 5.506 21.89l6.162-6.162a37.642 37.642 0 0 1-3.403-15.728 37.638 37.638 0 0 1 3.403-15.727l-6.162-6.162Z" fill="#9DADF2"/><path d="M49.878 255.396c-20.942 0-37.992 17.039-37.992 37.991 0 20.953 17.04 37.992 37.992 37.992 20.953 0 37.992-17.039 37.992-37.992 0-20.952-17.04-37.991-37.992-37.991Zm21.38 25.511a24.473 24.473 0 0 1 3.247 10.013.369.369 0 0 1-.177.354 31.852 31.852 0 0 0-7.255 6.089.34.34 0 0 1-.385.104l-4.694-1.53a.359.359 0 0 1-.25-.301 32.67 32.67 0 0 0-3.591-11.054.37.37 0 0 1 .031-.386l2.904-3.996a.395.395 0 0 1 .302-.157h.083c3.102.687 6.287.916 9.451.656a.379.379 0 0 1 .354.187l-.02.021Zm-12.075 15.384a.378.378 0 0 1-.083.281 24.858 24.858 0 0 1-9.076 6.579.336.336 0 0 1-.281 0 25.102 25.102 0 0 1-9.077-6.579.378.378 0 0 1-.083-.281 30.145 30.145 0 0 1 3.477-10.7.35.35 0 0 1 .239-.177 27.182 27.182 0 0 1 5.59-.583c1.883 0 3.757.198 5.589.583a.35.35 0 0 1 .24.177 30.354 30.354 0 0 1 3.476 10.7h-.01Zm-.562-25.834s.125-.104.25-.104c.042 0 .094 0 .146.031 3.83 1.52 7.255 4.018 9.92 7.213a.346.346 0 0 1 .051.386.357.357 0 0 1-.333.218 28.64 28.64 0 0 1-6.994-.781.368.368 0 0 1-.23-.166 29.508 29.508 0 0 1-2.903-6.422.346.346 0 0 1 .104-.375h-.01Zm-14-1.249a25.252 25.252 0 0 1 10.524 0c.135.031.25.135.28.271a31.914 31.914 0 0 0 3.55 8.785.38.38 0 0 1-.02.405l-2.884 3.977a.36.36 0 0 1-.364.145 29.65 29.65 0 0 0-11.647 0 .36.36 0 0 1-.365-.145l-2.883-3.977a.38.38 0 0 1-.02-.405 31.914 31.914 0 0 0 3.549-8.785.371.371 0 0 1 .28-.271Zm-13.79 8.389c2.664-3.205 6.088-5.704 9.919-7.213a.35.35 0 0 1 .395.073c.052.052.167.177.104.375a29.295 29.295 0 0 1-2.904 6.422.367.367 0 0 1-.229.166 28.64 28.64 0 0 1-6.994.781.357.357 0 0 1-.333-.218.347.347 0 0 1 .052-.386h-.01Zm-2.322 3.31a.368.368 0 0 1 .323-.187h.031c3.175.25 6.36.031 9.451-.656a.352.352 0 0 1 .375.146l2.904 3.997a.37.37 0 0 1 .031.385 32.68 32.68 0 0 0-3.591 11.054.39.39 0 0 1-.25.302l-4.694 1.53a.38.38 0 0 1-.385-.104 31.802 31.802 0 0 0-7.255-6.089.389.389 0 0 1-.177-.354 24.42 24.42 0 0 1 3.248-10.013l-.01-.011Zm1.135 25.647a.364.364 0 0 1-.313.25c-.072 0-.24 0-.354-.167a24.692 24.692 0 0 1-3.788-11.668.355.355 0 0 1 .187-.343c.063-.031.23-.104.396.021a28.883 28.883 0 0 1 5.204 4.746.355.355 0 0 1 .083.271 28.569 28.569 0 0 1-1.426 6.901l.01-.011Zm10.283 9.503c-3.247-1.426-6.11-3.518-8.503-6.203a.376.376 0 0 1-.073-.385 31.859 31.859 0 0 0 2.29-9.191.357.357 0 0 1 .25-.312l4.642-1.51s.072-.021.114-.021c.104 0 .198.042.27.125a27.692 27.692 0 0 0 9.431 6.86.362.362 0 0 1 .218.333v4.881a.352.352 0 0 1-.218.333 31.861 31.861 0 0 0-8.046 5.028.35.35 0 0 1-.385.052l.01.01Zm16.373 1.031a.347.347 0 0 1-.27.291 25.032 25.032 0 0 1-12.283 0 .363.363 0 0 1-.27-.291.367.367 0 0 1 .145-.375 29.062 29.062 0 0 1 6.131-3.487.33.33 0 0 1 .281 0 29.587 29.587 0 0 1 6.13 3.487.383.383 0 0 1 .146.375h-.01Zm12.064-7.224a24.538 24.538 0 0 1-8.504 6.193.366.366 0 0 1-.385-.052 31.649 31.649 0 0 0-8.046-5.027.363.363 0 0 1-.219-.333v-4.882c0-.146.084-.281.219-.333a27.603 27.603 0 0 0 9.43-6.859.348.348 0 0 1 .27-.125c.042 0 .074 0 .115.021l4.642 1.509c.136.042.24.166.25.312a31.94 31.94 0 0 0 2.29 9.191.355.355 0 0 1-.073.385h.01Zm2.435-3.216a.355.355 0 0 1-.354.166.359.359 0 0 1-.312-.249 29.598 29.598 0 0 1-1.426-6.901c0-.094.021-.198.084-.271a29.294 29.294 0 0 1 5.204-4.746.361.361 0 0 1 .208-.073.4.4 0 0 1 .187.052.339.339 0 0 1 .188.343 24.691 24.691 0 0 1-3.789 11.668l.01.011Z" fill="#9DADF2"/><path d="M99.11 171.065c0 27.323-22.232 49.556-49.555 49.556C22.233 220.621 0 198.388 0 171.065c0-27.322 22.233-49.555 49.555-49.555 27.323 0 49.556 22.233 49.556 49.555Zm-95.54 0c0 25.356 20.63 45.986 45.985 45.986 25.356 0 45.986-20.63 45.986-45.986 0-25.355-20.63-45.985-45.986-45.985-25.355 0-45.985 20.63-45.985 45.985ZM99.114 49.93a1.78 1.78 0 1 1-3.56 0c0-25.356-20.63-45.986-45.986-45.986-25.355 0-45.985 20.63-45.985 45.985a1.78 1.78 0 1 1-3.56 0C.023 22.607 22.256.374 49.58.374c27.322 0 49.555 22.233 49.555 49.555h-.02Z" fill="#478BF9"/><path d="M40.012 162.312a3.952 3.952 0 0 0 3.008 3.84l3.362.844v-8.65h-2.394a3.971 3.971 0 0 0-3.966 3.966h-.01Zm12.718 21.473h2.393a3.971 3.971 0 0 0 3.966-3.966 3.952 3.952 0 0 0-3.008-3.841l-3.362-.843v8.65h.01Z" fill="#478BF9"/><path d="M49.556 130.742c-22.233 0-40.333 18.09-40.333 40.334 0 22.243 18.09 40.333 40.333 40.333s40.334-18.09 40.334-40.333c0-22.244-18.09-40.334-40.334-40.334Zm15.905 33.964H59.1v-3.185a3.192 3.192 0 0 0-3.185-3.186H52.73v10.243l4.902 1.228a10.31 10.31 0 0 1 7.817 10.013c0 5.693-4.632 10.325-10.325 10.325H52.73v8.057h-6.36v-8.057h-3.185c-5.267 0-9.544-4.278-9.544-9.544v-3.185h6.36v3.185a3.192 3.192 0 0 0 3.184 3.185h3.185v-10.243l-4.902-1.228a10.31 10.31 0 0 1-7.817-10.013c0-5.693 4.632-10.325 10.325-10.325h2.394v-8.056h6.36v8.056h3.185c5.267 0 9.545 4.278 9.545 9.545v3.185ZM99.173 49.17v119.595a1.779 1.779 0 1 1-3.56 0V49.17a1.779 1.779 0 1 1 3.56 0Zm-95.535-.26v119.595a1.78 1.78 0 1 1-3.56 0V48.91a1.78 1.78 0 1 1 3.56 0Z" fill="#478BF9"/></svg>