<svg width="102" height="589" fill="none" xmlns="http://www.w3.org/2000/svg"><path d="M1.547 417.461c0-27.322 22.233-49.555 49.555-49.555 27.323 0 49.556 22.233 49.556 49.555 0 27.323-22.233 49.556-49.556 49.556-27.322 0-49.555-22.233-49.555-49.556Zm95.54 0c0-25.355-20.63-45.985-45.985-45.985s-45.985 20.63-45.985 45.985c0 25.356 20.63 45.986 45.985 45.986 25.356 0 45.986-20.63 45.986-45.986ZM1.544 538.607a1.78 1.78 0 1 1 3.56 0c0 25.356 20.63 45.986 45.985 45.986 25.356 0 45.986-20.63 45.986-45.986a1.78 1.78 0 1 1 3.559 0c0 27.323-22.232 49.556-49.555 49.556S1.523 565.93 1.523 538.607h.021Z" fill="#478BF9"/><path d="M99.143 416.264H77.441v4.278h21.702v-4.278Zm-74.723 0H2.72v4.278h21.7v-4.278Zm28.99 28.978h-4.277v21.702h4.278v-21.702Zm0-75.379h-4.277v21.702h4.278v-21.702Z" fill="#478BF9"/><path d="M76.786 391.252c-14.843-14.843-38.918-14.843-53.771 0-14.843 14.843-14.843 38.918 0 53.771 14.843 14.843 38.918 14.843 53.77 0 14.844-14.843 14.844-38.918 0-53.771Zm-19.537 3.216a24.791 24.791 0 0 1 11.23 7.266l.584.655-.854.198a71.639 71.639 0 0 1-7.171 1.291l-.448.062-.125-.437a32.87 32.87 0 0 0-1.468-4.07c-.697-1.592-1.477-2.987-2.331-4.163l-.937-1.28 1.52.468v.01Zm-17.372 22.483.02-.541c.105-3.289.47-6.433 1.094-9.326l.093-.458.469.041a94.946 94.946 0 0 0 16.768-.052l.468-.041.104.458c.635 2.925 1 6.078 1.093 9.378v.541H39.877Zm20.11 2.415v.541c-.115 3.3-.48 6.453-1.114 9.378l-.104.458-.469-.041c-5.444-.51-11.293-.521-16.768-.052l-.469.041-.093-.458c-.625-2.893-.99-6.026-1.093-9.326l-.021-.541h20.13Zm-10.055-25.803c3.029 0 6.11 3.841 8.035 10.034l.198.624-.656.052a92.59 92.59 0 0 1-7.858.333c-2.467 0-4.924-.093-7.318-.291l-.655-.052.197-.635c1.926-6.214 5.017-10.076 8.057-10.076v.011Zm-18.653 8.285a24.808 24.808 0 0 1 11.335-7.369l1.53-.469-.947 1.291c-.853 1.166-1.644 2.571-2.331 4.153a33.578 33.578 0 0 0-1.489 4.143l-.125.427-.447-.052a70.974 70.974 0 0 1-7.245-1.26l-.864-.198.583-.666Zm-6.078 14.541a24.853 24.853 0 0 1 3.768-11.46l.208-.323.375.094a71.739 71.739 0 0 0 8.555 1.603l.563.073-.115.562c-.625 3.018-.978 6.214-1.072 9.503v.51H25.169l.042-.562h-.01Zm3.976 15.322-.208-.323a24.815 24.815 0 0 1-3.768-11.46l-.042-.562h12.303v.51c.104 3.289.468 6.495 1.083 9.503l.114.562-.562.073a72.133 72.133 0 0 0-8.556 1.603l-.375.094h.01Zm13.437 10.138a24.818 24.818 0 0 1-11.335-7.37l-.583-.666.864-.198a73.85 73.85 0 0 1 7.245-1.259l.447-.052.125.427a33.62 33.62 0 0 0 1.489 4.142c.697 1.593 1.478 2.987 2.331 4.164l.947 1.29-1.53-.468v-.01Zm7.318.905c-3.04 0-6.131-3.862-8.057-10.075l-.197-.635.655-.052a93.42 93.42 0 0 1 15.176.041l.656.052-.198.625c-1.936 6.182-5.017 10.034-8.035 10.034v.01Zm18.548-8.171a24.847 24.847 0 0 1-11.231 7.266l-1.52.468.937-1.28c.854-1.166 1.634-2.571 2.332-4.164a35.316 35.316 0 0 0 1.467-4.07l.125-.437.448.063a71.6 71.6 0 0 1 7.171 1.29l.854.209-.583.655Zm6.172-14.655a24.792 24.792 0 0 1-3.84 11.585l-.209.322-.374-.093c-2.634-.698-5.496-1.249-8.494-1.655l-.562-.073.114-.552c.625-3.018.99-6.235 1.083-9.576v-.51h12.313l-.041.562.01-.01Zm-12.261-2.977v-.51c-.104-3.341-.469-6.568-1.093-9.576l-.115-.552.562-.072c2.998-.406 5.85-.958 8.494-1.655l.375-.094.208.323a24.633 24.633 0 0 1 3.84 11.584l.042.562H62.401l-.01-.01ZM1.485 539.357V419.762a1.78 1.78 0 1 1 3.56 0v119.595a1.78 1.78 0 1 1-3.56 0Zm95.55.271V420.032a1.78 1.78 0 1 1 3.56 0v119.596a1.779 1.779 0 1 1-3.56 0Z" fill="#478BF9"/><path d="M14.828 330.452c-19.49-19.49-19.49-51.199 0-70.688 19.49-19.49 51.199-19.49 70.688 0 19.49 19.489 19.49 51.198 0 70.688-19.49 19.489-51.198 19.489-70.688 0Zm68.333-68.333c-18.191-18.191-47.786-18.191-65.972 0-18.191 18.191-18.191 47.786 0 65.972 18.19 18.191 47.785 18.191 65.972 0 18.191-18.191 18.191-47.786 0-65.972Z" fill="#fff"/><path d="M83.7 284.505a1.638 1.638 0 0 1-.398-.645c-1.73-5.119-4.555-9.655-8.394-13.494a34.671 34.671 0 0 0-13.494-8.394 1.666 1.666 0 0 1-1.133-1.578v-12.148a1.666 1.666 0 0 1 2.067-1.616 49.87 49.87 0 0 1 23.158 13.134 49.924 49.924 0 0 1 13.13 23.158 1.689 1.689 0 0 1-.304 1.431c-.318.408-.801.64-1.313.64H84.87c-.455 0-.872-.185-1.18-.493l.01.005Zm-6.436-16.494a37.98 37.98 0 0 1 8.792 13.65h8.787a46.61 46.61 0 0 0-11.688-19.542 46.56 46.56 0 0 0-19.537-11.683v8.787a37.868 37.868 0 0 1 13.65 8.792l-.004-.004Zm-62.437 62.441a49.915 49.915 0 0 1-13.134-23.159 1.672 1.672 0 0 1 .304-1.426c.317-.408.8-.64 1.313-.64h12.147c.716 0 1.351.455 1.579 1.133 1.73 5.119 4.555 9.654 8.394 13.494a34.671 34.671 0 0 0 13.494 8.394 1.662 1.662 0 0 1 1.133 1.578v12.148c0 .512-.237.995-.64 1.313a1.673 1.673 0 0 1-1.432.303 49.927 49.927 0 0 1-23.158-13.129v-.009Zm-9.332-21.898a46.61 46.61 0 0 0 11.688 19.542 46.61 46.61 0 0 0 19.542 11.688v-8.787a37.912 37.912 0 0 1-13.65-8.788 37.98 37.98 0 0 1-8.793-13.65H5.495v-.005Zm55.282 34.591a1.664 1.664 0 0 1-.488-1.18v-12.148c0-.716.455-1.351 1.133-1.579 5.119-1.73 9.655-4.555 13.494-8.394a34.64 34.64 0 0 0 8.394-13.494 1.663 1.663 0 0 1 1.578-1.132h12.148a1.661 1.661 0 0 1 1.616 2.066 49.973 49.973 0 0 1-13.133 23.158 49.87 49.87 0 0 1-23.159 13.134 1.673 1.673 0 0 1-1.426-.303c-.052-.048-.105-.09-.152-.138l-.005.01Zm2.844-12.153v8.788a46.611 46.611 0 0 0 19.542-11.689A46.648 46.648 0 0 0 94.85 308.55h-8.787c-1.92 5.147-4.873 9.73-8.792 13.65-3.916 3.915-8.504 6.873-13.65 8.792ZM2.13 284.505a1.666 1.666 0 0 1-.436-1.583 49.866 49.866 0 0 1 13.134-23.158 49.936 49.936 0 0 1 23.158-13.134 1.673 1.673 0 0 1 1.427.303c.403.318.64.801.64 1.313v12.148c0 .716-.455 1.351-1.133 1.578-5.12 1.73-9.655 4.555-13.494 8.394a34.667 34.667 0 0 0-8.394 13.494 1.663 1.663 0 0 1-1.579 1.133H3.306c-.446 0-.873-.175-1.18-.483l.004-.005Zm34.59-34.069a46.61 46.61 0 0 0-19.541 11.688A46.659 46.659 0 0 0 5.49 281.666h8.787c1.92-5.148 4.872-9.731 8.792-13.651a37.989 37.989 0 0 1 13.65-8.792v-8.787Z" fill="#fff"/><path d="M77.268 268.011c-14.94-14.94-39.255-14.945-54.194 0-14.945 14.944-14.94 39.254 0 54.194 14.94 14.939 39.25 14.944 54.194 0 14.944-14.945 14.94-39.255 0-54.194Z" fill="#fff"/><path d="m63.994 308.785-27.527.183a2.1 2.1 0 0 0-2.086 2.113l.006.981a2.1 2.1 0 0 0 2.114 2.086l27.528-.182a2.1 2.1 0 0 0 2.085-2.114l-.006-.981a2.1 2.1 0 0 0-2.114-2.086Zm-23.777-16.616c-.298 0-.602-.066-.877-.199l-2.147-1.038a1.984 1.984 0 0 1-.971-2.522l.986-2.455a1.977 1.977 0 0 1 2.815-.981l2.56 1.46a1.985 1.985 0 0 1 .65 2.844l-1.404 2.033a1.968 1.968 0 0 1-1.617.853l.005.005Zm19.815-.133a1.986 1.986 0 0 1-1.626-.834l-1.388-1.957a1.983 1.983 0 0 1 .611-2.854l2.64-1.549a1.99 1.99 0 0 1 .986-.275 1.983 1.983 0 0 1 1.844 1.218l.995 2.384a1.992 1.992 0 0 1-.938 2.536l-2.247 1.123c-.27.133-.574.208-.872.208h-.005Z" fill="#110A1D"/><path d="M38.055 307.128a2.86 2.86 0 0 1-2.707-1.887L30.756 292.6a4.79 4.79 0 0 1-.925.332 4.607 4.607 0 0 1-1.137.142 4.85 4.85 0 0 1-.654-.038 4.85 4.85 0 0 1-4.223-4.772 4.854 4.854 0 0 1 4.815-4.882 4.847 4.847 0 0 1 4.877 4.815c0 .616-.104 1.209-.322 1.763a5.29 5.29 0 0 1-.436.868l8.735 4.228 6.683-9.684a4.533 4.533 0 0 1-.806-.441 4.885 4.885 0 0 1-1.246-1.213 4.819 4.819 0 0 1-.896-2.773 4.855 4.855 0 0 1 5.176-4.872 4.858 4.858 0 0 1 4.503 4.474 4.835 4.835 0 0 1-2.1 4.366 4.387 4.387 0 0 1-.801.44l6.801 9.584 8.594-4.299a4.996 4.996 0 0 1-.384-.967 4.708 4.708 0 0 1-.176-1.265 4.844 4.844 0 0 1 4.81-4.877 4.847 4.847 0 0 1 .37 9.683l-.303.009c-.493 0-.976-.066-1.445-.208a4.767 4.767 0 0 1-.872-.365l-4.314 12.394a2.862 2.862 0 0 1-2.682 1.92l-24.343.161v.005Z" fill="#110A1D"/><path d="M50.615 221.407c-12.698 0-25.386-4.83-35.056-14.499-19.329-19.329-19.329-50.773 0-70.102 9.368-9.368 21.817-14.52 35.056-14.52 13.24 0 25.689 5.152 35.057 14.52 19.329 19.329 19.329 50.773 0 70.102-9.66 9.659-22.358 14.499-35.057 14.499Zm-32.454-17.101c17.893 17.892 47.006 17.892 64.898 0 17.893-17.893 17.893-47.006 0-64.898-8.67-8.671-20.193-13.438-32.454-13.438s-23.784 4.778-32.454 13.438C.258 157.3.258 186.413 18.15 204.306h.01Z" fill="#7DDACF"/><path d="m52.45 161.422-9.18 12.865h5.506v9.181l9.18-12.855H52.45v-9.191Z" fill="#7DDACF"/><path d="M50.606 154.271c-10.055 0-18.215 8.161-18.215 18.216 0 10.054 8.16 18.194 18.215 18.194 10.054 0 18.215-8.16 18.215-18.194 0-10.034-8.16-18.216-18.215-18.216Zm0 34.162c-8.827 0-15.988-7.161-15.988-15.988s7.161-15.988 15.988-15.988c8.826 0 15.988 7.161 15.988 15.988s-7.162 15.988-15.988 15.988Z" fill="#7DDACF"/><path d="M78.763 143.707c-7.515-7.526-17.518-11.658-28.156-11.658-10.637 0-20.63 4.143-28.155 11.658-15.52 15.519-15.52 40.781 0 56.31 7.765 7.765 17.955 11.648 28.155 11.648 10.2 0 20.39-3.883 28.156-11.648 15.519-15.519 15.519-40.781 0-56.31Zm-28.156 53.49c-13.614 0-24.7-11.085-24.7-24.7 0-6.016 2.155-11.533 5.736-15.842l-3.019-3.018a2.231 2.231 0 0 1 0-3.144c.864-.874 2.27-.864 3.144 0l3.018 3.019c3.747-3.133 8.462-5.194 13.604-5.631v-2.04h-2.04c-1.8 0-3.289-1.489-3.289-3.29v-1.717a3.296 3.296 0 0 1 3.29-3.289h8.534a3.296 3.296 0 0 1 3.29 3.289v1.717a3.31 3.31 0 0 1-3.29 3.29h-2.04v2.04c5.153.447 9.857 2.508 13.604 5.631l3.019-3.019a2.23 2.23 0 0 1 3.143 0 2.231 2.231 0 0 1 0 3.144l-3.018 3.018c3.58 4.309 5.735 9.815 5.735 15.842 0 13.615-11.085 24.7-24.7 24.7h-.02Z" fill="#7DDACF"/><path d="M51.545 99.123C24.222 99.123 2 76.891 2 49.578 2 22.266 24.233.033 51.545.033s49.545 22.233 49.545 49.545c0 27.313-22.233 49.545-49.545 49.545Zm0-95.79C26.044 3.333 5.3 24.077 5.3 49.578c0 25.501 20.744 46.246 46.245 46.246 25.501 0 46.246-20.745 46.246-46.246 0-25.5-20.745-46.245-46.246-46.245Z" fill="#fff"/><path d="M83.873 14.224 68.535 29.562l3.017 3.018 15.339-15.338-3.018-3.018ZM31.076 67.023 15.738 82.361l3.018 3.018L34.094 70.04l-3.018-3.018Zm40.941-.003L69 70.038l15.338 15.338 3.018-3.017L72.017 67.02Zm-53.25-53.26-3.017 3.017 15.33 15.33 3.018-3.017-15.33-15.33Zm44.874 37.15c1-.998 1-2.612 0-3.6l-2.123-2.114a2.54 2.54 0 0 0-3.602 0l-1.145 1.145-1.322-1.322a2.538 2.538 0 0 0-3.601 0l-1.145 1.156-1.322-1.333a2.538 2.538 0 0 0-3.601 0l-7.026 7.026c-.052.052-.052.136 0 .198a2.425 2.425 0 0 0 3.414 0l4.528-4.528a1.25 1.25 0 0 1 1.77 0l.332.333a.15.15 0 0 1 0 .219l-3.778 3.778c-.052.052-.052.136 0 .198a2.425 2.425 0 0 0 3.414 0l4.34-4.34a1.25 1.25 0 0 1 1.77 0l.333.333c.052.052.052.135 0 .198L51.234 51.9c-.052.052-.052.135 0 .197a2.425 2.425 0 0 0 3.414 0l4.194-4.194a1.25 1.25 0 0 1 1.77 0l.718.718a.735.735 0 0 1 0 1.03l-.114.115a.735.735 0 0 1-1.03 0l-.927-.927c-.052-.052-.135-.052-.198 0l-1.603 1.603c-.052.052-.052.136 0 .198l1.447 1.447c1 1 2.613 1 3.601 0l1.145-1.145-.01-.031Z" fill="#fff"/><path d="M51.546 11.576c-20.984 0-37.991 17.008-37.991 37.992 0 20.984 17.007 37.991 37.991 37.991 20.984 0 37.992-17.007 37.992-37.991 0-20.984-17.008-37.992-37.992-37.992Zm1.551 11.73c6.1.355 11.637 2.79 15.925 6.6l-5.485 5.485a18.517 18.517 0 0 0-10.44-4.33v-7.754Zm-3.091 0v7.755a18.445 18.445 0 0 0-10.44 4.33l-5.486-5.485a26.214 26.214 0 0 1 15.926-6.6Zm-18.111 8.786 5.485 5.485a18.517 18.517 0 0 0-4.33 10.44h-7.754a26.215 26.215 0 0 1 6.599-15.925Zm-6.6 19.016h7.755a18.446 18.446 0 0 0 4.33 10.44l-5.485 5.486a26.214 26.214 0 0 1-6.6-15.926Zm24.71 24.71A26.214 26.214 0 0 1 34.08 69.22l5.486-5.485a18.517 18.517 0 0 0 10.44 4.33v7.755ZM35.58 49.558c0-8.817 7.151-15.967 15.967-15.967s15.967 7.15 15.967 15.966c0 8.817-7.15 15.967-15.967 15.967-8.816 0-15.967-7.15-15.967-15.967Zm17.518 26.26v-7.754a18.446 18.446 0 0 0 10.44-4.33l5.485 5.485a26.214 26.214 0 0 1-15.925 6.6Zm18.111-8.784-5.485-5.486a18.517 18.517 0 0 0 4.33-10.44h7.754a26.215 26.215 0 0 1-6.599 15.926Zm-1.155-19.017a18.445 18.445 0 0 0-4.33-10.44l5.485-5.485a26.215 26.215 0 0 1 6.6 15.925h-7.755Z" fill="#fff"/></svg>