<svg width="298" height="50" fill="none" xmlns="http://www.w3.org/2000/svg"><path d="M273.1 49.617c-6.278 0-12.549-2.387-17.329-7.167-9.555-9.555-9.555-25.098 0-34.652C260.401 3.167 266.555.62 273.1.62c6.544 0 12.698 2.547 17.328 7.178 9.555 9.554 9.555 25.097 0 34.652-4.774 4.774-11.051 7.167-17.328 7.167Zm-16.043-8.453c8.845 8.844 23.235 8.844 32.08 0 8.844-8.845 8.844-23.236 0-32.08-4.286-4.286-9.982-6.643-16.043-6.643s-11.756 2.362-16.042 6.643c-8.844 8.844-8.844 23.235 0 32.08h.005Z" fill="#9DADF2"/><path d="M272.775 34.29a.55.55 0 0 0 .51.334.643.643 0 0 0 .216-.041 12.699 12.699 0 0 0 4.548-3.247.552.552 0 0 0-.046-.777.552.552 0 0 0-.777.047 11.503 11.503 0 0 1-4.152 2.963.553.553 0 0 0-.294.72h-.005Z" fill="#9DADF2"/><path d="M282.437 16.652 273.299 13a.567.567 0 0 0-.411 0l-9.138 3.653a.542.542 0 0 0-.345.51v6.544c.011 6.04 3.828 11.5 9.498 13.578a.594.594 0 0 0 .381 0c5.67-2.084 9.487-7.538 9.498-13.578v-6.545a.542.542 0 0 0-.345-.509Zm-.756 7.054c-.011 5.495-3.458 10.501-8.582 12.472-5.125-1.97-8.577-6.977-8.588-12.472v-6.169l8.588-3.432 8.582 3.432v6.169Z" fill="#9DADF2"/><path d="M269.281 17.511a.546.546 0 0 0-.422 0l-2.176.87a.542.542 0 0 0-.345.51v2.32a.551.551 0 0 0 1.101 0v-1.945l1.827-.73a.55.55 0 0 0 .304-.72.567.567 0 0 0-.294-.305h.005Z" fill="#9DADF2"/><path d="M287.011 11.209c-3.715-3.72-8.659-5.763-13.917-5.763a19.565 19.565 0 0 0-13.918 5.763c-7.671 7.67-7.671 20.158 0 27.835 3.838 3.838 8.875 5.752 13.918 5.752 5.042 0 10.079-1.92 13.917-5.752 7.671-7.672 7.671-20.159 0-27.835Zm-2.722 12.497a15.853 15.853 0 0 1-11.098 15.204.315.315 0 0 1-.195 0 15.853 15.853 0 0 1-11.098-15.204v-7.723c0-.128.077-.247.201-.298l10.876-4.348a.303.303 0 0 1 .119-.02c.041 0 .082.005.118.02l10.877 4.353c.123.046.2.165.2.298v7.723-.005Z" fill="#9DADF2"/><path d="M210.517 49.537c-13.506 0-24.491-10.99-24.491-24.49 0-13.501 10.99-24.491 24.491-24.491 13.5 0 24.49 10.99 24.49 24.49 0 13.501-10.99 24.491-24.49 24.491Zm0-47.35c-12.606 0-22.86 10.254-22.86 22.86 0 12.605 10.254 22.86 22.86 22.86 12.605 0 22.859-10.255 22.859-22.86 0-12.606-10.254-22.86-22.859-22.86Z" fill="#fff"/><path d="M218.46 9.75a.803.803 0 0 1-.36-.082 16.964 16.964 0 0 0-7.584-1.77c-2.66 0-5.212.597-7.583 1.77a.815.815 0 0 1-.937-.154l-4.209-4.21a.811.811 0 0 1-.231-.678.814.814 0 0 1 .391-.602A24.449 24.449 0 0 1 210.522.55c4.435 0 8.782 1.204 12.574 3.473.216.128.36.35.391.602a.827.827 0 0 1-.231.679l-4.209 4.209a.83.83 0 0 1-.581.236h-.006Zm-7.944-3.483c2.712 0 5.326.566 7.775 1.682l3.046-3.045a22.818 22.818 0 0 0-10.821-2.722 22.81 22.81 0 0 0-10.82 2.722l3.046 3.045a18.606 18.606 0 0 1 7.774-1.682Zm-.001 43.27a24.494 24.494 0 0 1-12.574-3.473.814.814 0 0 1-.391-.602.827.827 0 0 1 .231-.679l4.209-4.209a.815.815 0 0 1 .936-.154 16.964 16.964 0 0 0 7.584 1.77c2.66 0 5.212-.597 7.584-1.77a.815.815 0 0 1 .937.154l4.208 4.21a.81.81 0 0 1 .232.678.814.814 0 0 1-.391.602 24.449 24.449 0 0 1-12.575 3.473h.01Zm-10.82-4.352a22.817 22.817 0 0 0 10.82 2.721c3.787 0 7.507-.936 10.821-2.721l-3.046-3.046a18.607 18.607 0 0 1-7.775 1.682c-2.711 0-5.325-.566-7.774-1.682l-3.046 3.045Zm31.14-7.173a.81.81 0 0 1-.576-.236l-4.208-4.209a.816.816 0 0 1-.155-.936 16.965 16.965 0 0 0 1.77-7.584c0-2.66-.597-5.212-1.77-7.584a.814.814 0 0 1 .155-.937l4.208-4.208a.811.811 0 0 1 .679-.232.813.813 0 0 1 .602.391 24.449 24.449 0 0 1 3.473 12.575c0 4.435-1.199 8.782-3.473 12.575a.813.813 0 0 1-.602.39h-.103v-.005Zm-3.226-5.196 3.046 3.046a22.806 22.806 0 0 0 2.722-10.82c0-3.787-.936-7.507-2.722-10.82l-3.046 3.045a18.6 18.6 0 0 1 1.683 7.775 18.6 18.6 0 0 1-1.683 7.774Zm-37.41 5.196c-.036 0-.067 0-.098-.005a.813.813 0 0 1-.602-.391 24.449 24.449 0 0 1-3.473-12.575c0-4.435 1.199-8.782 3.473-12.574a.813.813 0 0 1 .602-.391.828.828 0 0 1 .679.231l4.209 4.209a.816.816 0 0 1 .154.936 16.965 16.965 0 0 0-1.77 7.584c0 2.66.597 5.212 1.77 7.584a.813.813 0 0 1-.154.937l-4.209 4.208a.814.814 0 0 1-.576.242l-.005.005Zm.18-23.79a22.806 22.806 0 0 0-2.722 10.82c0 3.786.936 7.506 2.722 10.82l3.046-3.046a18.6 18.6 0 0 1-1.683-7.775 18.6 18.6 0 0 1 1.683-7.774l-3.046-3.046Z" fill="#fff"/><path d="M210.517 6.267c-10.352 0-18.779 8.423-18.779 18.78 0 10.357 8.422 18.78 18.779 18.78s18.78-8.423 18.78-18.78c0-10.357-8.423-18.78-18.78-18.78Zm10.568 12.61a12.085 12.085 0 0 1 1.605 4.95.18.18 0 0 1-.087.175 15.72 15.72 0 0 0-3.586 3.01.17.17 0 0 1-.191.052l-2.32-.757a.177.177 0 0 1-.123-.149 16.183 16.183 0 0 0-1.775-5.464.182.182 0 0 1 .015-.19l1.435-1.976a.196.196 0 0 1 .15-.077h.041a15.64 15.64 0 0 0 4.672.324.187.187 0 0 1 .175.092l-.011.01Zm-5.968 7.605a.187.187 0 0 1-.041.14 12.286 12.286 0 0 1-4.487 3.25.164.164 0 0 1-.139 0 12.4 12.4 0 0 1-4.486-3.25.183.183 0 0 1-.041-.14 14.895 14.895 0 0 1 1.718-5.289.172.172 0 0 1 .118-.087 13.436 13.436 0 0 1 5.526 0c.052.01.093.04.119.087a15.016 15.016 0 0 1 1.718 5.29h-.005Zm-.278-12.77s.062-.051.124-.051c.02 0 .046 0 .072.015a12.335 12.335 0 0 1 4.903 3.566.17.17 0 0 1 .026.19.178.178 0 0 1-.165.108 14.169 14.169 0 0 1-3.458-.386.184.184 0 0 1-.113-.082 14.586 14.586 0 0 1-1.435-3.175.17.17 0 0 1 .051-.185h-.005Zm-6.92-.617a12.48 12.48 0 0 1 5.202 0 .183.183 0 0 1 .138.133c.366 1.529.957 2.99 1.755 4.343a.19.19 0 0 1-.01.2l-1.425 1.966a.18.18 0 0 1-.181.072 14.652 14.652 0 0 0-5.757 0 .178.178 0 0 1-.18-.072l-1.425-1.965a.189.189 0 0 1-.011-.201 15.746 15.746 0 0 0 1.755-4.343.183.183 0 0 1 .139-.133Zm-6.817 4.147a12.237 12.237 0 0 1 4.903-3.566.203.203 0 0 1 .072-.015.17.17 0 0 1 .123.051c.026.026.083.088.052.185a14.479 14.479 0 0 1-1.436 3.175.179.179 0 0 1-.113.082 14.16 14.16 0 0 1-3.457.386.177.177 0 0 1-.165-.108.171.171 0 0 1 .026-.19h-.005Zm-1.148 1.636a.183.183 0 0 1 .16-.093h.015c1.569.124 3.144.016 4.672-.324a.174.174 0 0 1 .185.072l1.436 1.976a.183.183 0 0 1 .015.19 16.14 16.14 0 0 0-1.775 5.464.193.193 0 0 1-.123.15l-2.321.756a.186.186 0 0 1-.19-.052 15.764 15.764 0 0 0-3.586-3.01.192.192 0 0 1-.088-.175 12.074 12.074 0 0 1 1.605-4.95l-.005-.004Zm.561 12.677a.18.18 0 0 1-.154.124c-.036 0-.119 0-.175-.083a12.21 12.21 0 0 1-1.873-5.767.176.176 0 0 1 .093-.17c.03-.015.113-.051.195.01a14.31 14.31 0 0 1 2.573 2.346.175.175 0 0 1 .041.134 14.118 14.118 0 0 1-.705 3.411l.005-.005Zm5.083 4.698a12.146 12.146 0 0 1-4.203-3.067.186.186 0 0 1-.036-.19c.602-1.451.983-2.98 1.132-4.543a.176.176 0 0 1 .123-.155l2.295-.746s.036-.01.057-.01a.17.17 0 0 1 .133.062 13.695 13.695 0 0 0 4.662 3.39.18.18 0 0 1 .108.165v2.413a.174.174 0 0 1-.108.165 15.715 15.715 0 0 0-3.977 2.485.174.174 0 0 1-.191.026l.005.005Zm8.094.51a.172.172 0 0 1-.134.143 12.372 12.372 0 0 1-6.071 0 .18.18 0 0 1-.134-.144.18.18 0 0 1 .072-.185 14.345 14.345 0 0 1 3.03-1.724.164.164 0 0 1 .139 0 14.605 14.605 0 0 1 3.031 1.724.19.19 0 0 1 .072.185h-.005Zm5.963-3.572a12.124 12.124 0 0 1-4.204 3.062.18.18 0 0 1-.19-.026 15.648 15.648 0 0 0-3.977-2.485.18.18 0 0 1-.108-.165v-2.413c0-.072.041-.139.108-.164a13.635 13.635 0 0 0 4.661-3.391.174.174 0 0 1 .134-.062c.021 0 .036 0 .057.01l2.294.747c.067.02.119.082.124.154A15.78 15.78 0 0 0 219.686 33a.178.178 0 0 1-.036.19h.005Zm1.204-1.59a.176.176 0 0 1-.175.083c-.036 0-.118-.026-.154-.124a14.561 14.561 0 0 1-.705-3.41.21.21 0 0 1 .041-.135 14.496 14.496 0 0 1 2.572-2.346.178.178 0 0 1 .103-.036c.041 0 .072.016.093.026a.167.167 0 0 1 .092.17 12.198 12.198 0 0 1-1.872 5.767l.005.006Z" fill="#fff"/><path d="M149.488 49.617c-6.277 0-12.548-2.387-17.328-7.167-9.555-9.555-9.555-25.098 0-34.652C136.79 3.167 142.944.62 149.488.62c6.545 0 12.699 2.547 17.329 7.178 9.555 9.554 9.555 25.097 0 34.652-4.775 4.774-11.052 7.167-17.329 7.167Zm-16.042-8.453c8.844 8.844 23.235 8.844 32.08 0 8.844-8.845 8.844-23.236 0-32.08-4.286-4.286-9.982-6.643-16.043-6.643s-11.756 2.362-16.042 6.643c-8.845 8.844-8.845 23.235 0 32.08h.005Z" fill="#9DADF2"/><path d="M149.164 34.295a.549.549 0 0 0 .51.334.643.643 0 0 0 .216-.04 12.699 12.699 0 0 0 4.548-3.247.552.552 0 0 0-.046-.777.552.552 0 0 0-.777.046 11.503 11.503 0 0 1-4.152 2.964.551.551 0 0 0-.293.72h-.006Z" fill="#9DADF2"/><path d="M158.826 16.652 149.688 13a.567.567 0 0 0-.411 0l-9.138 3.653a.542.542 0 0 0-.345.51v6.544c.011 6.04 3.828 11.5 9.498 13.578a.594.594 0 0 0 .381 0c5.67-2.084 9.488-7.538 9.498-13.578v-6.545a.542.542 0 0 0-.345-.509Zm-.756 7.054c-.01 5.495-3.458 10.501-8.582 12.472-5.125-1.97-8.577-6.977-8.587-12.472v-6.169l8.587-3.432 8.582 3.432v6.169Z" fill="#9DADF2"/><path d="M145.67 17.511a.546.546 0 0 0-.422 0l-2.176.87a.542.542 0 0 0-.345.51v2.32a.551.551 0 0 0 1.101 0v-1.945l1.827-.73a.553.553 0 0 0 .303-.3.562.562 0 0 0-.293-.726h.005Z" fill="#9DADF2"/><path d="M163.4 11.209c-3.715-3.72-8.659-5.763-13.917-5.763a19.565 19.565 0 0 0-13.918 5.763c-7.671 7.67-7.671 20.158 0 27.835 3.838 3.838 8.875 5.752 13.918 5.752 5.042 0 10.079-1.92 13.917-5.752 7.671-7.672 7.671-20.159 0-27.835Zm-2.722 12.497A15.853 15.853 0 0 1 149.58 38.91a.315.315 0 0 1-.195 0 15.853 15.853 0 0 1-11.098-15.204v-7.723c0-.128.077-.247.2-.298l10.877-4.348a.303.303 0 0 1 .119-.02c.041 0 .082.005.118.02l10.877 4.353c.123.046.2.165.2.298v7.723-.005Z" fill="#9DADF2"/><path d="M89.036 49.404c-13.506 0-24.49-10.99-24.49-24.49 0-13.501 10.99-24.49 24.49-24.49 13.501 0 24.491 10.989 24.491 24.49 0 13.5-10.99 24.49-24.49 24.49Zm0-47.35c-12.605 0-22.86 10.254-22.86 22.86 0 12.605 10.255 22.86 22.86 22.86 12.606 0 22.86-10.255 22.86-22.86 0-12.606-10.254-22.86-22.86-22.86Z" fill="#478BF9"/><path d="m105.013 7.442-7.582 7.581 1.492 1.492 7.581-7.582-1.491-1.491ZM78.917 33.537l-7.582 7.582 1.491 1.492 7.582-7.582-1.491-1.492Zm20.235.007-1.491 1.492 7.582 7.582 1.491-1.492-7.582-7.582ZM72.824 7.213l-1.491 1.492 7.578 7.578 1.492-1.492-7.579-7.578ZM95.01 25.572a1.255 1.255 0 0 0 0-1.78l-1.05-1.044a1.255 1.255 0 0 0-1.78 0l-.566.566-.654-.654a1.255 1.255 0 0 0-1.78 0l-.566.571-.653-.658a1.255 1.255 0 0 0-1.78 0l-3.474 3.473c-.025.026-.025.067 0 .098a1.2 1.2 0 0 0 1.688 0l2.238-2.239a.618.618 0 0 1 .875 0l.165.165c.03.03.03.077 0 .108l-1.868 1.868c-.026.026-.026.067 0 .098a1.2 1.2 0 0 0 1.688 0l2.145-2.146a.618.618 0 0 1 .875 0l.164.165c.026.025.026.067 0 .097l-1.8 1.801c-.026.026-.026.067 0 .098a1.198 1.198 0 0 0 1.687 0l2.074-2.073a.618.618 0 0 1 .874 0l.355.355a.363.363 0 0 1 0 .509l-.056.056a.363.363 0 0 1-.51 0l-.458-.457c-.025-.026-.067-.026-.097 0l-.793.792c-.025.026-.025.067 0 .098l.715.715a1.254 1.254 0 0 0 1.78 0l.567-.566-.005-.016Z" fill="#478BF9"/><path d="M89.037 6.134c-10.373 0-18.78 8.407-18.78 18.78 0 10.372 8.407 18.78 18.78 18.78 10.372 0 18.779-8.408 18.779-18.78 0-10.373-8.407-18.78-18.78-18.78Zm.766 5.799a12.957 12.957 0 0 1 7.872 3.262l-2.711 2.711a9.153 9.153 0 0 0-5.16-2.14v-3.833Zm-1.528 0v3.833a9.118 9.118 0 0 0-5.16 2.14l-2.712-2.711a12.957 12.957 0 0 1 7.872-3.262Zm-8.952 4.342 2.711 2.712a9.154 9.154 0 0 0-2.14 5.16H76.06a12.959 12.959 0 0 1 3.262-7.872Zm-3.262 9.4h3.833a9.118 9.118 0 0 0 2.14 5.16l-2.711 2.712a12.959 12.959 0 0 1-3.262-7.872ZM88.275 37.89a12.958 12.958 0 0 1-7.872-3.262l2.712-2.712a9.153 9.153 0 0 0 5.16 2.14v3.834Zm-7.13-12.982a7.894 7.894 0 0 1 7.892-7.892 7.894 7.894 0 0 1 7.892 7.893 7.894 7.894 0 0 1-7.892 7.892 7.894 7.894 0 0 1-7.893-7.893Zm8.658 12.982v-3.834a9.118 9.118 0 0 0 5.16-2.14l2.712 2.712a12.958 12.958 0 0 1-7.872 3.262Zm8.953-4.343-2.712-2.711a9.154 9.154 0 0 0 2.14-5.16h3.834a12.958 12.958 0 0 1-3.262 7.871Zm-.571-9.4a9.118 9.118 0 0 0-2.14-5.16l2.71-2.712a12.958 12.958 0 0 1 3.263 7.872h-3.833Z" fill="#478BF9"/><path d="M7.225 42.167c-9.634-9.634-9.634-25.308 0-34.942 9.634-9.633 25.308-9.633 34.942 0 9.634 9.634 9.634 25.308 0 34.942s-25.308 9.634-34.942 0ZM41.003 8.39c-8.992-8.992-23.621-8.992-32.61 0C-.6 17.382-.6 32.01 8.392 41c8.991 8.993 23.62 8.993 32.61 0 8.992-8.991 8.992-23.62 0-32.61Z" fill="#fff"/><path d="M41.27 19.455a.812.812 0 0 1-.197-.318 17.096 17.096 0 0 0-4.15-6.67 17.135 17.135 0 0 0-6.67-4.15.824.824 0 0 1-.56-.78V1.532a.823.823 0 0 1 1.021-.799 24.653 24.653 0 0 1 11.448 6.492 24.68 24.68 0 0 1 6.49 11.448.833.833 0 0 1-.15.707.82.82 0 0 1-.649.317h-6.005a.822.822 0 0 1-.583-.244l.005.002Zm-3.182-8.153a18.773 18.773 0 0 1 4.346 6.747h4.344A23.04 23.04 0 0 0 41 8.39a23.017 23.017 0 0 0-9.657-5.774v4.343a18.711 18.711 0 0 1 6.747 4.346l-.002-.002ZM7.225 42.167A24.673 24.673 0 0 1 .733 30.72a.82.82 0 0 1 .799-1.022h6.004c.354 0 .668.225.78.56a17.097 17.097 0 0 0 4.15 6.67 17.135 17.135 0 0 0 6.67 4.15c.335.112.56.426.56.78v6.005a.826.826 0 0 1-1.024.799 24.68 24.68 0 0 1-11.447-6.49v-.005ZM2.612 31.343a23.039 23.039 0 0 0 5.777 9.66 23.039 23.039 0 0 0 9.66 5.777v-4.343a18.737 18.737 0 0 1-6.748-4.344 18.773 18.773 0 0 1-4.346-6.748H2.612v-.002Zm27.326 17.099a.823.823 0 0 1-.241-.584v-6.005c0-.353.225-.667.56-.78a17.097 17.097 0 0 0 6.67-4.149 17.124 17.124 0 0 0 4.15-6.67.822.822 0 0 1 .78-.56h6.005a.82.82 0 0 1 .799 1.021 24.703 24.703 0 0 1-6.493 11.448 24.652 24.652 0 0 1-11.447 6.492.827.827 0 0 1-.705-.15c-.026-.024-.052-.045-.075-.068l-.003.005Zm1.406-6.008v4.344a23.039 23.039 0 0 0 9.66-5.777 23.063 23.063 0 0 0 5.777-9.66h-4.343a18.73 18.73 0 0 1-4.346 6.747 18.742 18.742 0 0 1-6.748 4.346ZM.949 19.455a.824.824 0 0 1-.216-.783A24.653 24.653 0 0 1 7.225 7.226 24.684 24.684 0 0 1 18.672.733a.827.827 0 0 1 .706.15.828.828 0 0 1 .316.65v6.004a.822.822 0 0 1-.56.78 17.097 17.097 0 0 0-6.67 4.15 17.134 17.134 0 0 0-4.15 6.67.822.822 0 0 1-.78.56H1.53a.826.826 0 0 1-.584-.24l.003-.002Zm17.098-16.84a23.04 23.04 0 0 0-9.66 5.777 23.063 23.063 0 0 0-5.777 9.66h4.343a18.73 18.73 0 0 1 4.346-6.747 18.773 18.773 0 0 1 6.748-4.347V2.615Z" fill="#fff"/><path d="M38.09 11.302c-7.385-7.385-19.404-7.387-26.789 0-7.387 7.387-7.385 19.404 0 26.789 7.385 7.385 19.402 7.387 26.789 0 7.387-7.387 7.385-19.404 0-26.789Z" fill="#fff"/><path d="m31.527 31.458-13.607.09a1.038 1.038 0 0 0-1.031 1.045l.003.484a1.038 1.038 0 0 0 1.045 1.032l13.607-.09a1.038 1.038 0 0 0 1.031-1.045l-.003-.485a1.038 1.038 0 0 0-1.045-1.031Zm-11.753-8.214c-.148 0-.298-.033-.434-.098l-1.061-.514a.98.98 0 0 1-.48-1.246l.487-1.214a.977.977 0 0 1 1.392-.485l1.265.722a.977.977 0 0 1 .32 1.406l-.693 1.005a.973.973 0 0 1-.799.422l.003.002Zm9.794-.066a.982.982 0 0 1-.803-.412l-.687-.968a.98.98 0 0 1 .303-1.41l1.305-.766a.98.98 0 0 1 1.399.466l.491 1.178a.984.984 0 0 1-.464 1.254l-1.11.555a.99.99 0 0 1-.431.103h-.003Z" fill="#110A1D"/><path d="M18.705 30.638a1.414 1.414 0 0 1-1.338-.932l-2.27-6.249a2.418 2.418 0 0 1-1.343.216 2.398 2.398 0 0 1-2.087-2.36 2.396 2.396 0 1 1 4.416 1.267l4.318 2.09 3.303-4.786a2.42 2.42 0 0 1-1.014-.818 2.382 2.382 0 0 1-.443-1.37 2.4 2.4 0 0 1 2.558-2.409 2.401 2.401 0 0 1 2.226 2.212 2.39 2.39 0 0 1-1.434 2.376l3.362 4.737 4.248-2.125a2.479 2.479 0 0 1-.19-.478 2.328 2.328 0 0 1-.086-.625 2.395 2.395 0 1 1 4.789-.03 2.398 2.398 0 0 1-2.229 2.405l-.15.005a2.33 2.33 0 0 1-1.146-.284l-2.131 6.127a1.414 1.414 0 0 1-1.326.949l-12.033.08v.002Z" fill="#110A1D"/></svg>