<svg width="101" height="594" fill="none" xmlns="http://www.w3.org/2000/svg"><path d="M15.492 578.48c-19.49-19.49-19.49-51.199 0-70.688 19.49-19.49 51.199-19.49 70.688 0 19.49 19.489 19.49 51.198 0 70.688-19.49 19.49-51.198 19.49-70.688 0Zm68.333-68.333c-18.191-18.191-47.786-18.191-65.972 0-18.191 18.191-18.191 47.786 0 65.972 18.19 18.191 47.785 18.191 65.972 0 18.191-18.191 18.191-47.785 0-65.972Z" fill="#fff"/><path d="M84.364 532.533a1.64 1.64 0 0 1-.398-.645c-1.73-5.119-4.555-9.654-8.394-13.494A34.67 34.67 0 0 0 62.078 510a1.666 1.666 0 0 1-1.133-1.578v-12.148a1.666 1.666 0 0 1 2.067-1.616 49.87 49.87 0 0 1 23.158 13.134 49.923 49.923 0 0 1 13.129 23.158c.123.498.01 1.024-.303 1.431-.318.408-.801.64-1.313.64H85.535c-.455 0-.872-.185-1.18-.493l.009.005Zm-6.437-16.494a37.982 37.982 0 0 1 8.793 13.65h8.787a46.61 46.61 0 0 0-11.688-19.542 46.56 46.56 0 0 0-19.537-11.683v8.787a37.868 37.868 0 0 1 13.65 8.792l-.005-.004ZM15.49 578.48a49.915 49.915 0 0 1-13.133-23.159 1.672 1.672 0 0 1 .303-1.426c.318-.408.801-.64 1.313-.64h12.148c.716 0 1.351.455 1.579 1.133 1.73 5.119 4.554 9.655 8.394 13.494a34.671 34.671 0 0 0 13.494 8.394 1.662 1.662 0 0 1 1.132 1.578v12.148c0 .512-.237.995-.64 1.313a1.673 1.673 0 0 1-1.43.303 49.927 49.927 0 0 1-23.16-13.129v-.009Zm-9.332-21.898a46.61 46.61 0 0 0 11.688 19.542 46.61 46.61 0 0 0 19.542 11.688v-8.787a37.911 37.911 0 0 1-13.65-8.788 37.98 37.98 0 0 1-8.792-13.65H6.158v-.005Zm55.283 34.591a1.665 1.665 0 0 1-.488-1.18v-12.148c0-.716.455-1.351 1.133-1.579 5.119-1.73 9.654-4.554 13.494-8.394a34.641 34.641 0 0 0 8.394-13.494 1.663 1.663 0 0 1 1.578-1.132H97.7a1.661 1.661 0 0 1 1.616 2.066 49.973 49.973 0 0 1-13.134 23.158 49.87 49.87 0 0 1-23.158 13.134 1.673 1.673 0 0 1-1.427-.303c-.052-.048-.104-.09-.151-.138l-.005.01Zm2.844-12.153v8.788a46.612 46.612 0 0 0 19.542-11.689 46.648 46.648 0 0 0 11.688-19.541h-8.787c-1.92 5.147-4.873 9.73-8.793 13.65-3.915 3.915-8.503 6.873-13.65 8.792ZM2.794 532.533a1.666 1.666 0 0 1-.436-1.583 49.866 49.866 0 0 1 13.134-23.158 49.936 49.936 0 0 1 23.158-13.134 1.673 1.673 0 0 1 1.427.303c.402.318.64.801.64 1.313v12.148c0 .716-.456 1.351-1.133 1.578-5.12 1.73-9.655 4.555-13.494 8.394a34.667 34.667 0 0 0-8.394 13.494 1.663 1.663 0 0 1-1.579 1.133H3.97c-.445 0-.872-.175-1.18-.483l.005-.005Zm34.59-34.069a46.61 46.61 0 0 0-19.541 11.688 46.658 46.658 0 0 0-11.689 19.542h8.788c1.92-5.147 4.872-9.731 8.792-13.651a37.988 37.988 0 0 1 13.65-8.792v-8.787Z" fill="#fff"/><path d="M77.932 516.039c-14.94-14.94-39.255-14.945-54.194 0-14.945 14.944-14.94 39.254 0 54.194 14.94 14.939 39.25 14.944 54.194 0 14.944-14.945 14.94-39.255 0-54.194Z" fill="#fff"/><path d="m64.654 556.813-27.527.183a2.1 2.1 0 0 0-2.086 2.113l.007.982a2.1 2.1 0 0 0 2.113 2.085l27.528-.182a2.1 2.1 0 0 0 2.086-2.114l-.007-.981a2.1 2.1 0 0 0-2.114-2.086Zm-23.777-16.616c-.298 0-.602-.066-.877-.199l-2.147-1.038a1.984 1.984 0 0 1-.971-2.521l.986-2.455a1.976 1.976 0 0 1 2.815-.982l2.56 1.46a1.986 1.986 0 0 1 .65 2.844l-1.404 2.033a1.969 1.969 0 0 1-1.616.854l.004.004Zm19.815-.132a1.987 1.987 0 0 1-1.626-.835l-1.388-1.957a1.982 1.982 0 0 1 .611-2.853l2.64-1.55c.299-.176.64-.27.986-.275a1.983 1.983 0 0 1 1.844 1.218l.995 2.384a1.992 1.992 0 0 1-.938 2.536l-2.247 1.123c-.27.133-.574.209-.872.209h-.005Z" fill="#110A1D"/><path d="M38.715 555.156a2.86 2.86 0 0 1-2.707-1.887l-4.592-12.641a4.789 4.789 0 0 1-.925.332 4.609 4.609 0 0 1-1.137.142 4.85 4.85 0 0 1-.654-.038 4.85 4.85 0 0 1-4.223-4.772 4.854 4.854 0 0 1 4.815-4.882 4.847 4.847 0 0 1 4.877 4.815c0 .616-.104 1.209-.322 1.763a5.283 5.283 0 0 1-.436.868l8.735 4.228 6.683-9.684a4.889 4.889 0 0 1-2.052-1.654 4.82 4.82 0 0 1-.896-2.773 4.854 4.854 0 0 1 5.176-4.872 4.858 4.858 0 0 1 4.503 4.474 4.833 4.833 0 0 1-.863 3.143 4.898 4.898 0 0 1-1.237 1.223 4.384 4.384 0 0 1-.801.44l6.802 9.584 8.593-4.299a5.003 5.003 0 0 1-.384-.967 4.712 4.712 0 0 1-.176-1.265 4.844 4.844 0 0 1 4.81-4.877 4.847 4.847 0 0 1 .37 9.683l-.303.009c-.492 0-.976-.066-1.445-.208a4.77 4.77 0 0 1-.872-.365L65.74 553.07a2.862 2.862 0 0 1-2.683 1.92l-24.343.161v.005Z" fill="#110A1D"/><path d="M49.983 472c-12.699 0-25.387-4.829-35.057-14.499-19.329-19.329-19.329-50.773 0-70.102 9.368-9.368 21.817-14.52 35.057-14.52 13.24 0 25.688 5.152 35.056 14.52 19.329 19.329 19.329 50.773 0 70.102C75.379 467.16 62.68 472 49.983 472Zm-32.454-17.101c17.892 17.892 47.005 17.892 64.897 0 17.893-17.893 17.893-47.006 0-64.898-8.67-8.671-20.193-13.438-32.454-13.438s-23.784 4.778-32.454 13.438c-17.892 17.892-17.892 47.005 0 64.898h.01Z" fill="#9DADF2"/><path d="M49.327 440.993c.177.427.593.676 1.03.676.146 0 .292-.031.438-.083a25.705 25.705 0 0 0 9.2-6.568 1.116 1.116 0 0 0-.093-1.571 1.117 1.117 0 0 0-1.572.093 23.272 23.272 0 0 1-8.4 5.996 1.117 1.117 0 0 0-.593 1.457h-.01Z" fill="#9DADF2"/><path d="m68.873 405.312-18.486-7.39a1.15 1.15 0 0 0-.833 0l-18.485 7.39a1.097 1.097 0 0 0-.698 1.031v13.239c.021 12.22 7.744 23.264 19.215 27.469a1.212 1.212 0 0 0 .77 0c11.47-4.216 19.193-15.249 19.214-27.469v-13.239c0-.458-.27-.864-.697-1.031Zm-1.53 14.27c-.021 11.117-6.995 21.244-17.362 25.231-10.367-3.987-17.351-14.114-17.372-25.231v-12.48l17.372-6.942 17.362 6.942v12.48Z" fill="#9DADF2"/><path d="M42.258 407.05a1.108 1.108 0 0 0-.853 0l-4.403 1.759a1.097 1.097 0 0 0-.697 1.031v4.694c0 .614.5 1.114 1.113 1.114.614 0 1.114-.5 1.114-1.114V410.6l3.695-1.478c.281-.115.49-.323.614-.604a1.142 1.142 0 0 0-.593-1.468h.01Z" fill="#9DADF2"/><path d="M78.126 394.3c-7.515-7.526-17.518-11.658-28.155-11.658-10.638 0-20.63 4.143-28.156 11.658-15.519 15.519-15.519 40.781 0 56.311 7.765 7.764 17.955 11.636 28.156 11.636 10.2 0 20.39-3.882 28.155-11.636 15.52-15.52 15.52-40.782 0-56.311Zm-5.506 25.282c.031 14.125-8.993 26.48-22.452 30.758a.637.637 0 0 1-.395 0c-13.459-4.278-22.483-16.633-22.452-30.758v-15.623c0-.26.156-.5.406-.604l22.004-8.795a.615.615 0 0 1 .24-.042c.083 0 .166.011.239.042l22.004 8.806c.25.093.406.333.406.603v15.624-.011Z" fill="#9DADF2"/><path d="M50.127 345.389c-27.323 0-49.545-22.233-49.545-49.545s22.233-49.545 49.545-49.545 49.545 22.233 49.545 49.545-22.233 49.545-49.545 49.545Zm0-95.79c-25.501 0-46.245 20.744-46.245 46.245 0 25.501 20.744 46.246 46.245 46.246 25.501 0 46.246-20.745 46.246-46.246s-20.745-46.245-46.246-46.245Z" fill="#fff"/><path d="M66.198 264.899c-.25 0-.5-.052-.729-.166a34.32 34.32 0 0 0-15.342-3.581 34.32 34.32 0 0 0-15.343 3.581 1.649 1.649 0 0 1-1.894-.312l-8.514-8.515a1.642 1.642 0 0 1-.469-1.374c.063-.51.354-.957.791-1.217a49.452 49.452 0 0 1 25.44-7.026 49.55 49.55 0 0 1 25.438 7.026c.437.26.728.707.79 1.217.063.51-.114 1.01-.468 1.374l-8.514 8.515a1.68 1.68 0 0 1-1.176.478h-.01Zm-16.071-7.046a37.65 37.65 0 0 1 15.727 3.403l6.162-6.161a46.15 46.15 0 0 0-21.89-5.507 46.151 46.151 0 0 0-21.889 5.507l6.162 6.161a37.65 37.65 0 0 1 15.728-3.403Zm-.002 87.536a49.55 49.55 0 0 1-25.439-7.026 1.644 1.644 0 0 1-.79-1.217c-.063-.51.114-1.01.468-1.374l8.514-8.515a1.65 1.65 0 0 1 1.894-.312 34.32 34.32 0 0 0 15.343 3.581 34.32 34.32 0 0 0 15.342-3.581 1.648 1.648 0 0 1 1.894.312l8.514 8.515c.365.364.531.864.469 1.374-.063.51-.354.957-.791 1.217a49.452 49.452 0 0 1-25.439 7.026h.02Zm-21.89-8.805a46.161 46.161 0 0 0 21.89 5.506c7.66 0 15.186-1.895 21.89-5.506l-6.163-6.162a37.65 37.65 0 0 1-15.727 3.403 37.65 37.65 0 0 1-15.727-3.403l-6.162 6.162Zm62.998-14.51c-.437 0-.854-.167-1.166-.479l-8.514-8.514a1.65 1.65 0 0 1-.312-1.894 34.32 34.32 0 0 0 3.58-15.343 34.316 34.316 0 0 0-3.58-15.342 1.644 1.644 0 0 1 .312-1.894l8.514-8.515a1.641 1.641 0 0 1 1.374-.468c.51.062.958.354 1.218.791a49.455 49.455 0 0 1 7.026 25.439 49.454 49.454 0 0 1-7.026 25.438c-.26.438-.708.729-1.218.791h-.208v-.01Zm-6.526-10.513 6.162 6.162a46.15 46.15 0 0 0 5.506-21.889 46.15 46.15 0 0 0-5.507-21.889l-6.161 6.161a37.646 37.646 0 0 1 3.403 15.728 37.638 37.638 0 0 1-3.403 15.727ZM9.023 322.074c-.072 0-.135 0-.197-.01a1.647 1.647 0 0 1-1.218-.791 49.46 49.46 0 0 1-7.026-25.439 49.458 49.458 0 0 1 7.026-25.439c.26-.437.708-.728 1.218-.791a1.68 1.68 0 0 1 1.374.468l8.514 8.515c.5.499.624 1.27.312 1.894a34.32 34.32 0 0 0-3.58 15.343 34.318 34.318 0 0 0 3.58 15.342 1.644 1.644 0 0 1-.312 1.894l-8.514 8.514c-.313.313-.729.49-1.166.49l-.01.01Zm.365-48.129a46.15 46.15 0 0 0-5.506 21.889 46.15 46.15 0 0 0 5.506 21.889l6.162-6.162a37.638 37.638 0 0 1-3.404-15.727 37.646 37.646 0 0 1 3.404-15.728l-6.162-6.161Z" fill="#fff"/><path d="M50.128 257.853c-20.942 0-37.991 17.039-37.991 37.991 0 20.953 17.039 37.992 37.991 37.992 20.953 0 37.992-17.039 37.992-37.992 0-20.952-17.04-37.991-37.992-37.991Zm21.38 25.511a24.473 24.473 0 0 1 3.247 10.013.368.368 0 0 1-.177.354 31.854 31.854 0 0 0-7.255 6.089.341.341 0 0 1-.385.105l-4.694-1.531a.36.36 0 0 1-.25-.301 32.665 32.665 0 0 0-3.59-11.054.368.368 0 0 1 .03-.385l2.904-3.997a.395.395 0 0 1 .302-.157h.084a31.7 31.7 0 0 0 9.45.656.378.378 0 0 1 .354.188l-.02.02Zm-12.074 15.384a.379.379 0 0 1-.084.281 24.86 24.86 0 0 1-9.076 6.579.337.337 0 0 1-.281 0 25.102 25.102 0 0 1-9.076-6.579.378.378 0 0 1-.084-.281 30.145 30.145 0 0 1 3.477-10.7.35.35 0 0 1 .24-.177 27.183 27.183 0 0 1 5.589-.583c1.884 0 3.757.198 5.59.583a.35.35 0 0 1 .239.177 30.354 30.354 0 0 1 3.476 10.7h-.01Zm-.563-25.834s.125-.104.25-.104c.042 0 .094 0 .146.031 3.83 1.52 7.255 4.018 9.92 7.213a.346.346 0 0 1 .052.386.357.357 0 0 1-.334.218 28.64 28.64 0 0 1-6.994-.781.367.367 0 0 1-.23-.166 29.508 29.508 0 0 1-2.903-6.422.346.346 0 0 1 .104-.375h-.01Zm-14-1.249a25.251 25.251 0 0 1 10.524 0c.135.031.25.135.281.271a31.912 31.912 0 0 0 3.55 8.785.383.383 0 0 1-.021.406l-2.884 3.976a.36.36 0 0 1-.364.145 29.65 29.65 0 0 0-11.647 0 .36.36 0 0 1-.364-.145l-2.884-3.976a.381.381 0 0 1-.02-.406 31.914 31.914 0 0 0 3.549-8.785.372.372 0 0 1 .28-.271Zm-13.79 8.389c2.664-3.205 6.088-5.704 9.919-7.213a.35.35 0 0 1 .396.073c.051.052.166.177.103.375a29.29 29.29 0 0 1-2.904 6.422.368.368 0 0 1-.228.166 28.64 28.64 0 0 1-6.995.781.357.357 0 0 1-.333-.218.346.346 0 0 1 .052-.386h-.01Zm-2.322 3.31a.368.368 0 0 1 .323-.187h.031c3.175.25 6.36.031 9.451-.656a.352.352 0 0 1 .375.146l2.904 3.997a.37.37 0 0 1 .031.385 32.682 32.682 0 0 0-3.59 11.054.39.39 0 0 1-.25.302l-4.695 1.53a.378.378 0 0 1-.385-.104 31.803 31.803 0 0 0-7.255-6.089.389.389 0 0 1-.177-.354 24.42 24.42 0 0 1 3.248-10.013l-.01-.011Zm1.135 25.647a.364.364 0 0 1-.312.25c-.073 0-.24 0-.354-.166a24.698 24.698 0 0 1-3.79-11.669.355.355 0 0 1 .188-.343c.063-.031.23-.104.396.021a28.883 28.883 0 0 1 5.204 4.746.355.355 0 0 1 .083.271 28.56 28.56 0 0 1-1.426 6.901l.01-.011Zm10.284 9.503c-3.248-1.426-6.11-3.518-8.504-6.203a.375.375 0 0 1-.073-.385 31.859 31.859 0 0 0 2.29-9.191.357.357 0 0 1 .25-.312l4.642-1.51s.073-.02.114-.02a.35.35 0 0 1 .27.124 27.693 27.693 0 0 0 9.431 6.86.362.362 0 0 1 .219.333v4.881a.354.354 0 0 1-.219.334 31.83 31.83 0 0 0-8.046 5.027.35.35 0 0 1-.385.052l.01.01Zm16.372 1.031a.347.347 0 0 1-.27.291 25.032 25.032 0 0 1-12.282 0 .363.363 0 0 1-.271-.291.367.367 0 0 1 .146-.375 29.062 29.062 0 0 1 6.13-3.487.336.336 0 0 1 .281 0 29.587 29.587 0 0 1 6.131 3.487.383.383 0 0 1 .146.375h-.01Zm12.064-7.224a24.539 24.539 0 0 1-8.504 6.193.364.364 0 0 1-.385-.052 31.649 31.649 0 0 0-8.046-5.027.363.363 0 0 1-.218-.333v-4.882c0-.146.083-.281.218-.333a27.602 27.602 0 0 0 9.43-6.859.352.352 0 0 1 .271-.125c.042 0 .073 0 .114.021l4.643 1.509a.36.36 0 0 1 .25.312 31.943 31.943 0 0 0 2.29 9.191.355.355 0 0 1-.073.385h.01Zm2.436-3.216a.354.354 0 0 1-.354.166.359.359 0 0 1-.313-.249 29.598 29.598 0 0 1-1.426-6.901.42.42 0 0 1 .084-.271 29.297 29.297 0 0 1 5.204-4.746.362.362 0 0 1 .208-.073c.084 0 .146.031.188.052a.34.34 0 0 1 .187.343 24.699 24.699 0 0 1-3.789 11.669l.01.01Z" fill="#fff"/><path d="M49.983 221.932c-12.699 0-25.387-4.829-35.057-14.499-19.329-19.329-19.329-50.773 0-70.102 9.368-9.368 21.817-14.52 35.057-14.52 13.24 0 25.688 5.152 35.056 14.52 19.329 19.329 19.329 50.773 0 70.102-9.66 9.659-22.358 14.499-35.056 14.499Zm-32.454-17.101c17.892 17.893 47.005 17.893 64.897 0 17.893-17.892 17.893-47.005 0-64.898-8.67-8.67-20.193-13.437-32.454-13.437s-23.784 4.777-32.454 13.437c-17.892 17.893-17.892 47.006 0 64.898h.01Z" fill="#9DADF2"/><path d="M49.327 190.935c.177.427.593.677 1.03.677.146 0 .292-.031.438-.083a25.705 25.705 0 0 0 9.2-6.568 1.117 1.117 0 0 0-.093-1.572 1.117 1.117 0 0 0-1.572.094 23.257 23.257 0 0 1-8.4 5.995c-.561.24-.832.895-.593 1.457h-.01Z" fill="#9DADF2"/><path d="m68.873 155.244-18.486-7.39a1.15 1.15 0 0 0-.833 0l-18.485 7.39a1.097 1.097 0 0 0-.698 1.031v13.239c.021 12.22 7.744 23.264 19.215 27.469a1.212 1.212 0 0 0 .77 0c11.47-4.216 19.193-15.249 19.214-27.469v-13.239c0-.458-.27-.864-.697-1.031Zm-1.53 14.27c-.021 11.117-6.995 21.244-17.362 25.231-10.367-3.987-17.351-14.114-17.372-25.231v-12.48l17.372-6.942 17.362 6.942v12.48Z" fill="#9DADF2"/><path d="M42.258 156.982a1.108 1.108 0 0 0-.853 0l-4.403 1.759a1.097 1.097 0 0 0-.697 1.031v4.694c0 .614.5 1.114 1.113 1.114.614 0 1.114-.5 1.114-1.114v-3.934l3.695-1.478c.281-.115.49-.323.614-.604a1.142 1.142 0 0 0-.593-1.468h.01Z" fill="#9DADF2"/><path d="M78.126 144.232c-7.515-7.526-17.518-11.658-28.155-11.658-10.638 0-20.63 4.143-28.156 11.658-15.519 15.519-15.519 40.781 0 56.311 7.765 7.764 17.955 11.636 28.156 11.636 10.2 0 20.39-3.882 28.155-11.636 15.52-15.52 15.52-40.781 0-56.311Zm-5.506 25.282c.031 14.125-8.993 26.48-22.452 30.758a.637.637 0 0 1-.395 0c-13.459-4.278-22.483-16.633-22.452-30.758v-15.623c0-.26.156-.499.406-.604l22.004-8.795a.615.615 0 0 1 .24-.041c.083 0 .166.01.239.041l22.004 8.806c.25.094.406.333.406.604v15.623-.011Z" fill="#9DADF2"/><path d="M50.397 99.62C23.074 99.62.852 77.389.852 50.077.852 22.763 23.084.53 50.397.53c27.312 0 49.545 22.232 49.545 49.545 0 27.312-22.233 49.545-49.545 49.545Zm0-95.79C24.895 3.83 4.15 24.574 4.15 50.076c0 25.5 20.744 46.245 46.246 46.245 25.5 0 46.245-20.744 46.245-46.245 0-25.502-20.744-46.246-46.245-46.246Z" fill="#478BF9"/><path d="M82.717 14.729 67.38 30.067l3.018 3.018 15.338-15.338-3.018-3.018ZM29.924 67.52 14.586 82.86l3.018 3.017 15.338-15.338-3.018-3.017Zm40.938.016-3.018 3.017 15.338 15.338 3.018-3.017-15.338-15.338ZM17.6 14.267l-3.018 3.018 15.331 15.33 3.018-3.017L17.6 14.268Zm44.88 37.141c1-1 1-2.613 0-3.602l-2.123-2.113a2.537 2.537 0 0 0-3.6 0l-1.146 1.145-1.322-1.322a2.538 2.538 0 0 0-3.601 0l-1.145 1.156-1.322-1.332c-1-1-2.613-1-3.601 0l-7.026 7.025c-.052.052-.052.136 0 .198a2.425 2.425 0 0 0 3.414 0l4.527-4.528a1.25 1.25 0 0 1 1.77 0l.333.333a.151.151 0 0 1 0 .219l-3.778 3.778c-.052.052-.052.136 0 .198a2.425 2.425 0 0 0 3.414 0l4.34-4.34a1.25 1.25 0 0 1 1.77 0l.333.333c.052.052.052.135 0 .198l-3.643 3.643c-.052.052-.052.135 0 .197a2.425 2.425 0 0 0 3.414 0l4.194-4.194a1.25 1.25 0 0 1 1.77 0l.718.718a.735.735 0 0 1 0 1.03l-.114.115a.735.735 0 0 1-1.03 0l-.927-.926c-.052-.053-.136-.053-.198 0l-1.603 1.602c-.052.052-.052.136 0 .198l1.447 1.447c1 1 2.612 1 3.601 0l1.145-1.145-.01-.031Z" fill="#478BF9"/><path d="M50.398 12.084c-20.984 0-37.992 17.008-37.992 37.992 0 20.983 17.008 37.991 37.992 37.991 20.984 0 37.991-17.008 37.991-37.991 0-20.984-17.007-37.992-37.991-37.992Zm1.55 11.73c6.1.354 11.638 2.79 15.926 6.6l-5.485 5.485a18.517 18.517 0 0 0-10.44-4.33v-7.755Zm-3.09 0v7.755a18.445 18.445 0 0 0-10.44 4.33l-5.486-5.485a26.214 26.214 0 0 1 15.925-6.6ZM30.745 32.6l5.486 5.486a18.517 18.517 0 0 0-4.33 10.44h-7.755a26.214 26.214 0 0 1 6.6-15.926Zm-6.599 19.017h7.755a18.446 18.446 0 0 0 4.33 10.44l-5.486 5.485a26.214 26.214 0 0 1-6.599-15.925Zm24.71 24.71a26.214 26.214 0 0 1-15.925-6.599l5.485-5.485a18.517 18.517 0 0 0 10.44 4.33v7.754ZM34.43 50.067c0-8.817 7.15-15.968 15.967-15.968 8.816 0 15.967 7.151 15.967 15.967s-7.151 15.967-15.967 15.967-15.967-7.15-15.967-15.967Zm17.518 26.26v-7.754a18.445 18.445 0 0 0 10.44-4.33l5.485 5.485a26.214 26.214 0 0 1-15.925 6.6Zm18.11-8.785-5.485-5.485a18.517 18.517 0 0 0 4.33-10.44h7.755a26.214 26.214 0 0 1-6.6 15.925Zm-1.155-19.016a18.446 18.446 0 0 0-4.33-10.44l5.486-5.486a26.214 26.214 0 0 1 6.599 15.926h-7.755Z" fill="#478BF9"/></svg>