<svg width="14" height="14" fill="none" xmlns="http://www.w3.org/2000/svg"><path d="M.875 1.752c0-.484.403-.877.9-.877h10.45c.497 0 .9.393.9.877v10.496a.889.889 0 0 1-.9.877H1.775a.889.889 0 0 1-.9-.877V1.752Zm3.784 9.378V5.598H2.821v5.532H4.66Zm-.918-6.288c.64 0 1.04-.424 1.04-.955-.012-.543-.399-.956-1.028-.956-.63 0-1.04.414-1.04.956 0 .531.398.955 1.015.955h.013Zm3.757 6.288V8.04c0-.165.013-.33.062-.448.132-.33.435-.672.943-.672.665 0 .93.506.93 1.25v2.96h1.84V7.957c0-1.7-.907-2.49-2.117-2.49-.975 0-1.413.536-1.658.914V6.4h-.012l.012-.02v-.782H5.661c.023.52 0 5.532 0 5.532h1.837Z" fill="#110A1D"/></svg>