<svg width="14" height="9" fill="none" xmlns="http://www.w3.org/2000/svg"><path fill-rule="evenodd" clip-rule="evenodd" d="M.311.54A.317.317 0 0 1 .572.4h2.212a.32.32 0 0 1 .29.193c.135.298.266.599.395.897.3.69.593 1.365.908 1.938.223.406.446.738.673.974.096.1.19.18.28.239V1.82L4.668.953a.356.356 0 0 1-.04-.36.321.321 0 0 1 .29-.194h3.075c.178 0 .322.152.322.34v3.187c.368-.383.655-.82.918-1.288.151-.27.292-.545.435-.827l.106-.205c.18-.35.368-.709.584-1.054A.318.318 0 0 1 10.626.4h2.119c.1 0 .194.049.255.133a.356.356 0 0 1 .056.294c-.405 1.623-1.195 2.756-1.948 3.837l-.089.128a10.327 10.327 0 0 1 2.403 3.476.357.357 0 0 1-.024.324.318.318 0 0 1-.27.155h-2.33a.312.312 0 0 1-.211-.082 6.937 6.937 0 0 1-.654-.706l-.117-.142c-.154-.186-.298-.36-.453-.526-.298-.315-.618-.572-1.048-.717v1.833c0 .171-.12.316-.282.337-2.614.351-4.372-1.007-5.556-2.747C1.339 4.326.704 2.267.303.965L.266.845A.356.356 0 0 1 .31.54Zm.705.54C1.42 2.378 2.013 4.15 3 5.6c1.049 1.54 2.517 2.682 4.67 2.5V6.147c0-.099.04-.193.112-.258a.31.31 0 0 1 .258-.078c.808.13 1.34.536 1.778 1 .172.182.334.379.488.567l.11.132c.165.198.327.386.503.557h1.696a9.579 9.579 0 0 0-2.239-2.962.354.354 0 0 1-.053-.46c.088-.13.177-.256.264-.383.682-.98 1.332-1.914 1.726-3.182h-1.512a15.94 15.94 0 0 0-.462.851l-.102.2c-.144.282-.292.572-.45.855-.396.704-.874 1.395-1.608 1.948a.307.307 0 0 1-.335.025.343.343 0 0 1-.174-.302V1.08H5.593l.31.406c.046.06.071.136.071.214v3.42a.35.35 0 0 1-.108.254.31.31 0 0 1-.25.084c-.395-.049-.731-.273-1.017-.57-.287-.298-.543-.69-.779-1.118-.331-.603-.645-1.326-.952-2.031a53.814 53.814 0 0 0-.288-.659H1.016Z" fill="#110A1D"/><path d="M3 5.6c-.987-1.45-1.58-3.222-1.984-4.52H2.58c.096.215.192.436.288.659.307.705.62 1.428.952 2.03.236.43.492.821.779 1.119.286.297.622.521 1.016.57a.31.31 0 0 0 .251-.084.35.35 0 0 0 .108-.254V1.7a.353.353 0 0 0-.071-.214l-.31-.406H7.67v3.577c0 .127.067.244.174.302a.307.307 0 0 0 .335-.025c.734-.553 1.212-1.244 1.607-1.948.159-.283.307-.573.45-.856l.103-.199c.15-.293.3-.577.462-.85h1.512c-.394 1.267-1.044 2.201-1.726 3.181a86.83 86.83 0 0 0-.264.382.354.354 0 0 0 .053.46 9.579 9.579 0 0 1 2.239 2.963H10.92a7.03 7.03 0 0 1-.503-.557 46.373 46.373 0 0 1-.11-.132 11.271 11.271 0 0 0-.488-.567c-.438-.464-.97-.87-1.778-1a.31.31 0 0 0-.258.078.349.349 0 0 0-.112.258V8.1C5.517 8.282 4.049 7.14 3 5.6Z" fill="#110A1D"/></svg>