<svg width="14" height="10" fill="none" xmlns="http://www.w3.org/2000/svg"><path d="m5.667 7 3.46-2-3.46-2v4Zm7.706-5.22c.087.313.147.733.187 1.267.047.533.067.993.067 1.393l.04.56c0 1.46-.107 2.533-.294 3.22-.166.6-.553.987-1.153 1.153-.313.087-.887.147-1.767.187a44.09 44.09 0 0 1-2.393.067L7 9.667c-2.793 0-4.533-.107-5.22-.294C1.18 9.207.793 8.82.627 8.22.54 7.907.48 7.487.44 6.953A16.04 16.04 0 0 1 .373 5.56L.333 5c0-1.46.107-2.533.294-3.22.166-.6.553-.987 1.153-1.153C2.093.54 2.667.48 3.547.44A44.09 44.09 0 0 1 5.94.373L7 .333c2.793 0 4.533.107 5.22.294.6.166.987.553 1.153 1.153Z" fill="#1E1231"/></svg>