<svg width="14" height="14" viewBox="0 0 14 14" fill="none" xmlns="http://www.w3.org/2000/svg">
<path d="M7 0.5C8.76605 0.5 8.9864 0.5065 9.6793 0.539C10.3715 0.5715 10.8428 0.68005 11.2575 0.84125C11.6865 1.00635 12.0479 1.22995 12.4093 1.5907C12.7398 1.91563 12.9956 2.30868 13.1587 2.7425C13.3193 3.15655 13.4285 3.62845 13.461 4.3207C13.4915 5.0136 13.5 5.23395 13.5 7C13.5 8.76605 13.4935 8.9864 13.461 9.6793C13.4285 10.3715 13.3193 10.8428 13.1587 11.2575C12.996 11.6916 12.7402 12.0847 12.4093 12.4093C12.0843 12.7397 11.6912 12.9954 11.2575 13.1587C10.8434 13.3193 10.3715 13.4285 9.6793 13.461C8.9864 13.4915 8.76605 13.5 7 13.5C5.23395 13.5 5.0136 13.4935 4.3207 13.461C3.62845 13.4285 3.1572 13.3193 2.7425 13.1587C2.30851 12.9959 1.91539 12.7401 1.5907 12.4093C1.26011 12.0844 1.00436 11.6914 0.84125 11.2575C0.68005 10.8434 0.5715 10.3715 0.539 9.6793C0.50845 8.9864 0.5 8.76605 0.5 7C0.5 5.23395 0.5065 5.0136 0.539 4.3207C0.5715 3.6278 0.68005 3.1572 0.84125 2.7425C1.0039 2.30842 1.25972 1.91526 1.5907 1.5907C1.91549 1.26 2.30858 1.00422 2.7425 0.84125C3.1572 0.68005 3.6278 0.5715 4.3207 0.539C5.0136 0.50845 5.23395 0.5 7 0.5ZM7 3.75C6.13805 3.75 5.3114 4.09241 4.7019 4.7019C4.09241 5.3114 3.75 6.13805 3.75 7C3.75 7.86195 4.09241 8.6886 4.7019 9.2981C5.3114 9.90759 6.13805 10.25 7 10.25C7.86195 10.25 8.6886 9.90759 9.2981 9.2981C9.90759 8.6886 10.25 7.86195 10.25 7C10.25 6.13805 9.90759 5.3114 9.2981 4.7019C8.6886 4.09241 7.86195 3.75 7 3.75ZM11.225 3.5875C11.225 3.37201 11.1394 3.16535 10.987 3.01298C10.8347 2.8606 10.628 2.775 10.4125 2.775C10.197 2.775 9.99035 2.8606 9.83797 3.01298C9.6856 3.16535 9.6 3.37201 9.6 3.5875C9.6 3.80299 9.6856 4.00965 9.83797 4.16202C9.99035 4.3144 10.197 4.4 10.4125 4.4C10.628 4.4 10.8347 4.3144 10.987 4.16202C11.1394 4.00965 11.225 3.80299 11.225 3.5875ZM7 5.05C7.51717 5.05 8.01316 5.25545 8.37886 5.62114C8.74455 5.98684 8.95 6.48283 8.95 7C8.95 7.51717 8.74455 8.01316 8.37886 8.37886C8.01316 8.74455 7.51717 8.95 7 8.95C6.48283 8.95 5.98684 8.74455 5.62114 8.37886C5.25545 8.01316 5.05 7.51717 5.05 7C5.05 6.48283 5.25545 5.98684 5.62114 5.62114C5.98684 5.25545 6.48283 5.05 7 5.05Z" fill="#110A1D"/>
</svg>
