<svg width="298" height="50" viewBox="0 0 298 50" fill="none" xmlns="http://www.w3.org/2000/svg">
<path d="M273.1 49.6169C266.822 49.6169 260.551 47.2296 255.771 42.4498C246.216 32.8954 246.216 17.352 255.771 7.79754C260.401 3.16695 266.555 0.620117 273.1 0.620117C279.644 0.620117 285.798 3.16695 290.428 7.79754C299.983 17.352 299.983 32.8954 290.428 42.4498C285.654 47.2245 279.377 49.6169 273.1 49.6169ZM257.057 41.1636C265.902 50.008 280.292 50.008 289.137 41.1636C297.981 32.3191 297.981 17.9282 289.137 9.08382C284.851 4.79795 279.155 2.4415 273.094 2.4415C267.033 2.4415 261.338 4.80309 257.052 9.08382C248.208 17.9282 248.208 32.3191 257.052 41.1636H257.057Z" fill="#9DADF2"/>
<path d="M272.775 34.2896C272.863 34.5005 273.069 34.6239 273.285 34.6239C273.357 34.6239 273.429 34.6085 273.501 34.5828C275.23 33.8573 276.804 32.7357 278.049 31.3362C278.25 31.1098 278.229 30.76 278.003 30.5594C277.776 30.3587 277.427 30.3793 277.226 30.6057C276.089 31.8868 274.653 32.9107 273.074 33.5692C272.796 33.6876 272.662 34.0117 272.78 34.2896H272.775Z" fill="#9DADF2"/>
<path d="M282.437 16.6521L273.299 12.999C273.166 12.9476 273.021 12.9476 272.888 12.999L263.75 16.6521C263.539 16.7344 263.405 16.9351 263.405 17.1614V23.706C263.416 29.7463 267.233 35.2053 272.903 37.2839C272.965 37.3045 273.027 37.3148 273.094 37.3148C273.16 37.3148 273.222 37.3045 273.284 37.2839C278.954 35.2002 282.771 29.7463 282.782 23.706V17.1614C282.782 16.9351 282.648 16.7344 282.437 16.6521ZM281.681 23.706C281.67 29.201 278.223 34.2071 273.099 36.1777C267.974 34.2071 264.522 29.201 264.511 23.706V17.537L273.099 14.1052L281.681 17.537V23.706Z" fill="#9DADF2"/>
<path d="M269.281 17.5114C269.148 17.4548 268.998 17.4548 268.859 17.5114L266.683 18.381C266.472 18.4633 266.338 18.664 266.338 18.8904V21.2108C266.338 21.5144 266.585 21.7613 266.889 21.7613C267.192 21.7613 267.439 21.5144 267.439 21.2108V19.2659L269.266 18.5354C269.405 18.4788 269.508 18.3758 269.57 18.2369C269.626 18.1031 269.626 17.954 269.57 17.815C269.513 17.6761 269.41 17.5732 269.276 17.5114H269.281Z" fill="#9DADF2"/>
<path d="M287.011 11.2086C283.296 7.48866 278.352 5.44604 273.094 5.44604C267.835 5.44604 262.896 7.4938 259.176 11.2086C251.505 18.8799 251.505 31.3671 259.176 39.0436C263.014 42.8818 268.051 44.7958 273.094 44.7958C278.136 44.7958 283.173 42.8767 287.011 39.0436C294.682 31.3722 294.682 18.8851 287.011 11.2086ZM284.289 23.706C284.305 30.6879 279.844 36.7952 273.191 38.9098C273.13 38.9304 273.063 38.9304 272.996 38.9098C266.343 36.7952 261.882 30.6879 261.898 23.706V15.9832C261.898 15.8546 261.975 15.7363 262.099 15.6848L272.975 11.3372C273.011 11.3218 273.052 11.3166 273.094 11.3166C273.135 11.3166 273.176 11.3218 273.212 11.3372L284.089 15.69C284.212 15.7363 284.289 15.8546 284.289 15.9884V23.7112V23.706Z" fill="#9DADF2"/>
<path d="M210.517 49.5373C197.011 49.5373 186.026 38.5473 186.026 25.0466C186.026 11.5458 197.016 0.555908 210.517 0.555908C224.017 0.555908 235.007 11.5458 235.007 25.0466C235.007 38.5473 224.017 49.5373 210.517 49.5373ZM210.517 2.1869C197.911 2.1869 187.657 12.4411 187.657 25.0466C187.657 37.6521 197.911 47.9063 210.517 47.9063C223.122 47.9063 233.376 37.6521 233.376 25.0466C233.376 12.4411 223.122 2.1869 210.517 2.1869Z" fill="white"/>
<path d="M218.46 9.75023C218.337 9.75023 218.213 9.72451 218.1 9.66792C215.728 8.49483 213.176 7.898 210.516 7.898C207.856 7.898 205.304 8.49483 202.933 9.66792C202.619 9.82227 202.243 9.7605 201.996 9.51354L197.787 5.30485C197.607 5.12477 197.525 4.8778 197.556 4.62569C197.587 4.37358 197.731 4.15235 197.947 4.02372C201.739 1.74959 206.087 0.550781 210.522 0.550781C214.957 0.550781 219.304 1.75474 223.096 4.02372C223.312 4.15235 223.456 4.37358 223.487 4.62569C223.518 4.8778 223.431 5.12477 223.256 5.30485L219.047 9.51354C218.887 9.66789 218.682 9.75023 218.466 9.75023H218.46ZM210.516 6.26698C213.228 6.26698 215.842 6.83295 218.291 7.94944L221.337 4.90355C218.023 3.1182 214.303 2.18177 210.516 2.18177C206.73 2.18177 203.01 3.1182 199.696 4.90355L202.742 7.94944C205.191 6.83295 207.805 6.26698 210.516 6.26698Z" fill="white"/>
<path d="M210.515 49.5372C206.08 49.5372 201.733 48.3333 197.941 46.0643C197.725 45.9357 197.581 45.7144 197.55 45.4623C197.519 45.2102 197.606 44.9632 197.781 44.7832L201.99 40.5744C202.237 40.3275 202.618 40.2657 202.926 40.4201C205.298 41.5932 207.85 42.19 210.51 42.19C213.17 42.19 215.722 41.5932 218.094 40.4201C218.408 40.2657 218.784 40.3275 219.031 40.5744L223.239 44.7832C223.419 44.9632 223.502 45.2102 223.471 45.4623C223.44 45.7144 223.296 45.9357 223.08 46.0643C219.288 48.3384 214.94 49.5372 210.505 49.5372H210.515ZM199.695 45.1845C203.009 46.9698 206.729 47.9062 210.515 47.9062C214.302 47.9062 218.022 46.9698 221.336 45.1845L218.29 42.1386C215.841 43.2551 213.227 43.821 210.515 43.821C207.804 43.821 205.19 43.2551 202.741 42.1386L199.695 45.1845Z" fill="white"/>
<path d="M230.835 38.0124C230.619 38.0124 230.414 37.93 230.259 37.7757L226.051 33.567C225.804 33.32 225.742 32.9393 225.896 32.6306C227.069 30.2587 227.666 27.7067 227.666 25.0467C227.666 22.3867 227.069 19.8347 225.896 17.4628C225.742 17.149 225.804 16.7682 226.051 16.5264L230.259 12.3177C230.439 12.1376 230.686 12.0553 230.938 12.0862C231.19 12.1171 231.412 12.2611 231.54 12.4772C233.814 16.2692 235.013 20.6168 235.013 25.0519C235.013 29.4869 233.814 33.8345 231.54 37.6265C231.412 37.8426 231.19 37.9866 230.938 38.0175C230.902 38.0175 230.871 38.0175 230.835 38.0175V38.0124ZM227.609 32.8158L230.655 35.8617C232.441 32.5483 233.377 28.8283 233.377 25.0416C233.377 21.2548 232.441 17.5349 230.655 14.2214L227.609 17.2673C228.726 19.7164 229.292 22.3301 229.292 25.0416C229.292 27.753 228.726 30.3668 227.609 32.8158Z" fill="white"/>
<path d="M190.199 38.0121C190.163 38.0121 190.132 38.0121 190.101 38.007C189.849 37.9761 189.627 37.832 189.499 37.616C187.225 33.824 186.026 29.4764 186.026 25.0413C186.026 20.6062 187.225 16.2587 189.499 12.4667C189.627 12.2506 189.849 12.1066 190.101 12.0757C190.353 12.0448 190.6 12.1323 190.78 12.3072L194.989 16.5159C195.236 16.7629 195.297 17.1436 195.143 17.4523C193.97 19.8242 193.373 22.3762 193.373 25.0362C193.373 27.6962 193.97 30.2482 195.143 32.6201C195.297 32.9339 195.236 33.3147 194.989 33.5565L190.78 37.7652C190.626 37.9195 190.42 38.007 190.204 38.007L190.199 38.0121ZM190.379 14.2212C188.593 17.5346 187.657 21.2545 187.657 25.0413C187.657 28.8281 188.593 32.548 190.379 35.8615L193.425 32.8156C192.308 30.3665 191.742 27.7528 191.742 25.0413C191.742 22.3299 192.308 19.7161 193.425 17.2671L190.379 14.2212Z" fill="white"/>
<path d="M210.517 6.26709C200.165 6.26709 191.738 14.6896 191.738 25.0467C191.738 35.4038 200.16 43.8263 210.517 43.8263C220.874 43.8263 229.297 35.4038 229.297 25.0467C229.297 14.6896 220.874 6.26709 210.517 6.26709ZM221.085 18.8777C221.975 20.4007 222.516 22.0626 222.69 23.8273C222.696 23.8994 222.665 23.9663 222.603 24.0023C221.26 24.8255 220.056 25.8339 219.017 27.0121C218.971 27.0687 218.893 27.0893 218.826 27.0636L216.506 26.3073C216.439 26.2867 216.393 26.2301 216.383 26.1581C216.12 24.2389 215.523 22.4022 214.608 20.694C214.577 20.6322 214.582 20.5602 214.623 20.5036L216.058 18.5279C216.094 18.4816 216.151 18.4507 216.208 18.4507C216.223 18.4507 216.233 18.4507 216.249 18.4507C217.782 18.7903 219.356 18.9035 220.921 18.7748C220.993 18.7697 221.059 18.8057 221.096 18.8674L221.085 18.8777ZM215.117 26.4822C215.122 26.5337 215.107 26.5851 215.076 26.6211C213.856 28.0257 212.303 29.1525 210.589 29.8728C210.543 29.8934 210.497 29.8934 210.45 29.8728C208.737 29.1474 207.183 28.0206 205.964 26.6211C205.933 26.5851 205.917 26.5337 205.923 26.4822C206.159 24.6197 206.741 22.8395 207.641 21.193C207.667 21.1467 207.708 21.1159 207.759 21.1056C208.665 20.9152 209.591 20.8175 210.522 20.8175C211.454 20.8175 212.38 20.9152 213.285 21.1056C213.337 21.1159 213.378 21.1467 213.404 21.193C214.304 22.8395 214.88 24.6197 215.122 26.4822H215.117ZM214.839 13.7121C214.839 13.7121 214.901 13.6606 214.963 13.6606C214.983 13.6606 215.009 13.6606 215.035 13.676C216.928 14.4272 218.621 15.6621 219.938 17.2416C220.005 17.3188 219.979 17.4011 219.964 17.432C219.953 17.4577 219.907 17.54 219.799 17.54C218.631 17.5555 217.468 17.4217 216.341 17.1541C216.295 17.1439 216.254 17.113 216.228 17.0718C215.626 16.0788 215.143 15.0086 214.793 13.8973C214.762 13.7995 214.818 13.7326 214.844 13.7121H214.839ZM207.919 13.0947C209.622 12.7293 211.418 12.7293 213.121 13.0947C213.187 13.1101 213.244 13.1615 213.259 13.2284C213.625 14.7565 214.216 16.2177 215.014 17.5709C215.05 17.6326 215.045 17.7098 215.004 17.7716L213.579 19.737C213.537 19.7936 213.465 19.8244 213.398 19.809C211.515 19.4283 209.524 19.4283 207.641 19.809C207.574 19.8244 207.502 19.7936 207.461 19.737L206.036 17.7716C205.995 17.715 205.989 17.6326 206.025 17.5709C206.823 16.2177 207.415 14.7565 207.78 13.2284C207.795 13.1615 207.852 13.1101 207.919 13.0947ZM201.102 17.2416C202.419 15.6569 204.112 14.4221 206.005 13.676C206.031 13.6658 206.056 13.6606 206.077 13.6606C206.144 13.6606 206.185 13.6966 206.2 13.7121C206.226 13.7378 206.283 13.7995 206.252 13.8973C205.902 15.0138 205.418 16.0788 204.816 17.0718C204.791 17.113 204.75 17.1439 204.703 17.1541C203.576 17.4217 202.414 17.5555 201.246 17.54C201.138 17.54 201.091 17.4577 201.081 17.432C201.066 17.4011 201.04 17.3188 201.107 17.2416H201.102ZM199.954 18.8777C199.985 18.8211 200.047 18.7851 200.114 18.7851C200.114 18.7851 200.124 18.7851 200.129 18.7851C201.698 18.9086 203.273 18.8006 204.801 18.461C204.873 18.4456 204.945 18.4713 204.986 18.533L206.422 20.5087C206.463 20.5653 206.468 20.6425 206.437 20.6991C205.521 22.4073 204.924 24.2441 204.662 26.1632C204.652 26.2301 204.605 26.2867 204.539 26.3124L202.218 27.0687C202.151 27.0893 202.074 27.0687 202.028 27.0173C200.988 25.8391 199.784 24.8306 198.442 24.0074C198.385 23.9714 198.349 23.9045 198.354 23.8325C198.529 22.0677 199.069 20.4007 199.959 18.8829L199.954 18.8777ZM200.515 31.5553C200.484 31.653 200.397 31.6736 200.361 31.6788C200.325 31.6788 200.242 31.6788 200.186 31.5964C199.09 29.8728 198.442 27.8765 198.313 25.8288C198.308 25.7259 198.375 25.6744 198.406 25.659C198.436 25.6435 198.519 25.6075 198.601 25.6693C199.553 26.3433 200.417 27.1356 201.174 28.0154C201.205 28.0515 201.22 28.0978 201.215 28.1492C201.122 29.3069 200.886 30.4542 200.51 31.5604L200.515 31.5553ZM205.598 36.2528C203.993 35.5479 202.578 34.5137 201.395 33.1863C201.349 33.1348 201.333 33.0576 201.359 32.9959C201.961 31.545 202.342 30.0169 202.491 28.4528C202.496 28.3807 202.547 28.319 202.614 28.2984L204.909 27.5524C204.909 27.5524 204.945 27.5421 204.966 27.5421C205.017 27.5421 205.063 27.5627 205.099 27.6038C206.386 29.0445 207.996 30.2175 209.761 30.9944C209.828 31.0253 209.869 31.0871 209.869 31.1591V33.5722C209.869 33.6442 209.828 33.7111 209.761 33.7368C208.32 34.3594 206.982 35.198 205.784 36.2219C205.732 36.2682 205.655 36.2785 205.593 36.2476L205.598 36.2528ZM213.692 36.7621C213.687 36.7981 213.661 36.8805 213.558 36.9062C211.572 37.4104 209.473 37.4104 207.487 36.9062C207.389 36.8805 207.358 36.7981 207.353 36.7621C207.348 36.7261 207.337 36.6438 207.425 36.5769C208.361 35.8823 209.38 35.3009 210.455 34.8533C210.502 34.8327 210.548 34.8327 210.594 34.8533C211.665 35.3009 212.683 35.8823 213.625 36.5769C213.707 36.6386 213.702 36.7261 213.697 36.7621H213.692ZM219.655 33.1914C218.472 34.5189 217.057 35.5479 215.451 36.2528C215.384 36.2836 215.312 36.2682 215.261 36.227C214.062 35.2032 212.73 34.3645 211.284 33.7419C211.217 33.7111 211.176 33.6493 211.176 33.5773V31.1642C211.176 31.0922 211.217 31.0253 211.284 30.9996C213.049 30.2227 214.664 29.0496 215.945 27.609C215.981 27.5678 216.028 27.5473 216.079 27.5473C216.1 27.5473 216.115 27.5472 216.136 27.5575L218.43 28.3036C218.497 28.3242 218.549 28.3859 218.554 28.4579C218.703 30.022 219.084 31.545 219.686 33.0011C219.711 33.0628 219.701 33.14 219.65 33.1914H219.655ZM220.859 31.6016C220.802 31.689 220.715 31.6891 220.684 31.6839C220.648 31.6839 220.566 31.6582 220.53 31.5604C220.159 30.4542 219.922 29.3069 219.825 28.1492C219.825 28.1029 219.835 28.0515 219.866 28.0154C220.622 27.1356 221.487 26.3484 222.438 25.6693C222.474 25.6436 222.51 25.6333 222.541 25.6333C222.582 25.6333 222.613 25.6487 222.634 25.659C222.665 25.6744 222.737 25.7259 222.726 25.8288C222.598 27.8765 221.95 29.8728 220.854 31.5964L220.859 31.6016Z" fill="white"/>
<path d="M149.488 49.6169C143.211 49.6169 136.94 47.2296 132.16 42.4498C122.605 32.8953 122.605 17.352 132.16 7.79754C136.79 3.16695 142.944 0.620117 149.488 0.620117C156.033 0.620117 162.187 3.16695 166.817 7.79754C176.372 17.352 176.372 32.8953 166.817 42.4498C162.042 47.2245 155.765 49.6169 149.488 49.6169ZM133.446 41.1635C142.29 50.008 156.681 50.008 165.526 41.1635C174.37 32.3191 174.37 17.9282 165.526 9.08382C161.24 4.79795 155.544 2.4415 149.483 2.4415C143.422 2.4415 137.727 4.80309 133.441 9.08382C124.596 17.9282 124.596 32.3191 133.441 41.1635H133.446Z" fill="#9DADF2"/>
<path d="M149.164 34.2949C149.252 34.5059 149.458 34.6294 149.674 34.6294C149.746 34.6294 149.818 34.6139 149.89 34.5882C151.619 33.8627 153.193 32.7411 154.438 31.3416C154.639 31.1153 154.618 30.7654 154.392 30.5647C154.166 30.3641 153.816 30.3847 153.615 30.611C152.478 31.8922 151.042 32.916 149.463 33.5746C149.185 33.6929 149.051 34.0171 149.17 34.2949H149.164Z" fill="#9DADF2"/>
<path d="M158.826 16.6521L149.688 12.999C149.555 12.9476 149.411 12.9476 149.277 12.999L140.139 16.6521C139.928 16.7344 139.794 16.9351 139.794 17.1614V23.706C139.805 29.7463 143.622 35.2053 149.292 37.2839C149.354 37.3045 149.416 37.3148 149.483 37.3148C149.55 37.3148 149.611 37.3045 149.673 37.2839C155.343 35.2002 159.161 29.7463 159.171 23.706V17.1614C159.171 16.9351 159.037 16.7344 158.826 16.6521ZM158.07 23.706C158.06 29.201 154.612 34.2071 149.488 36.1777C144.363 34.2071 140.911 29.201 140.901 23.706V17.537L149.488 14.1052L158.07 17.537V23.706Z" fill="#9DADF2"/>
<path d="M145.67 17.5114C145.537 17.4548 145.387 17.4548 145.248 17.5114L143.072 18.381C142.861 18.4633 142.727 18.6639 142.727 18.8903V21.2108C142.727 21.5143 142.974 21.7613 143.278 21.7613C143.581 21.7613 143.828 21.5143 143.828 21.2108V19.2659L145.655 18.5353C145.794 18.4787 145.897 18.3758 145.958 18.2369C146.015 18.1031 146.015 17.9539 145.958 17.815C145.902 17.6761 145.799 17.5732 145.665 17.5114H145.67Z" fill="#9DADF2"/>
<path d="M163.4 11.2086C159.685 7.48866 154.741 5.44604 149.483 5.44604C144.224 5.44604 139.285 7.4938 135.565 11.2086C127.894 18.8799 127.894 31.3671 135.565 39.0436C139.403 42.8818 144.44 44.7958 149.483 44.7958C154.525 44.7958 159.562 42.8767 163.4 39.0436C171.071 31.3722 171.071 18.8851 163.4 11.2086ZM160.678 23.706C160.694 30.6879 156.233 36.7951 149.58 38.9098C149.519 38.9304 149.452 38.9304 149.385 38.9098C142.732 36.7951 138.271 30.6879 138.287 23.706V15.9832C138.287 15.8546 138.364 15.7363 138.487 15.6848L149.364 11.3372C149.4 11.3218 149.441 11.3166 149.483 11.3166C149.524 11.3166 149.565 11.3218 149.601 11.3372L160.478 15.69C160.601 15.7363 160.678 15.8546 160.678 15.9884V23.7112V23.706Z" fill="#9DADF2"/>
<path d="M89.0361 49.4045C75.5302 49.4045 64.5454 38.4145 64.5454 24.9138C64.5454 11.413 75.5354 0.423096 89.0361 0.423096C102.537 0.423096 113.527 11.413 113.527 24.9138C113.527 38.4145 102.537 49.4045 89.0361 49.4045ZM89.0361 2.05408C76.4306 2.05408 66.1764 12.3083 66.1764 24.9138C66.1764 37.5193 76.4306 47.7735 89.0361 47.7735C101.642 47.7735 111.896 37.5193 111.896 24.9138C111.896 12.3083 101.642 2.05408 89.0361 2.05408Z" fill="#478BF9"/>
<path d="M105.013 7.44155L97.4309 15.0234L98.9226 16.5151L106.504 8.9332L105.013 7.44155Z" fill="#478BF9"/>
<path d="M78.9166 33.537L71.3347 41.1189L72.8263 42.6105L80.4082 35.0287L78.9166 33.537Z" fill="#478BF9"/>
<path d="M99.1523 33.5442L97.6606 35.0359L105.243 42.6178L106.734 41.1261L99.1523 33.5442Z" fill="#478BF9"/>
<path d="M72.8244 7.21321L71.3328 8.70483L78.911 16.2831L80.4026 14.7915L72.8244 7.21321Z" fill="#478BF9"/>
<path d="M95.0095 25.5724C95.5034 25.0785 95.5034 24.281 95.0095 23.7922L93.9599 22.7478C93.4659 22.2539 92.6685 22.2539 92.1797 22.7478L91.6137 23.3137L90.9603 22.6603C90.4664 22.1664 89.6689 22.1664 89.1801 22.6603L88.6141 23.2314L87.9607 22.5728C87.4668 22.0789 86.6693 22.0789 86.1805 22.5728L82.7075 26.0458C82.6818 26.0715 82.6818 26.1127 82.7075 26.1435C83.1706 26.6066 83.9269 26.6066 84.3951 26.1435L86.6332 23.9054C86.8751 23.6636 87.2661 23.6636 87.5079 23.9054L87.6726 24.0701C87.7034 24.1009 87.7034 24.1472 87.6726 24.1781L85.8049 26.0458C85.7792 26.0715 85.7792 26.1127 85.8049 26.1435C86.2679 26.6066 87.0243 26.6066 87.4925 26.1435L89.638 23.998C89.8798 23.7562 90.2708 23.7562 90.5127 23.998L90.6773 24.1627C90.703 24.1884 90.703 24.2296 90.6773 24.2604L88.8765 26.0612C88.8508 26.087 88.8508 26.1281 88.8765 26.159C89.3396 26.6221 90.0959 26.6221 90.5641 26.159L92.6376 24.0855C92.8794 23.8437 93.2704 23.8437 93.5122 24.0855L93.8673 24.4405C94.0062 24.5794 94.0062 24.811 93.8673 24.9499L93.8107 25.0065C93.6717 25.1454 93.4402 25.1454 93.3013 25.0065L92.8434 24.5486C92.8177 24.5228 92.7765 24.5228 92.7456 24.5486L91.9533 25.3409C91.9276 25.3666 91.9276 25.4078 91.9533 25.4387L92.6685 26.1538C93.1624 26.6478 93.9599 26.6478 94.4487 26.1538L95.0146 25.5879L95.0095 25.5724Z" fill="#478BF9"/>
<path d="M89.0367 6.13403C78.6642 6.13403 70.2571 14.5411 70.2571 24.9137C70.2571 35.2862 78.6642 43.6933 89.0367 43.6933C99.4092 43.6933 107.816 35.2862 107.816 24.9137C107.816 14.5411 99.4092 6.13403 89.0367 6.13403ZM89.8033 11.9326C92.8183 12.1075 95.5555 13.3114 97.6753 15.1946L94.9638 17.906C93.5489 16.7072 91.7636 15.9303 89.8033 15.7657V11.9326ZM88.2752 11.9326V15.7657C86.3149 15.9252 84.5296 16.7072 83.1147 17.906L80.4032 15.1946C82.523 13.3114 85.2602 12.1075 88.2752 11.9326ZM79.3227 16.275L82.0342 18.9865C80.8354 20.4014 80.0585 22.1868 79.8938 24.147H76.0607C76.2357 21.132 77.4396 18.3948 79.3227 16.275ZM76.0607 25.6752H79.8938C80.0533 27.6354 80.8354 29.4208 82.0342 30.8357L79.3227 33.5472C77.4396 31.4274 76.2357 28.6902 76.0607 25.6752ZM88.2752 37.8896C85.2602 37.7147 82.523 36.5107 80.4032 34.6276L83.1147 31.9161C84.5296 33.1149 86.3149 33.8919 88.2752 34.0565V37.8896ZM81.1441 24.9085C81.1441 20.5506 84.6788 17.0159 89.0367 17.0159C93.3946 17.0159 96.9293 20.5506 96.9293 24.9085C96.9293 29.2664 93.3946 32.8011 89.0367 32.8011C84.6788 32.8011 81.1441 29.2664 81.1441 24.9085ZM89.8033 37.8896V34.0565C91.7636 33.897 93.5489 33.1149 94.9638 31.9161L97.6753 34.6276C95.5555 36.5107 92.8183 37.7147 89.8033 37.8896ZM98.7558 33.5472L96.0443 30.8357C97.2431 29.4208 98.02 27.6354 98.1847 25.6752H102.018C101.843 28.6902 100.639 31.4274 98.7558 33.5472ZM98.1847 24.147C98.0252 22.1868 97.2431 20.4014 96.0443 18.9865L98.7558 16.275C100.639 18.3948 101.843 21.132 102.018 24.147H98.1847Z" fill="#478BF9"/>
<path d="M7.22549 42.1674C-2.4085 32.5334 -2.4085 16.8595 7.22549 7.22549C16.8595 -2.4085 32.5334 -2.4085 42.1674 7.22549C51.8014 16.8595 51.8014 32.5334 42.1674 42.1674C32.5334 51.8014 16.8595 51.8014 7.22549 42.1674ZM41.003 8.38991C32.011 -0.602124 17.3819 -0.602124 8.39224 8.38991C-0.599786 17.3819 -0.599786 32.011 8.39224 41.0007C17.3843 49.9927 32.0133 49.9927 41.003 41.0007C49.995 32.0086 49.995 17.3796 41.003 8.38991Z" fill="white"/>
<path d="M41.2696 19.4553C41.1829 19.3686 41.1126 19.2585 41.0728 19.1366C40.2177 16.6063 38.8213 14.3642 36.9235 12.4664C35.0281 10.571 32.7836 9.17465 30.2533 8.31715C29.9183 8.20235 29.6934 7.89075 29.6934 7.53697V1.53213C29.6934 1.2791 29.8105 1.04012 30.0096 0.883148C30.2111 0.726174 30.4712 0.672291 30.7149 0.733206C35.0398 1.81562 38.9993 4.06011 42.1622 7.22536C45.3251 10.3906 47.5697 14.3478 48.6521 18.6728C48.713 18.9188 48.6568 19.1788 48.5021 19.3803C48.3452 19.5818 48.1062 19.6966 47.8531 19.6966H41.8483C41.6234 19.6966 41.4172 19.6052 41.2649 19.4529L41.2696 19.4553ZM38.0879 11.302C40.0232 13.2372 41.4828 15.5052 42.434 18.0495H46.7778C45.686 14.4134 43.7015 11.0911 41.0002 8.38978C38.2988 5.68843 34.9766 3.704 31.3428 2.61455V6.95828C33.8872 7.90715 36.1551 9.36677 38.0903 11.3043L38.0879 11.302Z" fill="white"/>
<path d="M7.22476 42.1671C4.06185 39.0042 1.81501 35.0447 0.732593 30.7198C0.671677 30.4738 0.72791 30.2137 0.882541 30.0145C1.03952 29.8131 1.27848 29.6982 1.53151 29.6982H7.53635C7.89013 29.6982 8.20408 29.9232 8.31654 30.2582C9.1717 32.7885 10.5681 35.0307 12.4658 36.9284C14.3612 38.8238 16.6057 40.2202 19.136 41.0777C19.4711 41.1901 19.696 41.5041 19.696 41.8579V47.8627C19.696 48.1157 19.5788 48.3547 19.3797 48.5117C19.1782 48.6687 18.9181 48.7225 18.6721 48.6616C14.3471 47.5792 10.39 45.3347 7.22476 42.1718V42.1671ZM2.6116 31.343C3.70339 34.9791 5.68781 38.3014 8.38917 41.0027C11.0905 43.7041 14.4128 45.6885 18.0489 46.7803V42.4366C15.5046 41.4877 13.2366 40.0281 11.3014 38.0928C9.36616 36.1576 7.90654 33.8897 6.95532 31.3453H2.6116V31.343Z" fill="white"/>
<path d="M29.9383 48.4417C29.7837 48.2871 29.697 48.0785 29.697 47.8583V41.8535C29.697 41.4997 29.9219 41.1857 30.257 41.0733C32.7873 40.2181 35.0294 38.8218 36.9272 36.924C38.8249 35.0263 40.2189 32.7841 41.0764 30.2538C41.1889 29.9188 41.5029 29.6938 41.8567 29.6938H47.8615C48.1145 29.6938 48.3535 29.811 48.5105 30.0101C48.6675 30.2093 48.7213 30.4717 48.6604 30.7153C47.5757 35.0403 45.3312 38.9975 42.1682 42.1627C39.0053 45.328 35.0458 47.5725 30.7209 48.6549C30.4749 48.7158 30.2148 48.6596 30.0157 48.5049C29.9899 48.4815 29.9641 48.4604 29.9407 48.437L29.9383 48.4417ZM31.3441 42.4345V46.7782C34.9803 45.6864 38.3025 43.702 41.0038 41.0007C43.7052 38.2993 45.6873 34.9771 46.7814 31.3409H42.4377C41.4888 33.8853 40.0292 36.1509 38.0916 38.0884C36.1564 40.0237 33.8885 41.4856 31.3441 42.4345Z" fill="white"/>
<path d="M0.948503 19.4554C0.925074 19.432 0.901652 19.4062 0.882909 19.3804C0.725935 19.1813 0.672045 18.9189 0.732961 18.6729C1.81538 14.3479 4.05988 10.3884 7.22513 7.22549C10.3904 4.06258 14.3475 1.81574 18.6725 0.733326C18.9185 0.672411 19.1786 0.728637 19.3777 0.883268C19.5769 1.04024 19.694 1.27922 19.694 1.53225V7.53709C19.694 7.89087 19.4691 8.20482 19.1341 8.31728C16.6037 9.17243 14.3616 10.5688 12.4638 12.4665C10.5684 14.3619 9.17206 16.6064 8.31456 19.1368C8.20211 19.4718 7.88817 19.6967 7.53439 19.6967H1.52955C1.30932 19.6967 1.09845 19.61 0.946158 19.4577L0.948503 19.4554ZM18.047 2.61467C14.4108 3.70646 11.0886 5.69089 8.38719 8.39225C5.68584 11.0936 3.70375 14.4158 2.60962 18.052H6.95334C7.90222 15.5076 9.36184 13.242 11.2994 11.3045C13.2346 9.36924 15.5026 7.90961 18.047 6.9584V2.61467Z" fill="white"/>
<path d="M38.0898 11.3022C30.705 3.91737 18.686 3.91503 11.3012 11.3022C3.91405 18.6893 3.9164 30.706 11.3012 38.0908C18.686 45.4756 30.7027 45.478 38.0898 38.0908C45.477 30.7037 45.4747 18.687 38.0898 11.3022Z" fill="white"/>
<path d="M31.5272 31.4576L17.92 31.5478C17.3468 31.5516 16.8852 32.0194 16.889 32.5926L16.8922 33.0775C16.896 33.6507 17.3638 34.1123 17.937 34.1085L31.5442 34.0183C32.1174 34.0145 32.579 33.5467 32.5752 32.9735L32.572 32.4886C32.5682 31.9153 32.1004 31.4538 31.5272 31.4576Z" fill="#110A1D"/>
<path d="M19.7738 23.244C19.6262 23.244 19.4762 23.2112 19.3403 23.1456L18.279 22.6325C17.8174 22.4076 17.6066 21.8617 17.7987 21.386L18.286 20.1724C18.436 19.8023 18.7897 19.5609 19.188 19.5586C19.3591 19.5586 19.5278 19.6008 19.6777 19.6875L20.9429 20.4091C21.1795 20.5426 21.3505 20.7746 21.4114 21.0416C21.4724 21.3087 21.4185 21.5899 21.2638 21.8148L20.5704 22.8199C20.39 23.0823 20.0901 23.2416 19.7714 23.2416L19.7738 23.244Z" fill="#110A1D"/>
<path d="M29.5683 23.1783C29.2497 23.1783 28.9475 23.026 28.7647 22.7659L28.0782 21.7983C27.9189 21.5757 27.8627 21.2946 27.9189 21.0275C27.9752 20.7604 28.1439 20.5261 28.3805 20.3879L29.6855 19.6217C29.8331 19.5351 30.0018 19.4882 30.1728 19.4859C30.5711 19.4835 30.9296 19.7201 31.0842 20.088L31.5762 21.2665C31.773 21.7397 31.5692 22.2903 31.1123 22.5199L30.0018 23.0752C29.8682 23.1408 29.7183 23.1783 29.5707 23.1783H29.5683Z" fill="#110A1D"/>
<path d="M18.7046 30.638C18.1072 30.6427 17.5706 30.2679 17.3668 29.7056L15.0966 23.4571C14.9513 23.5274 14.7967 23.5812 14.6397 23.6211C14.4546 23.6679 14.2672 23.6914 14.0774 23.6914C13.9673 23.6914 13.8595 23.6867 13.7541 23.6726C12.5709 23.5227 11.6736 22.5082 11.6666 21.3133C11.6572 19.9919 12.7255 18.9095 14.0469 18.9001C15.3683 18.8908 16.4507 19.9591 16.4578 21.2805C16.4578 21.5851 16.4062 21.878 16.2984 22.1521C16.2399 22.302 16.1673 22.4449 16.0829 22.5808L20.4009 24.6707L23.7044 19.8842C23.5661 19.8256 23.4326 19.753 23.306 19.6663C23.0671 19.5046 22.8586 19.3031 22.6899 19.0665C22.404 18.6635 22.2494 18.1879 22.2471 17.6959C22.2377 16.3745 23.3061 15.2921 24.6274 15.2827C24.686 15.2827 24.7469 15.2827 24.8055 15.2874C25.9887 15.3671 26.9446 16.3159 27.0313 17.4991C27.0711 18.059 26.9235 18.5956 26.6049 19.0524C26.4362 19.2914 26.23 19.4952 25.9933 19.6569C25.8692 19.7436 25.7356 19.8162 25.5974 19.8748L28.9595 24.6121L33.2071 22.4871C33.1275 22.3348 33.0642 22.1755 33.0174 22.0092C32.9611 21.8077 32.9307 21.5968 32.9307 21.3836C32.9307 21.2875 32.9354 21.1915 32.9447 21.0978C33.0806 19.8935 34.0974 18.9798 35.3087 18.9728C36.6301 18.9634 37.7125 20.0318 37.7195 21.3532C37.7289 22.6136 36.7496 23.6726 35.4914 23.7593L35.3415 23.764C35.0978 23.764 34.8589 23.7312 34.6269 23.6609C34.477 23.614 34.3317 23.5555 34.1958 23.4805L32.0638 29.6072C31.8693 30.1718 31.3351 30.5514 30.7377 30.556L18.7046 30.6357V30.638Z" fill="#110A1D"/>
</svg>
