<svg width="101" height="594" viewBox="0 0 101 594" fill="none" xmlns="http://www.w3.org/2000/svg">
<path d="M15.4923 578.48C-3.99743 558.99 -3.99743 527.281 15.4923 507.792C34.982 488.302 66.6907 488.302 86.1804 507.792C105.67 527.281 105.67 558.99 86.1804 578.48C66.6907 597.97 34.982 597.97 15.4923 578.48ZM83.8248 510.147C65.6338 491.956 36.039 491.956 17.8527 510.147C-0.338378 528.338 -0.338378 557.933 17.8527 576.119C36.0437 594.31 65.6385 594.31 83.8248 576.119C102.016 557.928 102.016 528.334 83.8248 510.147Z" fill="white"/>
<path d="M84.364 532.533C84.1887 532.358 84.0465 532.135 83.9659 531.888C82.2359 526.769 79.411 522.234 75.5718 518.394C71.7374 514.56 67.1968 511.735 62.0779 510C61.4001 509.768 60.9451 509.138 60.9451 508.422V496.274C60.9451 495.762 61.182 495.279 61.5849 494.961C61.9925 494.644 62.5186 494.535 63.0116 494.658C71.7611 496.848 79.7712 501.388 86.1698 507.792C92.5685 514.195 97.1091 522.2 99.2989 530.95C99.4221 531.448 99.3084 531.974 98.9955 532.381C98.678 532.789 98.1945 533.021 97.6826 533.021H85.5347C85.0797 533.021 84.6626 532.836 84.3545 532.528L84.364 532.533ZM77.9275 516.039C81.8425 519.954 84.7953 524.542 86.7197 529.689H95.5071C93.2984 522.333 89.2839 515.612 83.819 510.147C78.3541 504.682 71.6332 500.668 64.2818 498.464V507.251C69.4292 509.171 74.0172 512.124 77.9322 516.043L77.9275 516.039Z" fill="white"/>
<path d="M15.4909 578.48C9.09225 572.081 4.54685 564.071 2.3571 555.321C2.23386 554.824 2.34762 554.298 2.66045 553.895C2.97801 553.487 3.46144 553.255 3.97333 553.255H16.1212C16.8369 553.255 17.4721 553.71 17.6996 554.388C19.4296 559.507 22.2544 564.043 26.0936 567.882C29.928 571.716 34.4687 574.541 39.5876 576.276C40.2654 576.503 40.7204 577.138 40.7204 577.854V590.002C40.7204 590.514 40.4834 590.997 40.0805 591.315C39.6729 591.632 39.1468 591.741 38.6491 591.618C29.8996 589.428 21.8942 584.888 15.4909 578.489V578.48ZM6.15836 556.582C8.36707 563.938 12.3816 570.659 17.8465 576.124C23.3114 581.589 30.0323 585.603 37.3884 587.812V579.025C32.241 577.105 27.653 574.152 23.738 570.237C19.823 566.322 16.8701 561.734 14.9458 556.587H6.15836V556.582Z" fill="white"/>
<path d="M61.4411 591.173C61.1283 590.86 60.9529 590.438 60.9529 589.993V577.845C60.9529 577.129 61.4079 576.494 62.0857 576.266C67.2046 574.536 71.7405 571.712 75.5796 567.872C79.4188 564.033 82.2389 559.497 83.9737 554.378C84.2012 553.701 84.8363 553.246 85.552 553.246H97.6999C98.2118 553.246 98.6953 553.483 99.0128 553.885C99.3304 554.288 99.4394 554.819 99.3162 555.312C97.1217 564.062 92.581 572.067 86.1824 578.47C79.7838 584.874 71.7737 589.414 63.0241 591.604C62.5265 591.727 62.0004 591.614 61.5975 591.301C61.5453 591.253 61.4932 591.211 61.4458 591.163L61.4411 591.173ZM64.2849 579.02V587.808C71.641 585.599 78.3619 581.584 83.8268 576.119C89.2917 570.655 93.3015 563.934 95.5149 556.578H86.7275C84.8079 561.725 81.855 566.308 77.9353 570.228C74.0203 574.143 69.4323 577.101 64.2849 579.02Z" fill="white"/>
<path d="M2.79389 532.533C2.74649 532.486 2.69911 532.433 2.66119 532.381C2.34363 531.978 2.23461 531.448 2.35784 530.95C4.54759 522.2 9.08825 514.19 15.4916 507.792C21.895 501.393 29.9003 496.848 38.6498 494.658C39.1475 494.535 39.6736 494.648 40.0765 494.961C40.4794 495.279 40.7164 495.762 40.7164 496.274V508.422C40.7164 509.138 40.2614 509.773 39.5836 510C34.4647 511.73 29.9288 514.555 26.0896 518.394C22.2552 522.229 19.4303 526.769 17.6956 531.888C17.4681 532.566 16.833 533.021 16.1173 533.021H3.96936C3.52382 533.021 3.09723 532.846 2.78914 532.538L2.79389 532.533ZM37.3844 498.464C30.0283 500.673 23.3074 504.687 17.8425 510.152C12.3776 515.617 8.36781 522.338 6.15436 529.694H14.9418C16.8614 524.547 19.8142 519.963 23.734 516.043C27.649 512.128 32.237 509.176 37.3844 507.251V498.464Z" fill="white"/>
<path d="M77.9316 516.039C62.9921 501.099 38.6773 501.094 23.7377 516.039C8.79339 530.983 8.79813 555.293 23.7377 570.233C38.6773 585.172 62.9873 585.177 77.9316 570.233C92.876 555.288 92.8712 530.978 77.9316 516.039Z" fill="white"/>
<path d="M64.6544 556.813L37.1268 556.996C35.9672 557.004 35.0333 557.95 35.041 559.109L35.0475 560.091C35.0552 561.25 36.0015 562.184 37.1611 562.176L64.6888 561.994C65.8484 561.986 66.7822 561.04 66.7745 559.88L66.768 558.899C66.7603 557.739 65.814 556.806 64.6544 556.813Z" fill="#110A1D"/>
<path d="M40.8773 540.197C40.5787 540.197 40.2754 540.131 40.0005 539.998L37.8534 538.96C36.9197 538.505 36.4931 537.401 36.8817 536.439L37.8676 533.984C38.171 533.235 38.8867 532.746 39.6924 532.742C40.0384 532.742 40.3797 532.827 40.683 533.002L43.2425 534.462C43.7212 534.732 44.0672 535.202 44.1904 535.742C44.3136 536.282 44.2046 536.851 43.8918 537.306L42.4889 539.339C42.1239 539.87 41.5172 540.193 40.8726 540.193L40.8773 540.197Z" fill="#110A1D"/>
<path d="M60.6922 540.065C60.0476 540.065 59.4362 539.756 59.0665 539.23L57.6777 537.273C57.3554 536.823 57.2417 536.254 57.3555 535.713C57.4692 535.173 57.8105 534.699 58.2892 534.42L60.9292 532.87C61.2278 532.694 61.5691 532.6 61.9151 532.595C62.7208 532.59 63.446 533.069 63.7588 533.813L64.7542 536.197C65.1523 537.154 64.7399 538.268 63.8157 538.733L61.5691 539.856C61.2989 539.989 60.9955 540.065 60.6969 540.065H60.6922Z" fill="#110A1D"/>
<path d="M38.7148 555.156C37.5061 555.165 36.4208 554.407 36.0084 553.269L31.4156 540.628C31.1218 540.771 30.8089 540.88 30.4914 540.96C30.1169 541.055 29.7377 541.102 29.3538 541.102C29.1311 541.102 28.913 541.093 28.6997 541.064C26.3062 540.761 24.4909 538.709 24.4767 536.292C24.4577 533.618 26.619 531.429 29.2922 531.41C31.9654 531.391 34.1552 533.552 34.1694 536.225C34.1694 536.841 34.0651 537.434 33.8471 537.988C33.7286 538.292 33.5817 538.581 33.411 538.856L42.1463 543.084L48.8294 533.4C48.5497 533.282 48.2795 533.135 48.0236 532.96C47.5401 532.633 47.1183 532.225 46.777 531.746C46.1988 530.931 45.886 529.969 45.8812 528.973C45.8623 526.3 48.0236 524.111 50.6968 524.092C50.8153 524.092 50.9385 524.092 51.057 524.101C53.4506 524.262 55.3844 526.182 55.5597 528.575C55.6403 529.708 55.3417 530.794 54.6971 531.718C54.3559 532.201 53.9387 532.614 53.46 532.941C53.2088 533.116 52.9387 533.263 52.659 533.381L59.4605 542.965L68.0536 538.666C67.8925 538.358 67.7645 538.036 67.6697 537.699C67.556 537.292 67.4944 536.865 67.4944 536.434C67.4944 536.239 67.5038 536.045 67.5228 535.856C67.7977 533.419 69.8547 531.571 72.3051 531.557C74.9783 531.538 77.1681 533.699 77.1823 536.372C77.2013 538.922 75.2201 541.064 72.6749 541.24L72.3715 541.249C71.8786 541.249 71.3952 541.183 70.9259 541.041C70.6226 540.946 70.3287 540.827 70.0538 540.676L65.7406 553.07C65.3473 554.212 64.2666 554.98 63.0579 554.99L38.7148 555.151V555.156Z" fill="#110A1D"/>
<path d="M49.9826 472C37.2841 472 24.5959 467.171 14.9263 457.501C-4.40252 438.172 -4.40252 406.728 14.9263 387.399C24.2941 378.031 36.7428 372.879 49.9826 372.879C63.2224 372.879 75.6711 378.031 85.0389 387.399C104.368 406.728 104.368 438.172 85.0389 457.501C75.3797 467.16 62.6811 472 49.9826 472ZM17.5285 454.899C35.4209 472.791 64.5339 472.791 82.4263 454.899C100.319 437.006 100.319 407.893 82.4263 390.001C73.7559 381.33 62.2335 376.563 49.9722 376.563C37.7108 376.563 26.1884 381.341 17.5181 390.001C-0.374391 407.893 -0.374391 437.006 17.5181 454.899H17.5285Z" fill="#9DADF2"/>
<path d="M49.3269 440.993C49.5039 441.42 49.9202 441.669 50.3574 441.669C50.5031 441.669 50.6489 441.638 50.7946 441.586C54.2919 440.118 57.4769 437.849 59.9958 435.018C60.4017 434.56 60.3601 433.853 59.9021 433.447C59.4441 433.041 58.7364 433.082 58.3304 433.54C56.0301 436.132 53.1261 438.203 49.9306 439.536C49.3686 439.775 49.0979 440.431 49.3373 440.993H49.3269Z" fill="#9DADF2"/>
<path d="M68.8729 405.312L50.3872 397.922C50.1166 397.818 49.8251 397.818 49.5545 397.922L31.0688 405.312C30.642 405.479 30.3713 405.885 30.3713 406.343V419.582C30.3922 431.802 38.1154 442.846 49.5857 447.051C49.7106 447.092 49.8355 447.113 49.9708 447.113C50.1061 447.113 50.231 447.092 50.3559 447.051C61.8263 442.835 69.5495 431.802 69.5703 419.582V406.343C69.5703 405.885 69.2997 405.479 68.8729 405.312ZM67.3428 419.582C67.322 430.699 60.3482 440.826 49.9812 444.813C39.6142 440.826 32.63 430.699 32.6092 419.582V407.102L49.9812 400.16L67.3428 407.102V419.582Z" fill="#9DADF2"/>
<path d="M42.2585 407.05C41.9878 406.936 41.686 406.936 41.4049 407.05L37.0021 408.809C36.5754 408.976 36.3047 409.382 36.3047 409.84V414.534C36.3047 415.148 36.8043 415.648 37.4184 415.648C38.0325 415.648 38.5322 415.148 38.5322 414.534V410.6L42.2272 409.122C42.5082 409.007 42.7164 408.799 42.8413 408.518C42.9558 408.247 42.9558 407.945 42.8413 407.664C42.7268 407.383 42.5187 407.175 42.248 407.05H42.2585Z" fill="#9DADF2"/>
<path d="M78.1259 394.3C70.6109 386.774 60.6082 382.642 49.9706 382.642C39.333 382.642 29.3407 386.785 21.8152 394.3C6.29596 409.819 6.29596 435.081 21.8152 450.611C29.5801 458.375 39.7701 462.247 49.9706 462.247C60.171 462.247 70.3611 458.365 78.1259 450.611C93.6452 435.091 93.6452 409.829 78.1259 394.3ZM72.6198 419.582C72.651 433.707 63.6267 446.062 50.1684 450.34C50.0434 450.382 49.9081 450.382 49.7728 450.34C36.3144 446.062 27.2902 433.707 27.3214 419.582V403.959C27.3214 403.699 27.4775 403.459 27.7273 403.355L49.7312 394.56C49.8041 394.529 49.8873 394.518 49.9706 394.518C50.0539 394.518 50.1371 394.529 50.21 394.56L72.2138 403.366C72.4636 403.459 72.6198 403.699 72.6198 403.969V419.593V419.582Z" fill="#9DADF2"/>
<path d="M50.1272 345.389C22.8045 345.389 0.582031 323.156 0.582031 295.844C0.582031 268.532 22.8149 246.299 50.1272 246.299C77.4394 246.299 99.6723 268.532 99.6723 295.844C99.6723 323.156 77.4394 345.389 50.1272 345.389ZM50.1272 249.599C24.626 249.599 3.88161 270.343 3.88161 295.844C3.88161 321.345 24.626 342.09 50.1272 342.09C75.6283 342.09 96.3727 321.345 96.3727 295.844C96.3727 270.343 75.6283 249.599 50.1272 249.599Z" fill="white"/>
<path d="M66.1977 264.899C65.9479 264.899 65.698 264.847 65.4691 264.733C60.6707 262.36 55.508 261.152 50.1267 261.152C44.7455 261.152 39.5828 262.36 34.7844 264.733C34.1495 265.045 33.3897 264.92 32.89 264.421L24.3758 255.906C24.0115 255.542 23.8449 255.042 23.9074 254.532C23.9698 254.022 24.2613 253.575 24.6985 253.315C32.3696 248.714 41.1649 246.289 50.1372 246.289C59.1094 246.289 67.9047 248.724 75.5759 253.315C76.013 253.575 76.3044 254.022 76.3669 254.532C76.4293 255.042 76.2524 255.542 75.8985 255.906L67.3842 264.421C67.0615 264.733 66.6453 264.899 66.2081 264.899H66.1977ZM50.1267 257.853C55.6121 257.853 60.8997 258.998 65.8542 261.256L72.0161 255.095C65.3129 251.483 57.7875 249.588 50.1267 249.588C42.466 249.588 34.9405 251.483 28.2373 255.095L34.3993 261.256C39.3538 258.998 44.6414 257.853 50.1267 257.853Z" fill="white"/>
<path d="M50.1249 345.389C41.1527 345.389 32.3574 342.954 24.6862 338.363C24.2491 338.103 23.9576 337.656 23.8952 337.146C23.8327 336.636 24.0097 336.136 24.3636 335.772L32.8778 327.257C33.3774 326.758 34.1477 326.633 34.7722 326.945C39.5706 329.318 44.7333 330.526 50.1145 330.526C55.4958 330.526 60.6585 329.318 65.4569 326.945C66.0918 326.633 66.8516 326.758 67.3512 327.257L75.8655 335.772C76.2298 336.136 76.3963 336.636 76.3339 337.146C76.2714 337.656 75.98 338.103 75.5428 338.363C67.8717 342.964 59.0764 345.389 50.1041 345.389H50.1249ZM28.2356 336.584C34.9387 340.195 42.4642 342.09 50.1249 342.09C57.7857 342.09 65.3111 340.195 72.0143 336.584L65.8524 330.422C60.8979 332.68 55.6103 333.825 50.1249 333.825C44.6396 333.825 39.352 332.68 34.3975 330.422L28.2356 336.584Z" fill="white"/>
<path d="M91.2328 322.074C90.7957 322.074 90.3793 321.907 90.0671 321.595L81.5528 313.081C81.0532 312.581 80.9283 311.811 81.2406 311.187C83.6137 306.388 84.8211 301.226 84.8211 295.844C84.8211 290.463 83.6137 285.3 81.2406 280.502C80.9283 279.867 81.0532 279.097 81.5528 278.608L90.0671 270.093C90.4314 269.729 90.931 269.562 91.441 269.625C91.951 269.687 92.3986 269.979 92.6588 270.416C97.2594 278.087 99.6846 286.882 99.6846 295.855C99.6846 304.827 97.2594 313.622 92.6588 321.293C92.3986 321.731 91.951 322.022 91.441 322.084C91.3681 322.084 91.3057 322.084 91.2328 322.084V322.074ZM84.7066 311.561L90.8685 317.723C94.4803 311.02 96.3747 303.495 96.3747 295.834C96.3747 288.173 94.4803 280.648 90.8685 273.945L84.7066 280.106C86.9653 285.061 88.1102 290.349 88.1102 295.834C88.1102 301.319 86.9653 306.607 84.7066 311.561Z" fill="white"/>
<path d="M9.02348 322.074C8.95062 322.074 8.88817 322.074 8.82572 322.064C8.31569 322.001 7.86808 321.71 7.60786 321.273C3.00724 313.601 0.582031 304.806 0.582031 295.834C0.582031 286.862 3.00724 278.066 7.60786 270.395C7.86808 269.958 8.31569 269.667 8.82572 269.604C9.33574 269.542 9.83536 269.719 10.1997 270.072L18.7139 278.587C19.2135 279.086 19.3384 279.857 19.0262 280.481C16.653 285.28 15.4456 290.442 15.4456 295.824C15.4456 301.205 16.653 306.367 19.0262 311.166C19.3384 311.801 19.2135 312.571 18.7139 313.06L10.1997 321.574C9.88741 321.887 9.471 322.064 9.03384 322.064L9.02348 322.074ZM9.38776 273.945C5.77596 280.648 3.88161 288.173 3.88161 295.834C3.88161 303.495 5.77596 311.02 9.38776 317.723L15.5497 311.561C13.291 306.607 12.1461 301.319 12.1461 295.834C12.1461 290.349 13.291 285.061 15.5497 280.106L9.38776 273.945Z" fill="white"/>
<path d="M50.1282 257.853C29.1861 257.853 12.1367 274.892 12.1367 295.844C12.1367 316.797 29.1757 333.836 50.1282 333.836C71.0808 333.836 88.1198 316.797 88.1198 295.844C88.1198 274.892 71.0808 257.853 50.1282 257.853ZM71.5075 283.364C73.3082 286.445 74.4011 289.807 74.755 293.377C74.7654 293.523 74.703 293.659 74.5781 293.731C71.8615 295.397 69.4258 297.437 67.3233 299.82C67.2296 299.935 67.0735 299.977 66.9381 299.925L62.2439 298.394C62.1086 298.353 62.0149 298.238 61.994 298.093C61.4632 294.21 60.2559 290.494 58.4031 287.039C58.3407 286.914 58.351 286.768 58.4343 286.654L61.3383 282.657C61.4112 282.563 61.5257 282.5 61.6402 282.5C61.6714 282.5 61.6922 282.5 61.7235 282.5C64.8252 283.187 68.0102 283.416 71.1745 283.156C71.3202 283.146 71.4555 283.219 71.5284 283.344L71.5075 283.364ZM59.4336 298.748C59.444 298.852 59.4127 298.956 59.3503 299.029C56.8834 301.871 53.74 304.15 50.274 305.608C50.1803 305.649 50.0866 305.649 49.9929 305.608C46.5268 304.14 43.3834 301.86 40.9166 299.029C40.8541 298.956 40.8229 298.852 40.8333 298.748C41.3121 294.98 42.4883 291.379 44.3098 288.048C44.3618 287.955 44.4451 287.892 44.5492 287.871C46.3811 287.486 48.2547 287.288 50.1387 287.288C52.0226 287.288 53.8962 287.486 55.7281 287.871C55.8322 287.892 55.9154 287.955 55.9675 288.048C57.789 291.379 58.9548 294.98 59.444 298.748H59.4336ZM58.8715 272.914C58.8715 272.914 58.9964 272.81 59.1213 272.81C59.1629 272.81 59.2149 272.81 59.267 272.841C63.0974 274.361 66.5218 276.859 69.1864 280.054C69.3218 280.211 69.2697 280.377 69.2385 280.44C69.2177 280.492 69.124 280.658 68.9054 280.658C66.5426 280.689 64.1903 280.419 61.9108 279.877C61.8171 279.857 61.7338 279.794 61.6818 279.711C60.464 277.702 59.4856 275.537 58.7778 273.289C58.7154 273.091 58.8298 272.956 58.8819 272.914H58.8715ZM44.8719 271.665C48.3171 270.926 51.9497 270.926 55.395 271.665C55.5303 271.696 55.6448 271.8 55.676 271.936C56.415 275.027 57.612 277.983 59.2254 280.721C59.2982 280.845 59.2878 281.002 59.2045 281.127L56.3214 285.103C56.2381 285.217 56.0924 285.28 55.957 285.248C52.1475 284.478 48.1193 284.478 44.3098 285.248C44.1745 285.28 44.0288 285.217 43.9455 285.103L41.0623 281.127C40.979 281.012 40.9686 280.845 41.0415 280.721C42.6548 277.983 43.8518 275.027 44.5908 271.936C44.6221 271.8 44.7366 271.696 44.8719 271.665ZM31.0804 280.054C33.7451 276.849 37.1695 274.35 40.9998 272.841C41.0519 272.82 41.1039 272.81 41.1456 272.81C41.2809 272.81 41.3642 272.883 41.3954 272.914C41.4474 272.966 41.5619 273.091 41.4994 273.289C40.7917 275.547 39.8133 277.702 38.5955 279.711C38.5434 279.794 38.4602 279.857 38.3665 279.877C36.087 280.419 33.7346 280.689 31.3719 280.658C31.1533 280.658 31.0596 280.492 31.0388 280.44C31.0075 280.377 30.9555 280.211 31.0908 280.054H31.0804ZM28.7593 283.364C28.8217 283.25 28.9466 283.177 29.0819 283.177C29.0819 283.177 29.1028 283.177 29.1132 283.177C32.2878 283.427 35.4729 283.208 38.5643 282.521C38.71 282.49 38.8557 282.542 38.939 282.667L41.8429 286.664C41.9262 286.778 41.9366 286.935 41.8742 287.049C40.0215 290.505 38.814 294.221 38.2832 298.103C38.2624 298.238 38.1687 298.353 38.0334 298.405L33.3391 299.935C33.2038 299.977 33.0477 299.935 32.954 299.831C30.8514 297.447 28.4158 295.407 25.6991 293.742C25.5846 293.669 25.5118 293.534 25.5222 293.388C25.8761 289.818 26.969 286.445 28.7697 283.375L28.7593 283.364ZM29.8938 309.011C29.8314 309.209 29.6545 309.251 29.5816 309.261C29.5087 309.261 29.3422 309.261 29.2277 309.095C27.0106 305.608 25.6991 301.569 25.4389 297.426C25.4285 297.218 25.5638 297.114 25.6263 297.083C25.6887 297.052 25.8553 296.979 26.0218 297.104C27.9474 298.467 29.6961 300.07 31.2261 301.85C31.2886 301.923 31.3198 302.017 31.3094 302.121C31.1221 304.463 30.6433 306.784 29.8834 309.022L29.8938 309.011ZM40.1776 318.514C36.9301 317.088 34.0677 314.996 31.6737 312.311C31.58 312.207 31.5488 312.051 31.6009 311.926C32.8187 308.99 33.5889 305.899 33.8907 302.735C33.9011 302.589 34.0053 302.464 34.1406 302.423L38.7828 300.913C38.7828 300.913 38.8556 300.893 38.8973 300.893C39.0014 300.893 39.0951 300.934 39.1679 301.017C41.7701 303.932 45.028 306.305 48.5981 307.877C48.7334 307.939 48.8167 308.064 48.8167 308.21V313.091C48.8167 313.237 48.7334 313.372 48.5981 313.425C45.6837 314.684 42.9775 316.381 40.5523 318.452C40.4482 318.546 40.2921 318.566 40.1672 318.504L40.1776 318.514ZM56.5503 319.545C56.5399 319.618 56.4879 319.784 56.2797 319.836C52.262 320.856 48.0153 320.856 43.9975 319.836C43.7998 319.784 43.7373 319.618 43.7269 319.545C43.7165 319.472 43.6957 319.305 43.8726 319.17C45.767 317.765 47.8279 316.589 50.0033 315.683C50.097 315.642 50.1907 315.642 50.2843 315.683C52.4493 316.589 54.5103 317.765 56.415 319.17C56.5816 319.295 56.5712 319.472 56.5608 319.545H56.5503ZM68.614 312.321C66.22 315.007 63.3576 317.088 60.1101 318.514C59.9748 318.577 59.8291 318.546 59.725 318.462C57.2998 316.391 54.6039 314.694 51.6791 313.435C51.5438 313.372 51.4605 313.248 51.4605 313.102V308.22C51.4605 308.074 51.5438 307.939 51.6791 307.887C55.2493 306.315 58.5176 303.942 61.1093 301.028C61.1822 300.945 61.2759 300.903 61.38 300.903C61.4216 300.903 61.4528 300.903 61.4944 300.924L66.1367 302.433C66.272 302.475 66.3761 302.6 66.3865 302.745C66.6884 305.909 67.4586 308.99 68.6764 311.936C68.7285 312.061 68.7076 312.217 68.6036 312.321H68.614ZM71.0496 309.105C70.9351 309.282 70.7582 309.282 70.6957 309.271C70.6228 309.271 70.4563 309.219 70.3834 309.022C69.634 306.784 69.1552 304.463 68.9574 302.121C68.9574 302.027 68.9783 301.923 69.0407 301.85C70.5708 300.07 72.3194 298.478 74.245 297.104C74.3179 297.052 74.3908 297.031 74.4532 297.031C74.5365 297.031 74.5989 297.062 74.6406 297.083C74.703 297.114 74.8487 297.218 74.8279 297.426C74.5677 301.569 73.2562 305.608 71.0392 309.095L71.0496 309.105Z" fill="white"/>
<path d="M49.9826 221.932C37.2841 221.932 24.5959 217.103 14.9263 207.433C-4.40252 188.104 -4.40252 156.66 14.9263 137.331C24.2941 127.963 36.7428 122.811 49.9826 122.811C63.2224 122.811 75.6711 127.963 85.0389 137.331C104.368 156.66 104.368 188.104 85.0389 207.433C75.3797 217.092 62.6811 221.932 49.9826 221.932ZM17.5285 204.831C35.4209 222.724 64.5339 222.724 82.4263 204.831C100.319 186.939 100.319 157.826 82.4263 139.933C73.7559 131.263 62.2335 126.496 49.9722 126.496C37.7108 126.496 26.1884 131.273 17.5181 139.933C-0.374391 157.826 -0.374391 186.939 17.5181 204.831H17.5285Z" fill="#9DADF2"/>
<path d="M49.3269 190.935C49.5039 191.362 49.9202 191.612 50.3574 191.612C50.5031 191.612 50.6489 191.581 50.7946 191.529C54.2919 190.061 57.4769 187.792 59.9958 184.961C60.4017 184.503 60.3601 183.795 59.9021 183.389C59.4441 182.983 58.7364 183.025 58.3304 183.483C56.0301 186.075 53.1261 188.146 49.9306 189.478C49.3686 189.718 49.0979 190.373 49.3373 190.935H49.3269Z" fill="#9DADF2"/>
<path d="M68.8729 155.244L50.3872 147.854C50.1166 147.75 49.8251 147.75 49.5545 147.854L31.0688 155.244C30.642 155.411 30.3713 155.817 30.3713 156.275V169.514C30.3922 181.734 38.1154 192.778 49.5857 196.983C49.7106 197.024 49.8355 197.045 49.9708 197.045C50.1061 197.045 50.231 197.024 50.3559 196.983C61.8263 192.767 69.5495 181.734 69.5703 169.514V156.275C69.5703 155.817 69.2997 155.411 68.8729 155.244ZM67.3428 169.514C67.322 180.631 60.3482 190.758 49.9812 194.745C39.6142 190.758 32.63 180.631 32.6092 169.514V157.034L49.9812 150.092L67.3428 157.034V169.514Z" fill="#9DADF2"/>
<path d="M42.2585 156.982C41.9878 156.868 41.686 156.868 41.4049 156.982L37.0021 158.741C36.5754 158.908 36.3047 159.314 36.3047 159.772V164.466C36.3047 165.08 36.8043 165.58 37.4184 165.58C38.0325 165.58 38.5322 165.08 38.5322 164.466V160.532L42.2272 159.054C42.5082 158.939 42.7164 158.731 42.8413 158.45C42.9558 158.179 42.9558 157.877 42.8413 157.596C42.7268 157.315 42.5187 157.107 42.248 156.982H42.2585Z" fill="#9DADF2"/>
<path d="M78.1259 144.232C70.6109 136.706 60.6082 132.574 49.9706 132.574C39.333 132.574 29.3407 136.717 21.8152 144.232C6.29596 159.751 6.29596 185.013 21.8152 200.543C29.5801 208.307 39.7701 212.179 49.9706 212.179C60.171 212.179 70.3611 208.297 78.1259 200.543C93.6452 185.023 93.6452 159.762 78.1259 144.232ZM72.6198 169.514C72.651 183.639 63.6267 195.994 50.1684 200.272C50.0434 200.314 49.9081 200.314 49.7728 200.272C36.3144 195.994 27.2902 183.639 27.3214 169.514V153.891C27.3214 153.631 27.4775 153.392 27.7273 153.287L49.7312 144.492C49.8041 144.461 49.8873 144.451 49.9706 144.451C50.0539 144.451 50.1371 144.461 50.21 144.492L72.2138 153.298C72.4636 153.392 72.6198 153.631 72.6198 153.902V169.525V169.514Z" fill="#9DADF2"/>
<path d="M50.3967 99.6208C23.074 99.6208 0.851562 77.3879 0.851562 50.0756C0.851562 22.7633 23.0844 0.530518 50.3967 0.530518C77.709 0.530518 99.9418 22.7633 99.9418 50.0756C99.9418 77.3879 77.709 99.6208 50.3967 99.6208ZM50.3967 3.83004C24.8955 3.83004 4.15108 24.5744 4.15108 50.0756C4.15108 75.5768 24.8955 96.3212 50.3967 96.3212C75.8979 96.3212 96.6423 75.5768 96.6423 50.0756C96.6423 24.5744 75.8979 3.83004 50.3967 3.83004Z" fill="#478BF9"/>
<path d="M82.7174 14.7288L67.3792 30.0671L70.3968 33.0848L85.7351 17.7465L82.7174 14.7288Z" fill="#478BF9"/>
<path d="M29.9242 67.5206L14.5859 82.8589L17.6035 85.8765L32.9418 70.5382L29.9242 67.5206Z" fill="#478BF9"/>
<path d="M70.8616 67.5356L67.844 70.5532L83.1822 85.8915L86.1999 82.8738L70.8616 67.5356Z" fill="#478BF9"/>
<path d="M17.5999 14.2671L14.5823 17.2847L29.9132 32.6156L32.9308 29.598L17.5999 14.2671Z" fill="#478BF9"/>
<path d="M62.4808 51.4078C63.48 50.4085 63.48 48.7952 62.4808 47.8064L60.3574 45.6934C59.3582 44.6942 57.7449 44.6942 56.7561 45.6934L55.6111 46.8384L54.2892 45.5164C53.29 44.5172 51.6766 44.5172 50.6878 45.5164L49.5429 46.6718L48.221 45.3395C47.2217 44.3403 45.6084 44.3403 44.6195 45.3395L37.5937 52.3653C37.5417 52.4174 37.5417 52.5007 37.5937 52.5631C38.5305 53.4999 40.0606 53.4999 41.0078 52.5631L45.5355 48.0354C46.0247 47.5462 46.8158 47.5462 47.305 48.0354L47.6381 48.3684C47.7005 48.4308 47.7005 48.5245 47.6381 48.587L43.8597 52.3653C43.8077 52.4174 43.8077 52.5007 43.8597 52.5631C44.7965 53.4999 46.3266 53.4999 47.2738 52.5631L51.6142 48.2227C52.1034 47.7335 52.8945 47.7335 53.3837 48.2227L53.7167 48.5558C53.7688 48.6078 53.7688 48.6911 53.7167 48.7536L50.0737 52.3966C50.0217 52.4486 50.0217 52.5319 50.0737 52.5944C51.0105 53.5311 52.5405 53.5311 53.4877 52.5944L57.6824 48.3997C58.1716 47.9104 58.9626 47.9104 59.4519 48.3997L60.1701 49.1178C60.4511 49.3989 60.4511 49.8673 60.1701 50.1483L60.0556 50.2628C59.7745 50.5438 59.3062 50.5438 59.0251 50.2628L58.0987 49.3365C58.0467 49.2844 57.9634 49.2844 57.901 49.3365L56.2981 50.9394C56.246 50.9914 56.246 51.0747 56.2981 51.1371L57.7449 52.5839C58.7441 53.5832 60.3574 53.5832 61.3462 52.5839L62.4912 51.439L62.4808 51.4078Z" fill="#478BF9"/>
<path d="M50.3978 12.084C29.414 12.084 12.4062 29.0917 12.4062 50.0755C12.4062 71.0593 29.414 88.067 50.3978 88.067C71.3816 88.067 88.3893 71.0593 88.3893 50.0755C88.3893 29.0917 71.3816 12.084 50.3978 12.084ZM51.9486 23.8145C58.0481 24.1684 63.5855 26.604 67.8738 30.4136L62.3885 35.8989C59.5261 33.4737 55.9143 31.9021 51.9486 31.569V23.8145ZM48.8572 23.8145V31.569C44.8916 31.8916 41.2798 33.4737 38.4174 35.8989L32.932 30.4136C37.2204 26.604 42.7578 24.1684 48.8572 23.8145ZM30.7463 32.5994L36.2316 38.0848C33.8064 40.9472 32.2347 44.5589 31.9016 48.5246H24.1472C24.5011 42.4252 26.9367 36.8878 30.7463 32.5994ZM24.1472 51.616H31.9016C32.2243 55.5817 33.8064 59.1935 36.2316 62.0559L30.7463 67.5412C26.9367 63.2529 24.5011 57.7155 24.1472 51.616ZM48.8572 76.3261C42.7578 75.9722 37.2204 73.5366 32.932 69.727L38.4174 64.2416C41.2798 66.6669 44.8916 68.2386 48.8572 68.5717V76.3261ZM34.4309 50.0651C34.4309 41.249 41.5817 34.0983 50.3978 34.0983C59.2139 34.0983 66.3646 41.249 66.3646 50.0651C66.3646 58.8812 59.2139 66.032 50.3978 66.032C41.5817 66.032 34.4309 58.8812 34.4309 50.0651ZM51.9486 76.3261V68.5717C55.9143 68.249 59.5261 66.6669 62.3885 64.2416L67.8738 69.727C63.5855 73.5366 58.0481 75.9722 51.9486 76.3261ZM70.0596 67.5412L64.5743 62.0559C66.9995 59.1935 68.5712 55.5817 68.9043 51.616H76.6587C76.3048 57.7155 73.8692 63.2529 70.0596 67.5412ZM68.9043 48.5246C68.5816 44.5589 66.9995 40.9472 64.5743 38.0848L70.0596 32.5994C73.8692 36.8878 76.3048 42.4252 76.6587 48.5246H68.9043Z" fill="#478BF9"/>
</svg>
