<svg width="291" height="51" viewBox="0 0 291 51" fill="none" xmlns="http://www.w3.org/2000/svg">
<path d="M206.584 49.3894C193.079 49.3894 182.089 38.3994 182.089 24.8935C182.089 11.3877 193.079 0.397724 206.584 0.397724C220.09 0.397724 231.08 11.3877 231.08 24.8935C231.08 38.3994 220.09 49.3894 206.584 49.3894ZM206.584 2.16249C194.051 2.16249 183.853 12.3601 183.853 24.8935C183.853 37.427 194.051 47.6246 206.584 47.6246C219.118 47.6246 229.316 37.427 229.316 24.8935C229.316 12.3601 219.118 2.16249 206.584 2.16249Z" fill="#478BF9"/>
<path d="M266.468 49.3906C265.979 49.3906 265.588 48.9944 265.588 48.5108C265.588 48.0271 265.985 47.631 266.468 47.631C279.002 47.631 289.199 37.4334 289.199 24.8999C289.199 12.3664 279.002 2.16885 266.468 2.16885C265.979 2.16885 265.588 1.77266 265.588 1.28902C265.588 0.805386 265.985 0.409233 266.468 0.409233C279.974 0.409233 290.964 11.3992 290.964 24.9051C290.964 38.4109 279.974 49.4009 266.468 49.4009V49.3906Z" fill="#478BF9"/>
<path d="M230.882 23.9211H220.154V26.0358H230.882V23.9211Z" fill="#478BF9"/>
<path d="M193.946 23.9211H183.218V26.0358H193.946V23.9211Z" fill="#478BF9"/>
<path d="M208.276 38.2451H206.161V48.9727H208.276V38.2451Z" fill="#478BF9"/>
<path d="M208.276 0.984131H206.161V11.7117H208.276V0.984131Z" fill="#478BF9"/>
<path d="M219.83 11.5574C212.493 4.22046 200.593 4.22046 193.251 11.5574C185.914 18.8943 185.914 30.7949 193.251 38.137C200.588 45.4739 212.488 45.4739 219.83 38.137C227.167 30.8001 227.167 18.8994 219.83 11.5574ZM210.173 13.1472C212.313 13.8109 214.232 15.0509 215.725 16.7385L216.013 17.0626L215.591 17.1604C214.474 17.4228 213.281 17.6389 212.046 17.7984L211.825 17.8293L211.763 17.6132C211.557 16.9083 211.315 16.2291 211.037 15.6014C210.693 14.8142 210.307 14.1248 209.885 13.5434L209.422 12.9105L210.173 13.1421V13.1472ZM201.586 24.2606L201.596 23.9931C201.648 22.3672 201.828 20.8134 202.136 19.3831L202.183 19.1567L202.414 19.1773C205.12 19.4139 208.012 19.4037 210.703 19.1516L210.934 19.131L210.986 19.3574C211.3 20.8031 211.48 22.3621 211.526 23.9931V24.2606H201.591H201.586ZM211.526 25.4543V25.7219C211.47 27.3529 211.289 28.9118 210.976 30.3576L210.924 30.584L210.693 30.5634C208.002 30.3113 205.11 30.3061 202.404 30.5377L202.172 30.5582L202.126 30.3318C201.817 28.9015 201.637 27.3529 201.586 25.7219L201.576 25.4543H211.516H211.526ZM206.556 12.6996C208.053 12.6996 209.576 14.5981 210.528 17.6595L210.626 17.9682L210.302 17.9939C209.036 18.1019 207.729 18.1585 206.417 18.1585C205.198 18.1585 203.983 18.1122 202.8 18.0145L202.476 17.9888L202.574 17.6749C203.526 14.6033 205.054 12.6945 206.556 12.6945V12.6996ZM197.336 16.7951C198.838 15.0818 200.773 13.8212 202.939 13.1524L203.695 12.9208L203.227 13.5588C202.805 14.1351 202.414 14.8297 202.075 15.6117C201.802 16.2291 201.555 16.9186 201.339 17.6595L201.277 17.8704L201.056 17.8447C199.811 17.6904 198.607 17.4845 197.475 17.2221L197.048 17.1244L197.336 16.7951ZM194.331 23.9828C194.475 21.9762 195.118 20.0211 196.194 18.318L196.297 18.1585L196.482 18.2048C197.799 18.5393 199.219 18.8068 200.711 18.9972L200.989 19.0332L200.932 19.311C200.624 20.8031 200.449 22.3827 200.402 24.0085V24.2606H194.316L194.336 23.9828H194.331ZM196.297 31.5564L196.194 31.3969C195.118 29.699 194.475 27.7387 194.331 25.7321L194.311 25.4543H200.392V25.7064C200.444 27.3323 200.624 28.917 200.927 30.4039L200.984 30.6817L200.706 30.7177C199.219 30.9081 197.794 31.1757 196.477 31.5101L196.292 31.5564H196.297ZM202.939 36.5677C200.773 35.8988 198.838 34.6383 197.336 32.925L197.048 32.5957L197.475 32.4979C198.607 32.2407 199.811 32.0297 201.056 31.8754L201.277 31.8497L201.339 32.0606C201.555 32.8015 201.802 33.491 202.075 34.1084C202.419 34.8956 202.805 35.585 203.227 36.1664L203.695 36.8044L202.939 36.5729V36.5677ZM206.556 37.0153C205.054 37.0153 203.526 35.1065 202.574 32.0349L202.476 31.721L202.8 31.6953C205.254 31.4998 207.868 31.5049 210.302 31.7159L210.626 31.7416L210.528 32.0503C209.571 35.1065 208.048 37.0102 206.556 37.0102V37.0153ZM215.725 32.9764C214.232 34.664 212.308 35.904 210.173 36.5677L209.422 36.7992L209.885 36.1664C210.307 35.5902 210.693 34.8956 211.037 34.1084C211.31 33.4755 211.557 32.8015 211.763 32.0966L211.825 31.8805L212.046 31.9114C213.281 32.0709 214.474 32.287 215.591 32.5494L216.013 32.6523L215.725 32.9764ZM218.776 25.7321C218.632 27.7593 217.978 29.7402 216.877 31.4586L216.774 31.6181L216.589 31.5718C215.287 31.2271 213.872 30.9544 212.391 30.7537L212.113 30.7177L212.169 30.4451C212.478 28.953 212.658 27.3631 212.704 25.7116V25.4594H218.791L218.77 25.7373L218.776 25.7321ZM212.715 24.2606V24.0085C212.663 22.3569 212.483 20.762 212.174 19.275L212.118 19.0024L212.396 18.9663C213.877 18.7657 215.287 18.493 216.594 18.1482L216.779 18.102L216.882 18.2615C217.983 19.9799 218.642 21.9556 218.781 23.988L218.801 24.2658H212.72L212.715 24.2606Z" fill="#478BF9"/>
<path d="M266.839 49.4202L207.721 49.4202C207.233 49.4202 206.842 49.024 206.842 48.5403C206.842 48.0567 207.238 47.6605 207.721 47.6605L266.839 47.6605C267.327 47.6605 267.718 48.0567 267.718 48.5403C267.718 49.024 267.322 49.4202 266.839 49.4202Z" fill="#478BF9"/>
<path d="M266.973 2.18872L207.855 2.18872C207.367 2.18872 206.976 1.79257 206.976 1.30893C206.976 0.825289 207.372 0.429104 207.855 0.429104L266.973 0.429104C267.461 0.429104 267.852 0.825289 267.852 1.30893C267.852 1.79257 267.456 2.18872 266.973 2.18872Z" fill="#478BF9"/>
<path d="M128.633 42.8244C118.999 33.1904 118.999 17.5165 128.633 7.88247C138.267 -1.75151 153.941 -1.75151 163.575 7.88247C173.209 17.5165 173.209 33.1904 163.575 42.8244C153.941 52.4584 138.267 52.4584 128.633 42.8244ZM162.41 9.04689C153.418 0.0548585 138.789 0.0548585 129.799 9.04689C120.807 18.0389 120.807 32.668 129.799 41.6576C138.792 50.6497 153.421 50.6497 162.41 41.6576C171.402 32.6656 171.402 18.0366 162.41 9.04689Z" fill="white"/>
<path d="M162.677 20.1123C162.59 20.0256 162.52 19.9155 162.48 19.7936C161.625 17.2633 160.229 15.0211 158.331 13.1234C156.435 11.228 154.191 9.83164 151.661 8.97414C151.326 8.85933 151.101 8.54773 151.101 8.19396V2.18912C151.101 1.93608 151.218 1.6971 151.417 1.54013C151.618 1.38316 151.878 1.32927 152.122 1.39019C156.447 2.47261 160.407 4.7171 163.569 7.88235C166.732 11.0476 168.977 15.0048 170.059 19.3297C170.12 19.5757 170.064 19.8358 169.909 20.0373C169.752 20.2388 169.513 20.3536 169.26 20.3536H163.256C163.031 20.3536 162.824 20.2622 162.672 20.1099L162.677 20.1123ZM159.495 11.959C161.43 13.8942 162.89 16.1621 163.841 18.7065H168.185C167.093 15.0703 165.109 11.7481 162.407 9.04677C159.706 6.34541 156.384 4.36098 152.75 3.27153V7.61526C155.294 8.56413 157.562 10.0238 159.498 11.9613L159.495 11.959Z" fill="white"/>
<path d="M128.632 42.8241C125.469 39.6612 123.222 35.7017 122.14 31.3767C122.079 31.1307 122.135 30.8707 122.29 30.6715C122.447 30.47 122.686 30.3552 122.939 30.3552H128.944C129.298 30.3552 129.612 30.5801 129.724 30.9152C130.579 33.4455 131.976 35.6877 133.873 37.5854C135.769 39.4808 138.013 40.8772 140.544 41.7347C140.879 41.8471 141.103 42.1611 141.103 42.5149V48.5197C141.103 48.7727 140.986 49.0117 140.787 49.1687C140.586 49.3257 140.326 49.3795 140.08 49.3186C135.755 48.2362 131.797 45.9917 128.632 42.8288V42.8241ZM124.019 31.9999C125.111 35.6361 127.095 38.9583 129.797 41.6597C132.498 44.361 135.82 46.3455 139.456 47.4373V43.0935C136.912 42.1447 134.644 40.6851 132.709 38.7498C130.774 36.8146 129.314 34.5467 128.363 32.0023H124.019V31.9999Z" fill="white"/>
<path d="M151.346 49.0987C151.191 48.944 151.104 48.7355 151.104 48.5153V42.5104C151.104 42.1567 151.329 41.8427 151.664 41.7303C154.195 40.8751 156.437 39.4787 158.335 37.581C160.232 35.6833 161.626 33.4411 162.484 30.9108C162.596 30.5757 162.91 30.3508 163.264 30.3508H169.269C169.522 30.3508 169.761 30.468 169.918 30.6671C170.075 30.8663 170.129 31.1287 170.068 31.3723C168.983 35.6973 166.739 39.6545 163.576 42.8197C160.413 45.985 156.453 48.2295 152.128 49.3119C151.882 49.3728 151.622 49.3166 151.423 49.1619C151.397 49.1385 151.372 49.1174 151.348 49.094L151.346 49.0987ZM152.752 43.0915V47.4352C156.388 46.3434 159.71 44.359 162.411 41.6576C165.113 38.9563 167.095 35.6341 168.189 31.9979H163.845C162.896 34.5423 161.437 36.8078 159.499 38.7454C157.564 40.6806 155.296 42.1426 152.752 43.0915Z" fill="white"/>
<path d="M122.356 20.1124C122.333 20.089 122.309 20.0632 122.29 20.0374C122.133 19.8383 122.08 19.5759 122.14 19.3299C123.223 15.0049 125.467 11.0454 128.633 7.88247C131.798 4.71956 135.755 2.47273 140.08 1.39031C140.326 1.32939 140.586 1.38562 140.785 1.54025C140.984 1.69722 141.101 1.9362 141.101 2.18924V8.19408C141.101 8.54785 140.877 8.8618 140.542 8.97426C138.011 9.82942 135.769 11.2258 133.871 13.1235C131.976 15.0189 130.58 17.2634 129.722 19.7937C129.61 20.1288 129.296 20.3537 128.942 20.3537H122.937C122.717 20.3537 122.506 20.267 122.354 20.1147L122.356 20.1124ZM139.454 3.27165C135.818 4.36344 132.496 6.34788 129.795 9.04923C127.093 11.7506 125.111 15.0728 124.017 18.709H128.361C129.31 16.1646 130.769 13.899 132.707 11.9614C134.642 10.0262 136.91 8.5666 139.454 7.61538V3.27165Z" fill="white"/>
<path d="M159.497 11.9592C152.112 4.57436 140.093 4.57201 132.708 11.9592C125.321 19.3463 125.324 31.363 132.708 38.7478C140.093 46.1326 152.11 46.135 159.497 38.7478C166.884 31.3607 166.882 19.344 159.497 11.9592Z" fill="white"/>
<path d="M152.936 32.1143L139.329 32.2045C138.756 32.2083 138.294 32.6761 138.298 33.2493L138.301 33.7343C138.305 34.3075 138.773 34.7691 139.346 34.7653L152.953 34.675C153.526 34.6712 153.988 34.2035 153.984 33.6303L153.981 33.1453C153.977 32.5721 153.509 32.1105 152.936 32.1143Z" fill="#110A1D"/>
<path d="M141.183 23.9007C141.035 23.9007 140.885 23.8679 140.75 23.8023L139.688 23.2892C139.227 23.0643 139.016 22.5184 139.208 22.0428L139.695 20.8292C139.845 20.459 140.199 20.2177 140.597 20.2153C140.768 20.2153 140.937 20.2575 141.087 20.3442L142.352 21.0658C142.589 21.1993 142.76 21.4313 142.821 21.6984C142.882 21.9655 142.828 22.2466 142.673 22.4715L141.98 23.4766C141.799 23.739 141.499 23.8984 141.181 23.8984L141.183 23.9007Z" fill="#110A1D"/>
<path d="M150.978 23.8352C150.659 23.8352 150.357 23.683 150.174 23.4229L149.487 22.4553C149.328 22.2327 149.272 21.9516 149.328 21.6845C149.384 21.4174 149.553 21.1831 149.79 21.0448L151.095 20.2787C151.242 20.192 151.411 20.1452 151.582 20.1428C151.98 20.1405 152.339 20.3771 152.493 20.745L152.985 21.9234C153.182 22.3967 152.978 22.9473 152.521 23.1769L151.411 23.7321C151.277 23.7977 151.127 23.8352 150.98 23.8352H150.978Z" fill="#110A1D"/>
<path d="M140.114 31.295C139.516 31.2997 138.98 30.9248 138.776 30.3626L136.506 24.1141C136.36 24.1843 136.206 24.2382 136.049 24.2781C135.864 24.3249 135.676 24.3483 135.487 24.3483C135.376 24.3483 135.269 24.3437 135.163 24.3296C133.98 24.1797 133.083 23.1652 133.076 21.9703C133.066 20.6489 134.135 19.5665 135.456 19.5571C136.777 19.5478 137.86 20.6161 137.867 21.9375C137.867 22.2421 137.815 22.5349 137.708 22.8091C137.649 22.959 137.576 23.1019 137.492 23.2378L141.81 25.3277L145.114 20.5411C144.975 20.4826 144.842 20.4099 144.715 20.3233C144.476 20.1616 144.268 19.9601 144.099 19.7235C143.813 19.3205 143.659 18.8449 143.656 18.3529C143.647 17.0315 144.715 15.9491 146.037 15.9397C146.095 15.9397 146.156 15.9397 146.215 15.9444C147.398 16.024 148.354 16.9729 148.44 18.1561C148.48 18.716 148.333 19.2525 148.014 19.7094C147.845 19.9484 147.639 20.1522 147.403 20.3139C147.278 20.4006 147.145 20.4732 147.007 20.5318L150.369 25.2691L154.616 23.1441C154.537 22.9918 154.473 22.8325 154.427 22.6661C154.37 22.4647 154.34 22.2538 154.34 22.0406C154.34 21.9445 154.345 21.8485 154.354 21.7548C154.49 20.5505 155.507 19.6368 156.718 19.6298C158.039 19.6204 159.122 20.6887 159.129 22.0101C159.138 23.2706 158.159 24.3296 156.901 24.4163L156.751 24.421C156.507 24.421 156.268 24.3882 156.036 24.3179C155.886 24.271 155.741 24.2125 155.605 24.1375L153.473 30.2642C153.279 30.8288 152.744 31.2083 152.147 31.213L140.114 31.2927V31.295Z" fill="#110A1D"/>
<path d="M83.1969 49.633C76.9199 49.633 70.648 47.2457 65.8682 42.4659C56.3138 32.9115 56.3138 17.3681 65.8682 7.81365C70.4988 3.18306 76.6524 0.63623 83.1969 0.63623C89.7415 0.63623 95.895 3.18306 100.526 7.81365C110.08 17.3681 110.08 32.9115 100.526 42.4659C95.751 47.2406 89.474 49.633 83.1969 49.633ZM67.1545 41.1796C75.9989 50.0241 90.3898 50.0241 99.2342 41.1796C108.079 32.3352 108.079 17.9444 99.2342 9.09993C94.9483 4.81406 89.2527 2.45759 83.1918 2.45759C77.1309 2.45759 71.4352 4.81921 67.1494 9.09993C58.3049 17.9444 58.3049 32.3352 67.1494 41.1796H67.1545Z" fill="#7DDACF"/>
<path d="M84.1039 19.9817L79.5659 26.341H82.2877V30.879L86.8256 24.5248H84.1039V19.9817Z" fill="#7DDACF"/>
<path d="M83.1922 16.4468C78.222 16.4468 74.1882 20.4805 74.1882 25.4507C74.1882 30.4209 78.222 34.4444 83.1922 34.4444C88.1623 34.4444 92.1961 30.4106 92.1961 25.4507C92.1961 20.4908 88.1623 16.4468 83.1922 16.4468ZM83.1922 33.333C78.8291 33.333 75.2893 29.7932 75.2893 25.4301C75.2893 21.0671 78.8291 17.5273 83.1922 17.5273C87.5552 17.5273 91.0951 21.0671 91.0951 25.4301C91.0951 29.7932 87.5552 33.333 83.1922 33.333Z" fill="#7DDACF"/>
<path d="M97.1105 11.2247C93.3957 7.50477 88.4513 5.46216 83.193 5.46216C77.9347 5.46216 72.9954 7.50992 69.2755 11.2247C61.6041 18.896 61.6041 31.3832 69.2755 39.0597C73.1137 42.8979 78.1508 44.817 83.193 44.817C88.2352 44.817 93.2723 42.8979 97.1105 39.0597C104.782 31.3883 104.782 18.9012 97.1105 11.2247ZM83.193 37.6654C76.4632 37.6654 70.9837 32.1858 70.9837 25.456C70.9837 22.4822 72.0487 19.7553 73.8186 17.6252L72.3265 16.1331C71.8995 15.7061 71.8995 15.0115 72.3265 14.5793C72.7536 14.1471 73.4482 14.1523 73.8804 14.5793L75.3724 16.0714C77.2247 14.5227 79.5554 13.504 82.0971 13.2879V12.2794H81.0886C80.1985 12.2794 79.4628 11.5437 79.4628 10.6536V9.80463C79.4628 8.90423 80.1985 8.17879 81.0886 8.17879H85.3076C86.1977 8.17879 86.9335 8.90423 86.9335 9.80463V10.6536C86.9335 11.5437 86.1977 12.2794 85.3076 12.2794H84.2992V13.2879C86.846 13.5091 89.1716 14.5278 91.0238 16.0714L92.5159 14.5793C92.9429 14.1523 93.6375 14.1523 94.0697 14.5793C94.4968 15.0063 94.4968 15.7009 94.0697 16.1331L92.5776 17.6252C94.3476 19.7553 95.4126 22.477 95.4126 25.456C95.4126 32.1858 89.9331 37.6654 83.2033 37.6654H83.193Z" fill="#7DDACF"/>
<path d="M24.7358 49.1655C11.2299 49.1655 0.245117 38.1755 0.245117 24.6748C0.245117 11.174 11.2351 0.184082 24.7358 0.184082C38.2366 0.184082 49.2265 11.174 49.2265 24.6748C49.2265 38.1755 38.2366 49.1655 24.7358 49.1655ZM24.7358 1.81507C12.1303 1.81507 1.87614 12.0693 1.87614 24.6748C1.87614 37.2803 12.1303 47.5344 24.7358 47.5344C37.3413 47.5344 47.5955 37.2803 47.5955 24.6748C47.5955 12.0693 37.3413 1.81507 24.7358 1.81507Z" fill="white"/>
<path d="M40.7162 7.19888L33.1343 14.7808L34.6259 16.2724L42.2078 8.69051L40.7162 7.19888Z" fill="white"/>
<path d="M14.618 33.2978L7.03613 40.8796L8.52776 42.3713L16.1096 34.7894L14.618 33.2978Z" fill="white"/>
<path d="M34.8556 33.2967L33.364 34.7883L40.9459 42.3702L42.4375 40.8786L34.8556 33.2967Z" fill="white"/>
<path d="M8.53338 6.96882L7.04175 8.46045L14.62 16.0387L16.1116 14.5471L8.53338 6.96882Z" fill="white"/>
<path d="M30.7148 25.3334C31.2087 24.8395 31.2087 24.042 30.7148 23.5532L29.6652 22.5088C29.1713 22.0148 28.3738 22.0148 27.885 22.5088L27.319 23.0747L26.6656 22.4213C26.1717 21.9274 25.3742 21.9274 24.8854 22.4213L24.3194 22.9924L23.666 22.3338C23.1721 21.8399 22.3746 21.8399 21.8858 22.3338L18.4128 25.8068C18.3871 25.8325 18.3871 25.8737 18.4128 25.9045C18.8759 26.3676 19.6323 26.3676 20.1005 25.9045L22.3386 23.6664C22.5804 23.4246 22.9714 23.4246 23.2132 23.6664L23.3779 23.8311C23.4088 23.8619 23.4088 23.9082 23.3779 23.9391L21.5102 25.8068C21.4845 25.8325 21.4845 25.8737 21.5102 25.9045C21.9733 26.3676 22.7296 26.3676 23.1978 25.9045L25.3433 23.759C25.5851 23.5172 25.9762 23.5172 26.218 23.759L26.3826 23.9237C26.4083 23.9494 26.4083 23.9905 26.3826 24.0214L24.5818 25.8222C24.5561 25.8479 24.5561 25.8891 24.5818 25.92C25.0449 26.383 25.8012 26.383 26.2694 25.92L28.3429 23.8465C28.5847 23.6047 28.9757 23.6047 29.2176 23.8465L29.5726 24.2015C29.7115 24.3404 29.7115 24.5719 29.5726 24.7109L29.516 24.7675C29.3771 24.9064 29.1455 24.9064 29.0066 24.7675L28.5487 24.3095C28.523 24.2838 28.4818 24.2838 28.4509 24.3095L27.6586 25.1019C27.6329 25.1276 27.6329 25.1688 27.6586 25.1997L28.3738 25.9148C28.8677 26.4087 29.6652 26.4087 30.154 25.9148L30.72 25.3489L30.7148 25.3334Z" fill="white"/>
<path d="M24.7364 5.88989C14.3639 5.88989 5.95679 14.297 5.95679 24.6695C5.95679 35.042 14.3639 43.4491 24.7364 43.4491C35.1089 43.4491 43.516 35.042 43.516 24.6695C43.516 14.297 35.1089 5.88989 24.7364 5.88989ZM25.503 11.6884C28.5181 11.8633 31.2552 13.0673 33.375 14.9504L30.6635 17.6619C29.2486 16.4631 27.4633 15.6862 25.503 15.5215V11.6884ZM23.9749 11.6884V15.5215C22.0146 15.681 20.2293 16.4631 18.8144 17.6619L16.1029 14.9504C18.2227 13.0673 20.9599 11.8633 23.9749 11.6884ZM15.0225 16.0309L17.7339 18.7424C16.5351 20.1573 15.7582 21.9426 15.5936 23.9029H11.7604C11.9354 20.8879 13.1393 18.1507 15.0225 16.0309ZM11.7604 25.431H15.5936C15.7531 27.3913 16.5351 29.1766 17.7339 30.5915L15.0225 33.303C13.1393 31.1832 11.9354 28.446 11.7604 25.431ZM23.9749 37.6455C20.9599 37.4705 18.2227 36.2666 16.1029 34.3835L18.8144 31.672C20.2293 32.8708 22.0146 33.6477 23.9749 33.8124V37.6455ZM16.8438 24.6644C16.8438 20.3065 20.3785 16.7718 24.7364 16.7718C29.0943 16.7718 32.629 20.3065 32.629 24.6644C32.629 29.0223 29.0943 32.5569 24.7364 32.5569C20.3785 32.5569 16.8438 29.0223 16.8438 24.6644ZM25.503 37.6455V33.8124C27.4633 33.6529 29.2486 32.8708 30.6635 31.672L33.375 34.3835C31.2552 36.2666 28.5181 37.4705 25.503 37.6455ZM34.4555 33.303L31.744 30.5915C32.9428 29.1766 33.7197 27.3913 33.8844 25.431H37.7175C37.5426 28.446 36.3386 31.1832 34.4555 33.303ZM33.8844 23.9029C33.7249 21.9426 32.9428 20.1573 31.744 18.7424L34.4555 16.0309C36.3386 18.1507 37.5426 20.8879 37.7175 23.9029H33.8844Z" fill="white"/>
</svg>
