<svg width="295" height="50" viewBox="0 0 295 50" fill="none" xmlns="http://www.w3.org/2000/svg">
<path d="M270.44 49.9074C256.934 49.9074 245.949 38.9174 245.949 25.4167C245.949 11.916 256.939 0.926025 270.44 0.926025C283.941 0.926025 294.931 11.916 294.931 25.4167C294.931 38.9174 283.941 49.9074 270.44 49.9074ZM270.44 2.55701C257.835 2.55701 247.58 12.8112 247.58 25.4167C247.58 38.0222 257.835 48.2764 270.44 48.2764C283.046 48.2764 293.3 38.0222 293.3 25.4167C293.3 12.8112 283.046 2.55701 270.44 2.55701Z" fill="#7DDACF"/>
<path d="M286.422 7.94108L278.84 15.5229L280.332 17.0146L287.914 9.43273L286.422 7.94108Z" fill="#7DDACF"/>
<path d="M260.322 34.0402L252.74 41.6221L254.232 43.1137L261.814 35.5318L260.322 34.0402Z" fill="#7DDACF"/>
<path d="M280.554 34.0438L279.062 35.5354L286.644 43.1173L288.136 41.6256L280.554 34.0438Z" fill="#7DDACF"/>
<path d="M254.23 7.71638L252.739 9.20801L260.317 16.7863L261.808 15.2946L254.23 7.71638Z" fill="#7DDACF"/>
<path d="M276.414 26.0751C276.907 25.5812 276.907 24.7837 276.414 24.2949L275.364 23.2505C274.87 22.7565 274.073 22.7565 273.584 23.2505L273.018 23.8164L272.364 23.163C271.87 22.6691 271.073 22.6691 270.584 23.163L270.018 23.7341L269.365 23.0755C268.871 22.5816 268.073 22.5816 267.585 23.0755L264.112 26.5485C264.086 26.5742 264.086 26.6154 264.112 26.6462C264.575 27.1093 265.331 27.1093 265.799 26.6462L268.037 24.4081C268.279 24.1663 268.67 24.1663 268.912 24.4081L269.077 24.5728C269.107 24.6036 269.107 24.6499 269.077 24.6808L267.209 26.5485C267.183 26.5742 267.183 26.6154 267.209 26.6462C267.672 27.1093 268.428 27.1093 268.897 26.6462L271.042 24.5007C271.284 24.2589 271.675 24.2589 271.917 24.5007L272.081 24.6654C272.107 24.6911 272.107 24.7323 272.081 24.7631L270.281 26.5639C270.255 26.5896 270.255 26.6308 270.281 26.6617C270.744 27.1247 271.5 27.1247 271.968 26.6617L274.042 24.5882C274.283 24.3464 274.674 24.3464 274.916 24.5882L275.271 24.9432C275.41 25.0821 275.41 25.3136 275.271 25.4526L275.215 25.5091C275.076 25.6481 274.844 25.6481 274.705 25.5091L274.247 25.0513C274.222 25.0255 274.181 25.0255 274.15 25.0513L273.357 25.8436C273.332 25.8693 273.332 25.9105 273.357 25.9414L274.072 26.6565C274.566 27.1505 275.364 27.1505 275.853 26.6565L276.419 26.0905L276.414 26.0751Z" fill="#7DDACF"/>
<path d="M270.441 6.63696C260.068 6.63696 251.661 15.0441 251.661 25.4166C251.661 35.7891 260.068 44.1962 270.441 44.1962C280.813 44.1962 289.22 35.7891 289.22 25.4166C289.22 15.0441 280.813 6.63696 270.441 6.63696ZM271.207 12.4355C274.222 12.6104 276.96 13.8144 279.079 15.6975L276.368 18.409C274.953 17.2102 273.168 16.4333 271.207 16.2686V12.4355ZM269.679 12.4355V16.2686C267.719 16.4281 265.934 17.2102 264.519 18.409L261.807 15.6975C263.927 13.8144 266.664 12.6104 269.679 12.4355ZM260.727 16.778L263.438 19.4894C262.239 20.9044 261.463 22.6897 261.298 24.65H257.465C257.64 21.6349 258.844 18.8978 260.727 16.778ZM257.465 26.1781H261.298C261.457 28.1384 262.239 29.9237 263.438 31.3386L260.727 34.0501C258.844 31.9303 257.64 29.1931 257.465 26.1781ZM269.679 38.3925C266.664 38.2176 263.927 37.0136 261.807 35.1305L264.519 32.4191C265.934 33.6179 267.719 34.3948 269.679 34.5594V38.3925ZM262.548 25.4114C262.548 21.0535 266.083 17.5189 270.441 17.5189C274.799 17.5189 278.333 21.0535 278.333 25.4114C278.333 29.7693 274.799 33.304 270.441 33.304C266.083 33.304 262.548 29.7693 262.548 25.4114ZM271.207 38.3925V34.5594C273.168 34.3999 274.953 33.6179 276.368 32.4191L279.079 35.1305C276.96 37.0136 274.222 38.2176 271.207 38.3925ZM280.16 34.0501L277.448 31.3386C278.647 29.9237 279.424 28.1384 279.589 26.1781H283.422C283.247 29.1931 282.043 31.9303 280.16 34.0501ZM279.589 24.65C279.429 22.6897 278.647 20.9044 277.448 19.4894L280.16 16.778C282.043 18.8978 283.247 21.6349 283.422 24.65H279.589Z" fill="#7DDACF"/>
<path d="M209.411 49.8329C195.905 49.8329 184.92 38.843 184.92 25.3422C184.92 11.8415 195.91 0.851562 209.411 0.851562C222.912 0.851562 233.902 11.8415 233.902 25.3422C233.902 38.843 222.912 49.8329 209.411 49.8329ZM209.411 2.48255C196.805 2.48255 186.551 12.7367 186.551 25.3422C186.551 37.9477 196.805 48.2019 209.411 48.2019C222.016 48.2019 232.271 37.9477 232.271 25.3422C232.271 12.7367 222.016 2.48255 209.411 2.48255Z" fill="#9DADF2"/>
<path d="M217.356 10.051C217.233 10.051 217.109 10.0253 216.996 9.96867C214.624 8.79558 212.072 8.19875 209.412 8.19875C206.752 8.19875 204.2 8.79558 201.829 9.96867C201.515 10.123 201.139 10.0613 200.892 9.81432L196.683 5.60563C196.503 5.42555 196.421 5.17858 196.452 4.92647C196.483 4.67436 196.627 4.45313 196.843 4.32451C200.635 2.05037 204.982 0.851562 209.418 0.851562C213.853 0.851562 218.2 2.05552 221.992 4.32451C222.208 4.45313 222.352 4.67436 222.383 4.92647C222.414 5.17858 222.327 5.42555 222.152 5.60563L217.943 9.81432C217.784 9.96867 217.578 10.051 217.362 10.051H217.356ZM209.412 6.56776C212.124 6.56776 214.738 7.13373 217.187 8.25022L220.233 5.2043C216.919 3.41895 213.199 2.48255 209.412 2.48255C205.626 2.48255 201.906 3.41895 198.592 5.2043L201.638 8.25022C204.087 7.13373 206.701 6.56776 209.412 6.56776Z" fill="#9DADF2"/>
<path d="M209.411 49.8329C204.976 49.8329 200.629 48.6289 196.837 46.3599C196.621 46.2313 196.477 46.01 196.446 45.7579C196.415 45.5058 196.502 45.2589 196.677 45.0788L200.886 40.8701C201.133 40.6231 201.514 40.5614 201.822 40.7157C204.194 41.8888 206.746 42.4857 209.406 42.4857C212.066 42.4857 214.618 41.8888 216.99 40.7157C217.304 40.5614 217.68 40.6231 217.927 40.8701L222.135 45.0788C222.315 45.2589 222.398 45.5058 222.367 45.7579C222.336 46.01 222.192 46.2313 221.976 46.3599C218.184 48.634 213.836 49.8329 209.401 49.8329H209.411ZM198.591 45.4801C201.905 47.2655 205.625 48.2019 209.411 48.2019C213.198 48.2019 216.918 47.2655 220.232 45.4801L217.186 42.4342C214.737 43.5507 212.123 44.1167 209.411 44.1167C206.7 44.1167 204.086 43.5507 201.637 42.4342L198.591 45.4801Z" fill="#9DADF2"/>
<path d="M229.73 38.3131C229.514 38.3131 229.308 38.2308 229.153 38.0765L224.945 33.8678C224.698 33.6208 224.636 33.2401 224.79 32.9314C225.964 30.5595 226.56 28.0075 226.56 25.3475C226.56 22.6875 225.964 20.1355 224.79 17.7636C224.636 17.4498 224.698 17.069 224.945 16.8272L229.153 12.6185C229.334 12.4384 229.581 12.3561 229.833 12.387C230.085 12.4178 230.306 12.5619 230.435 12.778C232.709 16.5699 233.908 20.9176 233.908 25.3526C233.908 29.7877 232.709 34.1353 230.435 37.9273C230.306 38.1434 230.085 38.2874 229.833 38.3183C229.797 38.3183 229.766 38.3183 229.73 38.3183V38.3131ZM226.504 33.1166L229.55 36.1625C231.335 32.8491 232.271 29.1291 232.271 25.3423C232.271 21.5555 231.335 17.8356 229.55 14.5222L226.504 17.5681C227.62 20.0172 228.186 22.6309 228.186 25.3423C228.186 28.0538 227.62 30.6675 226.504 33.1166Z" fill="#9DADF2"/>
<path d="M189.093 38.3132C189.057 38.3132 189.026 38.3132 188.995 38.308C188.743 38.2772 188.521 38.1331 188.393 37.917C186.119 34.1251 184.92 29.7775 184.92 25.3424C184.92 20.9073 186.119 16.5597 188.393 12.7677C188.521 12.5517 188.743 12.4076 188.995 12.3767C189.247 12.3458 189.494 12.4333 189.674 12.6083L193.883 16.8169C194.13 17.0639 194.191 17.4446 194.037 17.7534C192.864 20.1252 192.267 22.6772 192.267 25.3372C192.267 27.9972 192.864 30.5492 194.037 32.9211C194.191 33.235 194.13 33.6157 193.883 33.8575L189.674 38.0662C189.52 38.2206 189.314 38.308 189.098 38.308L189.093 38.3132ZM189.273 14.5222C187.487 17.8357 186.551 21.5556 186.551 25.3424C186.551 29.1292 187.487 32.8491 189.273 36.1625L192.319 33.1166C191.202 30.6675 190.636 28.0538 190.636 25.3424C190.636 22.6309 191.202 20.0172 192.319 17.5681L189.273 14.5222Z" fill="#9DADF2"/>
<path d="M209.411 6.56274C199.059 6.56274 190.632 14.9853 190.632 25.3424C190.632 35.6995 199.054 44.122 209.411 44.122C219.768 44.122 228.191 35.6995 228.191 25.3424C228.191 14.9853 219.768 6.56274 209.411 6.56274ZM219.979 19.1734C220.869 20.6963 221.41 22.3582 221.585 24.123C221.59 24.195 221.559 24.2619 221.497 24.2979C220.154 25.1211 218.95 26.1296 217.911 27.3078C217.865 27.3644 217.787 27.385 217.721 27.3592L215.4 26.6029C215.333 26.5823 215.287 26.5258 215.277 26.4537C215.014 24.5346 214.417 22.6978 213.502 20.9896C213.471 20.9279 213.476 20.8558 213.517 20.7992L214.952 18.8235C214.989 18.7772 215.045 18.7463 215.102 18.7463C215.117 18.7463 215.127 18.7463 215.143 18.7463C216.676 19.0859 218.251 19.1991 219.815 19.0705C219.887 19.0653 219.954 19.1014 219.99 19.1631L219.979 19.1734ZM214.011 26.7778C214.016 26.8293 214.001 26.8808 213.97 26.9168C212.75 28.3214 211.197 29.4482 209.483 30.1685C209.437 30.1891 209.391 30.1891 209.344 30.1685C207.631 29.443 206.077 28.3162 204.858 26.9168C204.827 26.8808 204.811 26.8293 204.817 26.7778C205.053 24.9153 205.635 23.1351 206.535 21.4887C206.561 21.4424 206.602 21.4115 206.653 21.4012C207.559 21.2109 208.485 21.1131 209.416 21.1131C210.348 21.1131 211.274 21.2109 212.179 21.4012C212.231 21.4115 212.272 21.4424 212.298 21.4887C213.198 23.1351 213.774 24.9153 214.016 26.7778H214.011ZM213.733 14.0077C213.733 14.0077 213.795 13.9563 213.857 13.9563C213.877 13.9563 213.903 13.9563 213.929 13.9717C215.822 14.7229 217.515 15.9577 218.832 17.5373C218.899 17.6144 218.873 17.6968 218.858 17.7276C218.847 17.7533 218.801 17.8357 218.693 17.8357C217.525 17.8511 216.362 17.7173 215.235 17.4498C215.189 17.4395 215.148 17.4086 215.122 17.3675C214.52 16.3745 214.037 15.3043 213.687 14.1929C213.656 14.0952 213.713 14.0283 213.738 14.0077H213.733ZM206.813 13.3903C208.516 13.025 210.312 13.025 212.015 13.3903C212.082 13.4057 212.138 13.4572 212.154 13.5241C212.519 15.0522 213.111 16.5134 213.908 17.8665C213.944 17.9283 213.939 18.0054 213.898 18.0672L212.473 20.0326C212.431 20.0892 212.359 20.1201 212.292 20.1047C210.409 19.7239 208.418 19.7239 206.535 20.1047C206.468 20.1201 206.396 20.0892 206.355 20.0326L204.93 18.0672C204.889 18.0106 204.884 17.9283 204.92 17.8665C205.717 16.5134 206.309 15.0522 206.674 13.5241C206.689 13.4572 206.746 13.4057 206.813 13.3903ZM199.996 17.5373C201.313 15.9526 203.006 14.7177 204.899 13.9717C204.925 13.9614 204.95 13.9563 204.971 13.9563C205.038 13.9563 205.079 13.9923 205.094 14.0077C205.12 14.0334 205.177 14.0952 205.146 14.1929C204.796 15.3094 204.312 16.3745 203.71 17.3675C203.685 17.4086 203.644 17.4395 203.597 17.4498C202.47 17.7173 201.308 17.8511 200.14 17.8357C200.032 17.8357 199.985 17.7533 199.975 17.7276C199.96 17.6968 199.934 17.6144 200.001 17.5373H199.996ZM198.848 19.1734C198.879 19.1168 198.941 19.0808 199.008 19.0808C199.008 19.0808 199.018 19.0808 199.023 19.0808C200.593 19.2043 202.167 19.0962 203.695 18.7566C203.767 18.7412 203.839 18.7669 203.88 18.8287L205.316 20.8044C205.357 20.861 205.362 20.9382 205.331 20.9947C204.415 22.7029 203.818 24.5397 203.556 26.4588C203.546 26.5257 203.499 26.5823 203.433 26.6081L201.112 27.3644C201.045 27.385 200.968 27.3644 200.922 27.313C199.882 26.1347 198.679 25.1263 197.336 24.303C197.279 24.267 197.243 24.2002 197.248 24.1281C197.423 22.3634 197.963 20.6964 198.853 19.1785L198.848 19.1734ZM199.409 31.8509C199.378 31.9487 199.291 31.9693 199.255 31.9744C199.219 31.9744 199.136 31.9744 199.08 31.8921C197.984 30.1685 197.336 28.1722 197.207 26.1244C197.202 26.0215 197.269 25.9701 197.3 25.9546C197.331 25.9392 197.413 25.9032 197.495 25.9649C198.447 26.6389 199.311 27.4313 200.068 28.3111C200.099 28.3471 200.114 28.3934 200.109 28.4449C200.016 29.6025 199.78 30.7499 199.404 31.8561L199.409 31.8509ZM204.492 36.5484C202.887 35.8435 201.472 34.8094 200.289 33.4819C200.243 33.4305 200.227 33.3533 200.253 33.2916C200.855 31.8406 201.236 30.3125 201.385 28.7484C201.39 28.6764 201.441 28.6147 201.508 28.5941L203.803 27.848C203.803 27.848 203.839 27.8377 203.86 27.8377C203.911 27.8377 203.957 27.8583 203.993 27.8995C205.28 29.3401 206.89 30.5132 208.655 31.2901C208.722 31.321 208.763 31.3827 208.763 31.4548V33.8678C208.763 33.9398 208.722 34.0067 208.655 34.0325C207.214 34.655 205.877 35.4937 204.678 36.5175C204.626 36.5639 204.549 36.5741 204.487 36.5433L204.492 36.5484ZM212.586 37.0578C212.581 37.0938 212.555 37.1761 212.452 37.2018C210.466 37.706 208.367 37.706 206.381 37.2018C206.283 37.1761 206.252 37.0938 206.247 37.0578C206.242 37.0218 206.232 36.9394 206.319 36.8726C207.255 36.178 208.274 35.5966 209.349 35.1489C209.396 35.1283 209.442 35.1283 209.488 35.1489C210.559 35.5966 211.577 36.178 212.519 36.8726C212.601 36.9343 212.596 37.0218 212.591 37.0578H212.586ZM218.549 33.4871C217.366 34.8145 215.951 35.8435 214.345 36.5484C214.278 36.5793 214.206 36.5638 214.155 36.5227C212.956 35.4988 211.624 34.6602 210.178 34.0376C210.111 34.0067 210.07 33.945 210.07 33.873V31.4599C210.07 31.3879 210.111 31.321 210.178 31.2953C211.943 30.5183 213.558 29.3452 214.839 27.9046C214.875 27.8635 214.922 27.8429 214.973 27.8429C214.994 27.8429 215.009 27.8429 215.03 27.8532L217.324 28.5992C217.391 28.6198 217.443 28.6815 217.448 28.7536C217.597 30.3177 217.978 31.8406 218.58 33.2967C218.606 33.3584 218.595 33.4356 218.544 33.4871H218.549ZM219.753 31.8972C219.696 31.9847 219.609 31.9847 219.578 31.9796C219.542 31.9796 219.46 31.9538 219.424 31.8561C219.053 30.7499 218.816 29.6025 218.719 28.4449C218.719 28.3986 218.729 28.3471 218.76 28.3111C219.516 27.4313 220.381 26.6441 221.332 25.9649C221.368 25.9392 221.404 25.9289 221.435 25.9289C221.476 25.9289 221.507 25.9443 221.528 25.9546C221.559 25.9701 221.631 26.0215 221.621 26.1244C221.492 28.1722 220.844 30.1685 219.748 31.8921L219.753 31.8972Z" fill="#9DADF2"/>
<path d="M148.949 1.00835C162.455 1.00835 173.445 11.9983 173.445 25.5042C173.445 39.0101 162.455 50 148.949 50C135.443 50 124.453 39.0101 124.453 25.5042C124.453 11.9983 135.443 1.00835 148.949 1.00835ZM148.949 48.2352C161.482 48.2352 171.68 38.0376 171.68 25.5042C171.68 12.9707 161.482 2.77312 148.949 2.77312C136.415 2.77312 126.218 12.9707 126.218 25.5042C126.218 38.0376 136.415 48.2352 148.949 48.2352Z" fill="#478BF9"/>
<path d="M89.07 1.00694C89.5588 1.00694 89.9499 1.40309 89.9499 1.88673C89.9499 2.37037 89.5537 2.76655 89.07 2.76655C76.5366 2.76655 66.339 12.9641 66.339 25.4976C66.339 38.0311 76.5366 48.2287 89.07 48.2287C89.5588 48.2287 89.9499 48.6248 89.9499 49.1085C89.9499 49.5921 89.5537 49.9883 89.07 49.9883C75.5641 49.9883 64.5742 38.9984 64.5742 25.4925C64.5742 11.9866 75.5641 0.996635 89.07 0.996635V1.00694Z" fill="#478BF9"/>
<path d="M144.236 21.1715C144.236 22.0719 144.848 22.8539 145.723 23.07L147.385 23.4868V19.2112H146.201C145.121 19.2112 144.241 20.091 144.241 21.1715H144.236Z" fill="#478BF9"/>
<path d="M150.522 31.7858H151.706C152.786 31.7858 153.666 30.906 153.666 29.8256C153.666 28.9252 153.054 28.1431 152.179 27.927L150.517 27.5103V31.7858H150.522Z" fill="#478BF9"/>
<path d="M148.954 5.56665C137.964 5.56665 129.017 14.5088 129.017 25.5039C129.017 36.499 137.959 45.4412 148.954 45.4412C159.949 45.4412 168.891 36.499 168.891 25.5039C168.891 14.5088 159.949 5.56665 148.954 5.56665ZM156.816 22.3551H153.672V20.7807C153.672 19.9163 152.967 19.2063 152.098 19.2063H150.523V24.2691L152.946 24.8762C155.221 25.4473 156.81 27.4797 156.81 29.8258C156.81 32.6402 154.521 34.9298 151.707 34.9298H150.523V38.9121H147.379V34.9298H145.805C143.202 34.9298 141.087 32.8151 141.087 30.2117V28.6373H144.231V30.2117C144.231 31.0761 144.936 31.7861 145.805 31.7861H147.379V26.7233L144.956 26.1162C142.682 25.5451 141.092 23.5128 141.092 21.1666C141.092 18.3522 143.382 16.0627 146.196 16.0627H147.379V12.0804H150.523V16.0627H152.098C154.701 16.0627 156.816 18.1773 156.816 20.7807V22.3551Z" fill="#478BF9"/>
<path d="M88.6945 0.977932L147.812 0.977932C148.301 0.977932 148.692 1.37409 148.692 1.85772C148.692 2.34136 148.295 2.73755 147.812 2.73755L88.6945 2.73755C88.2057 2.73755 87.8147 2.34136 87.8147 1.85772C87.8147 1.37409 88.2109 0.977932 88.6945 0.977932Z" fill="#478BF9"/>
<path d="M88.5656 48.2021L147.683 48.2021C148.172 48.2021 148.563 48.5982 148.563 49.0819C148.563 49.5655 148.166 49.9617 147.683 49.9617L88.5656 49.9617C88.0768 49.9617 87.6858 49.5655 87.6858 49.0819C87.6858 48.5982 88.0819 48.2021 88.5656 48.2021Z" fill="#478BF9"/>
<path d="M24.9528 49.9153C18.6758 49.9153 12.4039 47.528 7.62409 42.7482C-1.93036 33.1937 -1.93036 17.6503 7.62409 8.09588C12.2547 3.46529 18.4082 0.918457 24.9528 0.918457C31.4974 0.918457 37.6509 3.46529 42.2815 8.09588C51.836 17.6503 51.836 33.1937 42.2815 42.7482C37.5069 47.5228 31.2298 49.9153 24.9528 49.9153ZM8.91037 41.4619C17.7548 50.3063 32.1457 50.3063 40.9901 41.4619C49.8345 32.6175 49.8345 18.2266 40.9901 9.38216C36.7042 5.09629 31.0086 2.73984 24.9477 2.73984C18.8867 2.73984 13.1911 5.10143 8.90522 9.38216C0.0607874 18.2266 0.0607874 32.6175 8.90522 41.4619H8.91037Z" fill="#9DADF2"/>
<path d="M24.6289 34.5879C24.7163 34.7989 24.9221 34.9223 25.1382 34.9223C25.2103 34.9223 25.2823 34.9069 25.3543 34.8811C27.0831 34.1557 28.6575 33.034 29.9026 31.6346C30.1033 31.4082 30.0827 31.0584 29.8563 30.8577C29.6299 30.657 29.28 30.6776 29.0794 30.904C27.9423 32.1851 26.5068 33.209 24.9273 33.8676C24.6494 33.9859 24.5157 34.3101 24.634 34.5879H24.6289Z" fill="#9DADF2"/>
<path d="M34.2905 16.9507L25.1528 13.2976C25.019 13.2462 24.875 13.2462 24.7412 13.2976L15.6035 16.9507C15.3926 17.033 15.2588 17.2336 15.2588 17.46V24.0046C15.2691 30.0449 19.0868 35.5039 24.7567 37.5825C24.8184 37.6031 24.8801 37.6134 24.947 37.6134C25.0139 37.6134 25.0757 37.6031 25.1374 37.5825C30.8073 35.4987 34.6249 30.0449 34.6352 24.0046V17.46C34.6352 17.2336 34.5015 17.033 34.2905 16.9507ZM33.5342 24.0046C33.5239 29.4995 30.0767 34.5057 24.9521 36.4763C19.8276 34.5057 16.3753 29.4995 16.365 24.0046V17.8356L24.9521 14.4038L33.5342 17.8356V24.0046Z" fill="#9DADF2"/>
<path d="M21.1346 17.8098C21.0009 17.7532 20.8516 17.7532 20.7127 17.8098L18.5364 18.6793C18.3254 18.7617 18.1917 18.9623 18.1917 19.1887V21.5091C18.1917 21.8127 18.4386 22.0596 18.7422 22.0596C19.0457 22.0596 19.2927 21.8127 19.2927 21.5091V19.5643L21.1192 18.8337C21.2581 18.7771 21.361 18.6742 21.4228 18.5353C21.4794 18.4015 21.4794 18.2523 21.4228 18.1134C21.3662 17.9745 21.2633 17.8715 21.1295 17.8098H21.1346Z" fill="#9DADF2"/>
<path d="M38.8703 11.5069C35.1555 7.787 30.211 5.74438 24.9527 5.74438C19.6944 5.74438 14.7552 7.79214 11.0352 11.5069C3.3639 19.1783 3.3639 31.6654 11.0352 39.3419C14.8735 43.1802 19.9105 45.0941 24.9527 45.0941C29.9949 45.0941 35.032 43.175 38.8703 39.3419C46.5416 31.6706 46.5416 19.1834 38.8703 11.5069ZM36.1485 24.0043C36.1639 30.9862 31.7031 37.0935 25.0505 39.2081C24.9888 39.2287 24.9219 39.2287 24.855 39.2081C18.2024 37.0935 13.7416 30.9862 13.757 24.0043V16.2815C13.757 16.1529 13.8342 16.0346 13.9577 15.9832L24.8344 11.6355C24.8704 11.6201 24.9116 11.615 24.9527 11.615C24.9939 11.615 25.0351 11.6201 25.0711 11.6355L35.9479 15.9883C36.0713 16.0346 36.1485 16.1529 36.1485 16.2867V24.0095V24.0043Z" fill="#9DADF2"/>
</svg>
