<svg width="102" height="589" viewBox="0 0 102 589" fill="none" xmlns="http://www.w3.org/2000/svg">
<path d="M1.54688 417.461C1.54688 390.139 23.7798 367.906 51.1024 367.906C78.4251 367.906 100.658 390.139 100.658 417.461C100.658 444.784 78.4251 467.017 51.1024 467.017C23.7798 467.017 1.54688 444.784 1.54688 417.461ZM97.0878 417.461C97.0878 392.106 76.4579 371.476 51.1024 371.476C25.747 371.476 5.11709 392.106 5.11709 417.461C5.11709 442.817 25.747 463.447 51.1024 463.447C76.4579 463.447 97.0878 442.817 97.0878 417.461Z" fill="#478BF9"/>
<path d="M1.54421 538.607C1.54421 537.618 2.3457 536.827 3.32411 536.827C4.30252 536.827 5.10401 537.629 5.10401 538.607C5.10401 563.963 25.7339 584.593 51.0894 584.593C76.4448 584.593 97.0747 563.963 97.0747 538.607C97.0747 537.618 97.8762 536.827 98.8546 536.827C99.833 536.827 100.634 537.629 100.634 538.607C100.634 565.93 78.4016 588.163 51.0789 588.163C23.7563 588.163 1.52344 565.93 1.52344 538.607H1.54421Z" fill="#478BF9"/>
<path d="M99.1434 416.264H77.4414V420.542H99.1434V416.264Z" fill="#478BF9"/>
<path d="M24.4208 416.264H2.71875V420.542H24.4208V416.264Z" fill="#478BF9"/>
<path d="M53.4107 445.242H49.1328V466.944H53.4107V445.242Z" fill="#478BF9"/>
<path d="M53.4107 369.863H49.1328V391.565H53.4107V369.863Z" fill="#478BF9"/>
<path d="M76.7859 391.252C61.9432 376.409 37.868 376.409 23.0148 391.252C8.17213 406.095 8.17213 430.17 23.0148 445.023C37.8576 459.866 61.9328 459.866 76.7859 445.023C91.6286 430.18 91.6286 406.105 76.7859 391.252ZM57.2489 394.468C61.5789 395.811 65.4613 398.32 68.4798 401.734L69.0626 402.389L68.2092 402.587C65.9505 403.118 63.5357 403.555 61.0376 403.878L60.5901 403.94L60.4652 403.503C60.0488 402.077 59.5596 400.703 58.9975 399.433C58.3001 397.841 57.5195 396.446 56.666 395.27L55.7292 393.99L57.2489 394.458V394.468ZM39.8768 416.951L39.8977 416.41C40.0018 413.121 40.3661 409.977 40.9906 407.084L41.0843 406.626L41.5526 406.667C47.0276 407.146 52.8773 407.125 58.321 406.615L58.7893 406.574L58.8934 407.032C59.5284 409.957 59.8927 413.11 59.9863 416.41V416.951H39.8873H39.8768ZM59.9863 419.366V419.907C59.8718 423.207 59.5075 426.36 58.8726 429.285L58.7685 429.743L58.3001 429.702C52.8564 429.192 47.0068 429.181 41.5319 429.65L41.0634 429.691L40.9697 429.233C40.3452 426.34 39.9809 423.207 39.8768 419.907L39.856 419.366H59.9655H59.9863ZM49.9316 393.563C52.9605 393.563 56.0415 397.404 57.9671 403.597L58.1648 404.221L57.5091 404.273C54.9486 404.492 52.3048 404.606 49.6506 404.606C47.1837 404.606 44.7273 404.513 42.3333 404.315L41.6775 404.263L41.8753 403.628C43.8009 397.414 46.8923 393.552 49.9316 393.552V393.563ZM31.2793 401.848C34.3186 398.382 38.2323 395.832 42.6143 394.479L44.1444 394.01L43.1972 395.301C42.3437 396.467 41.5527 397.872 40.8657 399.454C40.314 400.703 39.8144 402.098 39.3773 403.597L39.2524 404.024L38.8048 403.972C36.2859 403.659 33.8503 403.243 31.5604 402.712L30.6964 402.514L31.2793 401.848ZM25.2007 416.389C25.4921 412.33 26.7932 408.374 28.9686 404.929L29.1768 404.606L29.5515 404.7C32.2161 405.377 35.0889 405.918 38.1074 406.303L38.6695 406.376L38.5549 406.938C37.9304 409.956 37.5766 413.152 37.4829 416.441V416.951H25.1694L25.2111 416.389H25.2007ZM29.1768 431.711L28.9686 431.388C26.7932 427.953 25.4921 423.987 25.2007 419.928L25.159 419.366H37.462V419.876C37.5661 423.165 37.9305 426.371 38.5446 429.379L38.6591 429.941L38.097 430.014C35.0889 430.399 32.2057 430.94 29.5411 431.617L29.1664 431.711H29.1768ZM42.6143 441.849C38.2323 440.495 34.3186 437.945 31.2793 434.479L30.6964 433.813L31.5604 433.615C33.8503 433.095 36.2859 432.668 38.8048 432.356L39.2524 432.304L39.3773 432.731C39.8144 434.229 40.314 435.624 40.8657 436.873C41.5631 438.466 42.3437 439.86 43.1972 441.037L44.1444 442.327L42.6143 441.859V441.849ZM49.9316 442.754C46.8923 442.754 43.8009 438.892 41.8753 432.679L41.6775 432.044L42.3333 431.992C47.2982 431.596 52.5858 431.606 57.5091 432.033L58.1648 432.085L57.9671 432.71C56.0311 438.892 52.9501 442.744 49.9316 442.744V442.754ZM68.4798 434.583C65.4613 437.997 61.5684 440.506 57.2489 441.849L55.7292 442.317L56.666 441.037C57.5195 439.871 58.3001 438.466 58.9975 436.873C59.5492 435.593 60.0488 434.229 60.4652 432.803L60.5901 432.366L61.0376 432.429C63.5357 432.751 65.9505 433.189 68.2092 433.719L69.0626 433.928L68.4798 434.583ZM74.6521 419.928C74.3607 424.029 73.0388 428.036 70.8113 431.513L70.6032 431.835L70.2285 431.742C67.5951 431.044 64.7327 430.493 61.735 430.087L61.1729 430.014L61.2874 429.462C61.9119 426.444 62.2762 423.227 62.3699 419.886V419.376H74.6833L74.6417 419.938L74.6521 419.928ZM62.3907 416.951V416.441C62.2866 413.1 61.9224 409.873 61.2978 406.865L61.1834 406.313L61.7454 406.241C64.7431 405.835 67.595 405.283 70.2388 404.586L70.6136 404.492L70.8217 404.815C73.0491 408.291 74.3815 412.288 74.6625 416.399L74.7042 416.961H62.4011L62.3907 416.951Z" fill="#478BF9"/>
<path d="M1.48462 539.357V419.762C1.48462 418.773 2.28611 417.982 3.26452 417.982C4.24293 417.982 5.04442 418.783 5.04442 419.762V539.357C5.04442 540.346 4.24293 541.137 3.26452 541.137C2.28611 541.137 1.48462 540.335 1.48462 539.357Z" fill="#478BF9"/>
<path d="M97.0352 539.628V420.032C97.0352 419.044 97.8366 418.252 98.815 418.252C99.7934 418.252 100.595 419.054 100.595 420.032V539.628C100.595 540.616 99.7934 541.407 98.815 541.407C97.8366 541.407 97.0352 540.606 97.0352 539.628Z" fill="#478BF9"/>
<path d="M14.8282 330.452C-4.66149 310.962 -4.66149 279.253 14.8282 259.764C34.318 240.274 66.0266 240.274 85.5164 259.764C105.006 279.253 105.006 310.962 85.5164 330.452C66.0266 349.941 34.318 349.941 14.8282 330.452ZM83.1607 262.119C64.9697 243.928 35.3749 243.928 17.1886 262.119C-1.00244 280.31 -1.00244 309.905 17.1886 328.091C35.3796 346.282 64.9744 346.282 83.1607 328.091C101.352 309.9 101.352 280.305 83.1607 262.119Z" fill="white"/>
<path d="M83.7002 284.505C83.5248 284.33 83.3827 284.107 83.3021 283.86C81.5721 278.741 78.7472 274.205 74.908 270.366C71.0736 266.532 66.5329 263.707 61.414 261.972C60.7363 261.74 60.2812 261.11 60.2812 260.394V248.246C60.2812 247.734 60.5182 247.251 60.9211 246.933C61.3287 246.616 61.8548 246.507 62.3478 246.63C71.0973 248.82 79.1074 253.36 85.506 259.764C91.9046 266.167 96.4453 274.172 98.6351 282.922C98.7583 283.42 98.6446 283.946 98.3317 284.353C98.0142 284.761 97.5307 284.993 97.0188 284.993H84.8709C84.4159 284.993 83.9988 284.808 83.6907 284.5L83.7002 284.505ZM77.2636 268.011C81.1786 271.926 84.1315 276.514 86.0558 281.661H94.8433C92.6346 274.305 88.62 267.584 83.1551 262.119C77.6902 256.654 70.9693 252.64 63.618 250.436V259.223C68.7654 261.143 73.3534 264.096 77.2684 268.015L77.2636 268.011Z" fill="white"/>
<path d="M14.8271 330.452C8.42843 324.053 3.88303 316.043 1.69328 307.293C1.57005 306.796 1.68381 306.27 1.99663 305.867C2.31419 305.459 2.79762 305.227 3.30951 305.227H15.4574C16.1731 305.227 16.8082 305.682 17.0357 306.36C18.7657 311.479 21.5906 316.014 25.4298 319.854C29.2642 323.688 33.8049 326.513 38.9238 328.248C39.6016 328.475 40.0565 329.11 40.0565 329.826V341.974C40.0565 342.486 39.8196 342.969 39.4167 343.287C39.0091 343.604 38.483 343.713 37.9853 343.59C29.2358 341.4 21.2304 336.86 14.8271 330.461V330.452ZM5.49454 308.554C7.70325 315.91 11.7178 322.631 17.1827 328.096C22.6476 333.561 29.3685 337.575 36.7246 339.784V330.997C31.5772 329.077 26.9892 326.124 23.0741 322.209C19.1591 318.294 16.2063 313.706 14.282 308.559H5.49454V308.554Z" fill="white"/>
<path d="M60.7773 343.145C60.4644 342.832 60.2891 342.41 60.2891 341.965V329.817C60.2891 329.101 60.7441 328.466 61.4219 328.238C66.5408 326.508 71.0767 323.683 74.9158 319.844C78.755 316.005 81.5751 311.469 83.3098 306.35C83.5374 305.673 84.1725 305.218 84.8882 305.218H97.0361C97.548 305.218 98.0315 305.455 98.349 305.857C98.6666 306.26 98.7756 306.791 98.6524 307.284C96.4579 316.034 91.9172 324.039 85.5186 330.442C79.12 336.846 71.1098 341.386 62.3603 343.576C61.8626 343.699 61.3365 343.586 60.9337 343.273C60.8815 343.225 60.8294 343.183 60.782 343.135L60.7773 343.145ZM63.6211 330.992V339.78C70.9771 337.571 77.6981 333.556 83.1629 328.091C88.6278 322.627 92.6377 315.906 94.8511 308.55H86.0637C84.1441 313.697 81.1912 318.28 77.2715 322.2C73.3564 326.115 68.7684 329.073 63.6211 330.992Z" fill="white"/>
<path d="M2.13007 284.505C2.08267 284.458 2.03529 284.405 1.99737 284.353C1.67981 283.95 1.57079 283.42 1.69402 282.922C3.88377 274.172 8.42443 266.162 14.8278 259.764C21.2312 253.365 29.2365 248.82 37.986 246.63C38.4837 246.507 39.0098 246.62 39.4127 246.933C39.8156 247.251 40.0526 247.734 40.0526 248.246V260.394C40.0526 261.11 39.5976 261.745 38.9198 261.972C33.8009 263.702 29.2649 266.527 25.4258 270.366C21.5913 274.201 18.7665 278.741 17.0317 283.86C16.8042 284.538 16.1691 284.993 15.4534 284.993H3.30554C2.86001 284.993 2.43341 284.818 2.12533 284.51L2.13007 284.505ZM36.7206 250.436C29.3645 252.645 22.6436 256.659 17.1787 262.124C11.7138 267.589 7.70399 274.31 5.49054 281.666H14.278C16.1976 276.518 19.1504 271.935 23.0701 268.015C26.9852 264.1 31.5732 261.148 36.7206 259.223V250.436Z" fill="white"/>
<path d="M77.2676 268.011C62.328 253.071 38.0133 253.066 23.0737 268.011C8.12933 282.955 8.13407 307.265 23.0737 322.205C38.0133 337.144 62.3232 337.149 77.2676 322.205C92.2119 307.26 92.2072 282.95 77.2676 268.011Z" fill="white"/>
<path d="M63.9943 308.785L36.4666 308.968C35.307 308.975 34.3732 309.922 34.3809 311.081L34.3874 312.062C34.3951 313.222 35.3414 314.156 36.501 314.148L64.0286 313.966C65.1882 313.958 66.1221 313.012 66.1144 311.852L66.1079 310.871C66.1002 309.711 65.1539 308.777 63.9943 308.785Z" fill="#110A1D"/>
<path d="M40.2172 292.169C39.9186 292.169 39.6152 292.103 39.3403 291.97L37.1932 290.932C36.2595 290.477 35.8329 289.373 36.2216 288.41L37.2075 285.955C37.5108 285.206 38.2265 284.718 39.0323 284.713C39.3783 284.713 39.7195 284.799 40.0228 284.974L42.5823 286.434C43.061 286.704 43.407 287.173 43.5302 287.714C43.6535 288.254 43.5445 288.823 43.2316 289.278L41.8287 291.311C41.4637 291.842 40.857 292.164 40.2124 292.164L40.2172 292.169Z" fill="#110A1D"/>
<path d="M60.032 292.036C59.3874 292.036 58.776 291.728 58.4063 291.202L57.0176 289.245C56.6953 288.795 56.5816 288.226 56.6953 287.685C56.8091 287.145 57.1503 286.671 57.629 286.391L60.269 284.842C60.5676 284.666 60.9089 284.571 61.2549 284.567C62.0607 284.562 62.7859 285.041 63.0987 285.785L64.094 288.169C64.4921 289.126 64.0798 290.24 63.1555 290.705L60.9089 291.828C60.6388 291.961 60.3354 292.036 60.0368 292.036H60.032Z" fill="#110A1D"/>
<path d="M38.0546 307.128C36.846 307.137 35.7606 306.379 35.3482 305.241L30.7555 292.6C30.4616 292.743 30.1488 292.852 29.8312 292.932C29.4568 293.027 29.0776 293.074 28.6937 293.074C28.4709 293.074 28.2529 293.065 28.0396 293.036C25.646 292.733 23.8307 290.681 23.8165 288.264C23.7976 285.59 25.9588 283.401 28.632 283.382C31.3052 283.363 33.495 285.524 33.5092 288.197C33.5092 288.813 33.4049 289.406 33.1869 289.96C33.0684 290.264 32.9215 290.553 32.7509 290.828L41.4862 295.056L48.1692 285.372C47.8896 285.254 47.6194 285.107 47.3634 284.931C46.88 284.604 46.4581 284.197 46.1169 283.718C45.5386 282.903 45.2258 281.941 45.2211 280.945C45.2021 278.272 47.3634 276.082 50.0366 276.063C50.1551 276.063 50.2784 276.063 50.3969 276.073C52.7904 276.234 54.7242 278.154 54.8996 280.547C54.9802 281.68 54.6816 282.765 54.037 283.69C53.6957 284.173 53.2786 284.585 52.7999 284.913C52.5487 285.088 52.2785 285.235 51.9989 285.353L58.8004 294.937L67.3935 290.638C67.2323 290.33 67.1044 290.008 67.0096 289.671C66.8958 289.264 66.8342 288.837 66.8342 288.406C66.8342 288.211 66.8437 288.017 66.8626 287.827C67.1375 285.391 69.1946 283.543 71.645 283.529C74.3182 283.51 76.508 285.671 76.5222 288.344C76.5411 290.894 74.5599 293.036 72.0147 293.212L71.7114 293.221C71.2184 293.221 70.735 293.155 70.2658 293.013C69.9624 292.918 69.6685 292.799 69.3936 292.648L65.0805 305.042C64.6871 306.184 63.6064 306.952 62.3978 306.962L38.0546 307.123V307.128Z" fill="#110A1D"/>
<path d="M50.6154 221.407C37.9169 221.407 25.2288 216.577 15.5591 206.908C-3.76971 187.579 -3.76971 156.135 15.5591 136.806C24.9269 127.438 37.3756 122.286 50.6154 122.286C63.8552 122.286 76.3039 127.438 85.6717 136.806C105.001 156.135 105.001 187.579 85.6717 206.908C76.0125 216.567 63.3139 221.407 50.6154 221.407ZM18.1613 204.306C36.0537 222.198 65.1667 222.198 83.0591 204.306C100.952 186.413 100.952 157.3 83.0591 139.408C74.3887 130.737 62.8664 125.97 50.605 125.97C38.3436 125.97 26.8213 130.748 18.1509 139.408C0.258422 157.3 0.258422 186.413 18.1509 204.306H18.1613Z" fill="#7DDACF"/>
<path d="M52.45 161.422L43.2695 174.287H48.7757V183.468L57.9561 170.613H52.45V161.422Z" fill="#7DDACF"/>
<path d="M50.6057 154.271C40.551 154.271 32.3906 162.432 32.3906 172.487C32.3906 182.541 40.551 190.681 50.6057 190.681C60.6605 190.681 68.8209 182.521 68.8209 172.487C68.8209 162.453 60.6605 154.271 50.6057 154.271ZM50.6057 188.433C41.7792 188.433 34.6181 181.272 34.6181 172.445C34.6181 163.618 41.7792 156.457 50.6057 156.457C59.4323 156.457 66.5935 163.618 66.5935 172.445C66.5935 181.272 59.4323 188.433 50.6057 188.433Z" fill="#7DDACF"/>
<path d="M78.7627 143.707C71.2477 136.181 61.2449 132.049 50.6073 132.049C39.9697 132.049 29.9774 136.192 22.452 143.707C6.93268 159.226 6.93268 184.488 22.452 200.017C30.2168 207.782 40.4068 211.665 50.6073 211.665C60.8078 211.665 70.9979 207.782 78.7627 200.017C94.282 184.498 94.282 159.236 78.7627 143.707ZM50.6073 197.197C36.9928 197.197 25.9076 186.112 25.9076 172.497C25.9076 166.481 28.0622 160.964 31.6428 156.655L28.6243 153.637C27.7604 152.773 27.7604 151.368 28.6243 150.493C29.4882 149.619 30.8934 149.629 31.7677 150.493L34.7862 153.512C38.5333 150.379 43.2484 148.318 48.3903 147.881V145.841H46.3502C44.5495 145.841 43.061 144.352 43.061 142.551V140.834C43.061 139.012 44.5495 137.545 46.3502 137.545H54.8853C56.686 137.545 58.1744 139.012 58.1744 140.834V142.551C58.1744 144.352 56.686 145.841 54.8853 145.841H52.8452V147.881C57.9975 148.328 62.7022 150.389 66.4493 153.512L69.4677 150.493C70.3317 149.629 71.7368 149.629 72.6112 150.493C73.4751 151.357 73.4751 152.762 72.6112 153.637L69.5926 156.655C73.1732 160.964 75.3278 166.47 75.3278 172.497C75.3278 186.112 64.2426 197.197 50.6281 197.197H50.6073Z" fill="#7DDACF"/>
<path d="M51.5451 99.1234C24.2225 99.1234 2 76.8906 2 49.5783C2 22.2661 24.2329 0.0332031 51.5451 0.0332031C78.8574 0.0332031 101.09 22.2661 101.09 49.5783C101.09 76.8906 78.8574 99.1234 51.5451 99.1234ZM51.5451 3.33272C26.044 3.33272 5.29958 24.0772 5.29958 49.5783C5.29958 75.0795 26.044 95.8239 51.5451 95.8239C77.0463 95.8239 97.7907 75.0795 97.7907 49.5783C97.7907 24.0772 77.0463 3.33272 51.5451 3.33272Z" fill="white"/>
<path d="M83.8732 14.2242L68.5349 29.5625L71.5525 32.5801L86.8908 17.2418L83.8732 14.2242Z" fill="white"/>
<path d="M31.0763 67.0231L15.738 82.3613L18.7556 85.3789L34.0939 70.0407L31.0763 67.0231Z" fill="white"/>
<path d="M72.0173 67.0203L68.9998 70.0378L84.338 85.3761L87.3556 82.3585L72.0173 67.0203Z" fill="white"/>
<path d="M18.7673 13.7593L15.7498 16.7769L31.0807 32.1078L34.0983 29.0902L18.7673 13.7593Z" fill="white"/>
<path d="M63.641 50.9107C64.6402 49.9115 64.6402 48.2981 63.641 47.3093L61.5176 45.1963C60.5183 44.1971 58.905 44.1971 57.9162 45.1963L56.7712 46.3413L55.4494 45.0194C54.4501 44.0202 52.8368 44.0202 51.848 45.0194L50.703 46.1747L49.3811 44.8424C48.3819 43.8432 46.7685 43.8432 45.7797 44.8424L38.7539 51.8683C38.7018 51.9203 38.7018 52.0036 38.7539 52.066C39.6907 53.0028 41.2208 53.0028 42.1679 52.066L46.6957 47.5383C47.1849 47.0491 47.9759 47.0491 48.4652 47.5383L48.7982 47.8714C48.8607 47.9338 48.8607 48.0275 48.7982 48.0899L45.0199 51.8683C44.9679 51.9203 44.9679 52.0036 45.0199 52.066C45.9567 53.0028 47.4867 53.0028 48.4339 52.066L52.7743 47.7257C53.2635 47.2364 54.0546 47.2364 54.5438 47.7257L54.8768 48.0587C54.9289 48.1107 54.9289 48.194 54.8768 48.2565L51.2338 51.8995C51.1818 51.9515 51.1818 52.0348 51.2338 52.0973C52.1706 53.034 53.7007 53.034 54.6479 52.0973L58.8425 47.9026C59.3317 47.4134 60.1228 47.4134 60.612 47.9026L61.3302 48.6208C61.6112 48.9018 61.6112 49.3702 61.3302 49.6512L61.2157 49.7657C60.9347 50.0468 60.4663 50.0468 60.1853 49.7657L59.2589 48.8394C59.2069 48.7873 59.1236 48.7873 59.0611 48.8394L57.4582 50.4423C57.4062 50.4943 57.4062 50.5776 57.4582 50.6401L58.905 52.0868C59.9043 53.0861 61.5176 53.0861 62.5064 52.0868L63.6514 50.9419L63.641 50.9107Z" fill="white"/>
<path d="M51.5462 11.5764C30.5624 11.5764 13.5547 28.5841 13.5547 49.5679C13.5547 70.5517 30.5624 87.5594 51.5462 87.5594C72.53 87.5594 89.5377 70.5517 89.5377 49.5679C89.5377 28.5841 72.53 11.5764 51.5462 11.5764ZM53.0971 23.3069C59.1965 23.6608 64.7339 26.0964 69.0223 29.906L63.5369 35.3914C60.6745 32.9662 57.0628 31.3945 53.0971 31.0614V23.3069ZM50.0057 23.3069V31.0614C46.04 31.3841 42.4282 32.9662 39.5659 35.3914L34.0805 29.906C38.3688 26.0964 43.9062 23.6608 50.0057 23.3069ZM31.8947 32.0918L37.38 37.5772C34.9548 40.4396 33.3831 44.0514 33.05 48.0171H25.2956C25.6495 41.9176 28.0851 36.3802 31.8947 32.0918ZM25.2956 51.1084H33.05C33.3727 55.0741 34.9548 58.6859 37.38 61.5483L31.8947 67.0336C28.0851 62.7453 25.6495 57.2079 25.2956 51.1084ZM50.0057 75.8185C43.9062 75.4646 38.3688 73.029 34.0805 69.2194L39.5659 63.7341C42.4282 66.1593 46.04 67.731 50.0057 68.0641V75.8185ZM35.5793 49.5575C35.5793 40.7414 42.7301 33.5907 51.5462 33.5907C60.3623 33.5907 67.513 40.7414 67.513 49.5575C67.513 58.3736 60.3623 65.5244 51.5462 65.5244C42.7301 65.5244 35.5793 58.3736 35.5793 49.5575ZM53.0971 75.8185V68.0641C57.0628 67.7414 60.6745 66.1593 63.5369 63.7341L69.0223 69.2194C64.7339 73.029 59.1965 75.4646 53.0971 75.8185ZM71.2081 67.0336L65.7228 61.5483C68.148 58.6859 69.7197 55.0741 70.0527 51.1084H77.8072C77.4533 57.2079 75.0176 62.7453 71.2081 67.0336ZM70.0527 48.0171C69.7301 44.0514 68.148 40.4396 65.7228 37.5772L71.2081 32.0918C75.0176 36.3802 77.4533 41.9176 77.8072 48.0171H70.0527Z" fill="white"/>
</svg>
