<svg width="14" height="14" viewBox="0 0 14 14" fill="none" xmlns="http://www.w3.org/2000/svg">
<path d="M0.875 1.75241C0.875 1.26777 1.27772 0.875 1.77461 0.875H12.2254C12.7223 0.875 13.125 1.26777 13.125 1.75241V12.2476C13.125 12.7322 12.7223 13.125 12.2254 13.125H1.77461C1.27772 13.125 0.875 12.7322 0.875 12.2476V1.75241ZM4.65948 11.1298V5.59814H2.82122V11.1298H4.65948ZM3.74073 4.84247C4.38156 4.84247 4.78045 4.41831 4.78045 3.88697C4.76897 3.34414 4.38233 2.93147 3.75298 2.93147C3.12364 2.93147 2.7125 3.34491 2.7125 3.88697C2.7125 4.41831 3.11139 4.84247 3.72848 4.84247H3.74073ZM7.49842 11.1298V8.04048C7.49842 7.87511 7.51067 7.70973 7.55967 7.59183C7.69212 7.26184 7.99455 6.91961 8.50292 6.91961C9.16825 6.91961 9.43392 7.42645 9.43392 8.17064V11.1298H11.2722V7.95703C11.2722 6.25734 10.3657 5.46722 9.156 5.46722C8.18059 5.46722 7.74342 6.00316 7.49842 6.38061V6.39975H7.48617C7.49024 6.39336 7.49432 6.38698 7.49842 6.38061V5.59814H5.66092C5.68389 6.11723 5.66092 11.1298 5.66092 11.1298H7.49842Z" fill="#110A1D"/>
</svg>
