<svg width="13" height="11" viewBox="0 0 13 11" fill="none" xmlns="http://www.w3.org/2000/svg">
<path d="M11.6437 0.132122C11.6437 0.132122 12.7768 -0.309753 12.682 0.763289C12.6508 1.20516 12.3676 2.75187 12.1471 4.42458L11.3917 9.38C11.3917 9.38 11.3287 10.106 10.762 10.2322C10.1956 10.3582 9.34567 9.79037 9.18817 9.66408C9.06217 9.56929 6.82742 8.14887 6.0405 7.45471C5.82 7.26512 5.568 6.88654 6.072 6.44466L9.37688 3.28825C9.75459 2.90966 10.1323 2.02591 8.55846 3.09896L4.15138 6.09729C4.15138 6.09729 3.64767 6.41316 2.70354 6.12908L0.657211 5.49762C0.657211 5.49762 -0.098206 5.02425 1.19242 4.55087C4.34038 3.06746 8.21225 1.55254 11.6431 0.132122H11.6437Z" fill="#110A1D"/>
</svg>
