<svg width="12" height="14" viewBox="0 0 12 14" fill="none" xmlns="http://www.w3.org/2000/svg">
<path fill-rule="evenodd" clip-rule="evenodd" d="M7.0125 0.924805C7.38529 0.924805 7.6875 1.22701 7.6875 1.5998C7.6875 2.31589 7.97197 3.00265 8.47831 3.50899C8.98466 4.01534 9.67142 4.29981 10.3875 4.29981C10.7603 4.29981 11.0625 4.60201 11.0625 4.9748C11.0625 5.3476 10.7603 5.64981 10.3875 5.64981C9.38874 5.64981 8.42801 5.28088 7.6875 4.6185V9.69981C7.6875 10.3673 7.48956 11.0198 7.11871 11.5749C6.74786 12.1299 6.22076 12.5625 5.60406 12.8179C4.98736 13.0733 4.30876 13.1402 3.65407 13.01C2.99939 12.8797 2.39802 12.5583 1.92602 12.0863C1.45401 11.6143 1.13258 11.0129 1.00235 10.3582C0.872126 9.70355 0.938962 9.02495 1.19441 8.40825C1.44985 7.79155 1.88244 7.26445 2.43745 6.8936C2.99247 6.52275 3.64499 6.32481 4.3125 6.32481C4.68529 6.32481 4.9875 6.62701 4.9875 6.99981C4.9875 7.3726 4.68529 7.67481 4.3125 7.67481C3.91199 7.67481 3.52048 7.79357 3.18747 8.01608C2.85446 8.23859 2.59491 8.55485 2.44165 8.92487C2.28838 9.29489 2.24828 9.70205 2.32641 10.0949C2.40455 10.4877 2.59741 10.8485 2.88061 11.1317C3.16381 11.4149 3.52463 11.6078 3.91744 11.6859C4.31026 11.764 4.71742 11.7239 5.08744 11.5707C5.45746 11.4174 5.77372 11.1578 5.99623 10.8248C6.21874 10.4918 6.3375 10.1003 6.3375 9.69981V1.5998C6.3375 1.22701 6.63971 0.924805 7.0125 0.924805Z" fill="#110A1D"/>
</svg>
