<svg width="14" height="9" viewBox="0 0 14 9" fill="none" xmlns="http://www.w3.org/2000/svg">
<path fill-rule="evenodd" clip-rule="evenodd" d="M0.311366 0.540354C0.371931 0.452124 0.468821 0.399902 0.571954 0.399902H2.78376C2.90777 0.399902 3.02076 0.475186 3.07424 0.593447C3.20876 0.89094 3.3395 1.19186 3.46885 1.48956C3.76915 2.18075 4.0619 2.85456 4.37691 3.42766C4.60015 3.8338 4.82287 4.16627 5.05001 4.40235C5.14614 4.50227 5.23943 4.58119 5.33039 4.64085V1.82015L4.66793 0.954135C4.58994 0.852168 4.57431 0.711904 4.62776 0.593574C4.68121 0.475244 4.79423 0.399902 4.91829 0.399902H7.99293C8.17074 0.399902 8.31488 0.552254 8.31488 0.740189V3.9274C8.68263 3.54399 8.9704 3.10703 9.23319 2.63856C9.38446 2.3689 9.52466 2.09411 9.66843 1.81235C9.70318 1.74424 9.73814 1.67572 9.77351 1.60677C9.95336 1.25619 10.142 0.898417 10.3578 0.552775C10.4173 0.457333 10.5183 0.399902 10.6265 0.399902H12.7449C12.8448 0.399902 12.9391 0.448911 13 0.532562C13.061 0.616213 13.0817 0.725028 13.0562 0.827107C12.6506 2.44996 11.8611 3.58348 11.1084 4.66435C11.0786 4.70704 11.049 4.74966 11.0194 4.79221C12.0413 5.75879 12.8603 6.94273 13.4219 8.26775C13.4665 8.37303 13.4576 8.49504 13.3983 8.59187C13.3389 8.68869 13.2372 8.74714 13.128 8.74714H10.7971C10.7199 8.74714 10.6453 8.71782 10.5868 8.66452C10.3405 8.43995 10.1286 8.19418 9.93331 7.95925C9.89333 7.91117 9.85426 7.86381 9.81578 7.81716C9.6622 7.63102 9.51793 7.45615 9.36262 7.2915C9.06504 6.97604 8.74511 6.71853 8.31488 6.5742V8.40686C8.31488 8.57823 8.1943 8.72287 8.03345 8.74444C5.41928 9.09501 3.66121 7.73669 2.47696 5.99732C1.33877 4.32559 0.704335 2.2678 0.302569 0.964676C0.290123 0.924305 0.277899 0.884657 0.265891 0.845768C0.233892 0.742141 0.2508 0.628584 0.311366 0.540354ZM1.01594 1.08048C1.42013 2.37792 2.01304 4.15076 2.9996 5.59979C4.04888 7.14093 5.51702 8.28159 7.67098 8.10006V6.14735C7.67098 6.04814 7.71194 5.95388 7.78313 5.88923C7.85433 5.82459 7.94867 5.796 8.04145 5.81095C8.84935 5.94114 9.38121 6.34731 9.8186 6.81097C9.99065 6.99336 10.1527 7.18987 10.3075 7.37763C10.3444 7.42236 10.3809 7.46658 10.417 7.51001C10.5818 7.70825 10.7436 7.89574 10.9196 8.06657H12.6159C12.0631 6.93407 11.3028 5.92685 10.3774 5.10451C10.2481 4.98959 10.2249 4.78857 10.3241 4.64409C10.4125 4.51555 10.5007 4.38858 10.5885 4.26236C11.2699 3.28221 11.9196 2.34769 12.314 1.08048H10.8021C10.6395 1.35381 10.4898 1.63825 10.3396 1.93118C10.3058 1.99698 10.2719 2.06336 10.2379 2.13016C10.0936 2.41292 9.94567 2.7029 9.78705 2.98566C9.39216 3.68961 8.91397 4.38129 8.17971 4.93406C8.08154 5.00796 7.95254 5.01773 7.84542 4.95936C7.73829 4.901 7.67098 4.78428 7.67098 4.65689V1.08048H5.59261L5.9027 1.48585C5.94902 1.54641 5.97429 1.62193 5.97429 1.6998V5.11968C5.97429 5.21677 5.93506 5.30924 5.86645 5.37381C5.79785 5.43838 5.70642 5.4689 5.61518 5.4577C5.22148 5.40934 4.88503 5.18537 4.59854 4.88762C4.31247 4.59029 4.05609 4.1988 3.82014 3.76954C3.48888 3.16686 3.17473 2.44394 2.8684 1.73901C2.7716 1.51625 2.67558 1.29528 2.58004 1.08048H1.01594Z" fill="#110A1D"/>
<path d="M2.9996 5.59979C2.01304 4.15076 1.42013 2.37792 1.01594 1.08048H2.58004C2.67558 1.29528 2.7716 1.51625 2.8684 1.73901C3.17473 2.44394 3.48888 3.16686 3.82014 3.76954C4.05609 4.1988 4.31247 4.59029 4.59854 4.88762C4.88503 5.18537 5.22148 5.40934 5.61518 5.4577C5.70642 5.4689 5.79785 5.43838 5.86645 5.37381C5.93506 5.30924 5.97429 5.21677 5.97429 5.11968V1.6998C5.97429 1.62193 5.94902 1.54641 5.9027 1.48585L5.59261 1.08048H7.67098V4.65689C7.67098 4.78428 7.73829 4.901 7.84542 4.95936C7.95254 5.01773 8.08154 5.00796 8.17971 4.93406C8.91397 4.38129 9.39216 3.68961 9.78705 2.98566C9.94567 2.7029 10.0936 2.41292 10.2379 2.13016C10.2719 2.06336 10.3058 1.99698 10.3396 1.93118C10.4898 1.63825 10.6395 1.35381 10.8021 1.08048H12.314C11.9196 2.34769 11.2699 3.28221 10.5885 4.26236C10.5007 4.38858 10.4125 4.51555 10.3241 4.64409C10.2249 4.78857 10.2481 4.98959 10.3774 5.10451C11.3028 5.92685 12.0631 6.93407 12.6159 8.06657H10.9196C10.7436 7.89574 10.5818 7.70825 10.417 7.51001C10.3809 7.46658 10.3444 7.42236 10.3075 7.37763C10.1527 7.18987 9.99065 6.99336 9.8186 6.81097C9.38121 6.34731 8.84935 5.94114 8.04145 5.81095C7.94867 5.796 7.85433 5.82459 7.78313 5.88923C7.71194 5.95388 7.67098 6.04814 7.67098 6.14735V8.10006C5.51702 8.28159 4.04888 7.14093 2.9996 5.59979Z" fill="#110A1D"/>
</svg>
